<?xml version="1.0" encoding="utf-8"?>
<!-- Generator: Adobe Illustrator 24.3.0, SVG Export Plug-In . SVG Version: 6.00 Build 0)  -->
<svg version="1.1" id="Layer_1" xmlns="http://www.w3.org/2000/svg" xmlns:xlink="http://www.w3.org/1999/xlink" x="0px" y="0px"
	 viewBox="0 0 1000 1000" style="enable-background:new 0 0 1000 1000;" xml:space="preserve">
<style type="text/css">
	.st0{fill:#895623;}
	.st1{fill:none;stroke:#66401A;stroke-miterlimit:10;}
	.st2{fill:none;stroke:#66401A;stroke-width:1;stroke-miterlimit:9.9999;}
	.st3{fill:#895623;stroke:#66401A;stroke-miterlimit:10;}
	.st4{fill:url(#SVGID_1_);stroke:#66401A;stroke-miterlimit:10;}
	.st5{fill:none;stroke:#171717;stroke-miterlimit:10;}
	.st6{fill:#383838;}
	.st7{fill:#E5E51E;}
	.st8{fill:#231F20;stroke:#171717;stroke-miterlimit:10;}
</style>
<g id="Layer_2_1_">
	<g>
		<g>
			<rect x="487.77" y="409.71" class="st0" width="27.84" height="124.15"/>
			<rect x="487.77" y="409.71" class="st1" width="27.84" height="124.15"/>
		</g>
		<g>
			
				<rect x="507.24" y="486.44" transform="matrix(0.7071 -0.7071 0.7071 0.7071 -187.0621 549.116)" class="st0" width="124.15" height="27.84"/>
			
				<rect x="507.24" y="486.44" transform="matrix(0.7071 -0.7071 0.7071 0.7071 -187.0621 549.116)" class="st2" width="124.15" height="27.84"/>
		</g>
		<g>
			<rect x="534.8" y="554.55" class="st0" width="124.15" height="27.84"/>
			<rect x="534.8" y="554.55" class="st1" width="124.15" height="27.84"/>
		</g>
		<g>
			
				<rect x="554.35" y="574.03" transform="matrix(0.7071 -0.7071 0.7071 0.7071 -283.3488 588.1348)" class="st0" width="27.84" height="124.15"/>
			
				<rect x="554.35" y="574.03" transform="matrix(0.7071 -0.7071 0.7071 0.7071 -283.3488 588.1348)" class="st2" width="27.84" height="124.15"/>
		</g>
		<g>
			<rect x="486.27" y="601.58" class="st0" width="27.84" height="124.15"/>
			<rect x="486.27" y="601.58" class="st1" width="27.84" height="124.15"/>
		</g>
		<g>
			
				<rect x="370.46" y="621.14" transform="matrix(0.7071 -0.7071 0.7071 0.7071 -322.3676 491.8482)" class="st0" width="124.15" height="27.84"/>
			
				<rect x="370.46" y="621.14" transform="matrix(0.7071 -0.7071 0.7071 0.7071 -322.3676 491.8482)" class="st2" width="124.15" height="27.84"/>
		</g>
		<g>
			<rect x="342.93" y="553.05" class="st0" width="124.15" height="27.84"/>
			<rect x="342.93" y="553.05" class="st1" width="124.15" height="27.84"/>
		</g>
		<g>
			
				<rect x="419.65" y="437.24" transform="matrix(0.7071 -0.7071 0.7071 0.7071 -226.081 452.8293)" class="st0" width="27.84" height="124.15"/>
			
				<rect x="419.65" y="437.24" transform="matrix(0.7071 -0.7071 0.7071 0.7071 -226.081 452.8293)" class="st2" width="27.84" height="124.15"/>
		</g>
		<path class="st3" d="M500.94,529.72c-21.07,0-38,16.93-38,38s16.93,38,38,38c21.07,0,38-16.93,38-38S522.01,529.72,500.94,529.72z
			 M500.94,596.31c-15.8,0-28.59-12.79-28.59-28.59c0-15.8,12.79-28.59,28.59-28.59c15.8,0,28.59,12.79,28.59,28.59
			C529.53,583.52,516.74,596.31,500.94,596.31z"/>
		<path class="st3" d="M500.94,364.56c-112.11,0-203.15,91.04-203.15,203.15s91.04,203.15,203.15,203.15S704.1,679.83,704.1,567.72
			S613.05,364.56,500.94,364.56z M500.94,720.08c-84.27,0-152.37-68.09-152.37-152.37s68.09-152.37,152.37-152.37
			s152.37,68.09,152.37,152.37S585.21,720.08,500.94,720.08z"/>
	</g>
	
		<linearGradient id="SVGID_1_" gradientUnits="userSpaceOnUse" x1="882.7964" y1="492.5947" x2="882.7964" y2="492.5947" gradientTransform="matrix(1 0 0 -1 0 1002)">
		<stop  offset="0.0776" style="stop-color:#424242"/>
		<stop  offset="0.295" style="stop-color:#A1A1A1"/>
		<stop  offset="0.6107" style="stop-color:#000000"/>
	</linearGradient>
	<path class="st4" d="M882.8,509.41"/>
	<g>
		<g>
			<path class="st5" d="M266.68,362.9c-5-34.63-15.97-45.69-25.61-49.72c-20.09-8.33-37.96,14.18-70.35,13.18
				c-24.41-0.92-43.71-14.66-56.69-26.59"/>
			<path class="st6" d="M238.59,408.39c-8.7-8.33-4.3-29.41,5.71-42.51c0.65-0.85,15.56-19.92,39.53-16.66
				c16.21,2.01,33.71,13.72,33.81,25.85C317.6,397.47,254.68,423.71,238.59,408.39z"/>
			<polygon class="st7" points="141.98,210.64 121.61,285.47 79.33,219 99.73,292.19 32.11,297.42 96.32,309.34 43.8,356.58 
				107.94,325.25 103.87,380.07 120.12,331.22 159.38,377.97 137.27,317.54 195.67,325.69 149.53,304.14 198.42,263.83 
				133.79,291.44 			"/>
		</g>
		<path class="st8" d="M890.45,458.03c-13.21-7.96-63.27,11.99-128.8,43.76c-139.17,67.46-348.1,188.21-422.08,208.15
			c-6.24,1.59-15.09,3.53-26.1,3.48c-61.93-0.46-106.46-63.98-112.13-72.33c-44.36-65.06-48.47-166.98,0.97-220.27
			c19.89-21.63,45.19-31.08,95.71-50.73c56.33-21.56,53.4-9.4,98.69-28.35c12.93-5.52,116.34-38.3,134.49-44.52l7.96,2.73
			c8.45,6.46,16.41,9.2,16.41,9.2l16.16-21.13c0,0,13.05-1.74,14.92-1.99c19.11-2.55,50.64-12.22,83.71-23.77
			c62.44-21.81,130.34-50.34,130.34-50.34l-10.44-21.38c0,0,33.16-18.85,50.71-18.15c20.39,39.03,87.54,200.86,112.9,277.18
			c-8.5,10.24-49.72,25.61-49.72,25.61S895.84,461.49,890.45,458.03z"/>
	</g>
	<g>
		<g>
			<rect x="326" y="473.67" class="st0" width="27.84" height="124.15"/>
			<rect x="326" y="473.67" class="st1" width="27.84" height="124.15"/>
		</g>
		<g>
			
				<rect x="345.47" y="550.4" transform="matrix(0.7071 -0.7071 0.7071 0.7071 -279.6662 453.4586)" class="st0" width="124.15" height="27.84"/>
			
				<rect x="345.47" y="550.4" transform="matrix(0.7071 -0.7071 0.7071 0.7071 -279.6662 453.4586)" class="st2" width="124.15" height="27.84"/>
		</g>
		<g>
			<rect x="373.03" y="618.51" class="st0" width="124.15" height="27.84"/>
			<rect x="373.03" y="618.51" class="st1" width="124.15" height="27.84"/>
		</g>
		<g>
			
				<rect x="392.58" y="637.98" transform="matrix(0.7071 -0.7071 0.7071 0.7071 -375.953 492.4775)" class="st0" width="27.84" height="124.15"/>
			
				<rect x="392.58" y="637.98" transform="matrix(0.7071 -0.7071 0.7071 0.7071 -375.953 492.4775)" class="st2" width="27.84" height="124.15"/>
		</g>
		<g>
			<rect x="324.5" y="665.53" class="st0" width="27.84" height="124.15"/>
			<rect x="324.5" y="665.53" class="st1" width="27.84" height="124.15"/>
		</g>
		<g>
			
				<rect x="208.68" y="685.09" transform="matrix(0.7071 -0.7071 0.7071 0.7071 -414.9719 396.1909)" class="st0" width="124.15" height="27.84"/>
			
				<rect x="208.68" y="685.09" transform="matrix(0.7071 -0.7071 0.7071 0.7071 -414.9719 396.1909)" class="st2" width="124.15" height="27.84"/>
		</g>
		<g>
			<rect x="181.16" y="617" class="st0" width="124.15" height="27.84"/>
			<rect x="181.16" y="617" class="st1" width="124.15" height="27.84"/>
		</g>
		<g>
			
				<rect x="257.88" y="501.2" transform="matrix(0.7071 -0.7071 0.7071 0.7071 -318.6855 357.1717)" class="st0" width="27.84" height="124.15"/>
			
				<rect x="257.88" y="501.2" transform="matrix(0.7071 -0.7071 0.7071 0.7071 -318.6855 357.1717)" class="st2" width="27.84" height="124.15"/>
		</g>
		<path class="st3" d="M339.17,593.68c-21.07,0-38,16.93-38,38s16.93,38,38,38s38-16.93,38-38S360.24,593.68,339.17,593.68z
			 M339.17,660.27c-15.8,0-28.59-12.79-28.59-28.59c0-15.8,12.79-28.59,28.59-28.59c15.8,0,28.59,12.79,28.59,28.59
			C367.76,647.48,354.97,660.27,339.17,660.27z"/>
		<path class="st3" d="M339.17,428.52c-112.11,0-203.15,91.04-203.15,203.15s91.04,203.15,203.15,203.15s203.15-91.04,203.15-203.15
			S451.28,428.52,339.17,428.52z M339.17,784.04c-84.27,0-152.37-68.09-152.37-152.37s68.09-152.37,152.37-152.37
			s152.37,68.09,152.37,152.37S423.44,784.04,339.17,784.04z"/>
	</g>
</g>
</svg>
