<?xml version="1.0" encoding="utf-8"?>
<!-- Generator: Adobe Illustrator 24.3.0, SVG Export Plug-In . SVG Version: 6.00 Build 0)  -->
<svg version="1.1" id="Layer_1" xmlns="http://www.w3.org/2000/svg" xmlns:xlink="http://www.w3.org/1999/xlink" x="0px" y="0px"
	 viewBox="0 0 1000 1000" style="enable-background:new 0 0 1000 1000;" xml:space="preserve">
<style type="text/css">
	.st0{fill:#895623;}
	.st1{fill:none;stroke:#66401A;stroke-miterlimit:10;}
	.st2{fill:none;stroke:#66401A;stroke-width:1;stroke-miterlimit:9.9999;}
	.st3{fill:#895623;stroke:#66401A;stroke-miterlimit:10;}
	.st4{fill:url(#SVGID_1_);stroke:#66401A;stroke-miterlimit:10;}
	.st5{fill:none;stroke:#171717;stroke-miterlimit:10;}
	.st6{fill:#383838;}
	.st7{fill:#E5E51E;}
	.st8{fill:#231F20;stroke:#171717;stroke-miterlimit:10;}
</style>
<g id="Layer_2_1_">
	<g>
		<g>
			<rect x="487.77" y="409.71" class="st0" width="27.84" height="124.15"/>
			<rect x="487.77" y="409.71" class="st1" width="27.84" height="124.15"/>
		</g>
		<g>
			
				<rect x="507.24" y="486.44" transform="matrix(0.7071 -0.7071 0.7071 0.7071 -187.0621 549.116)" class="st0" width="124.15" height="27.84"/>
			
				<rect x="507.24" y="486.44" transform="matrix(0.7071 -0.7071 0.7071 0.7071 -187.0621 549.116)" class="st2" width="124.15" height="27.84"/>
		</g>
		<g>
			<rect x="534.8" y="554.55" class="st0" width="124.15" height="27.84"/>
			<rect x="534.8" y="554.55" class="st1" width="124.15" height="27.84"/>
		</g>
		<g>
			
				<rect x="554.35" y="574.03" transform="matrix(0.7071 -0.7071 0.7071 0.7071 -283.3488 588.1348)" class="st0" width="27.84" height="124.15"/>
			
				<rect x="554.35" y="574.03" transform="matrix(0.7071 -0.7071 0.7071 0.7071 -283.3488 588.1348)" class="st2" width="27.84" height="124.15"/>
		</g>
		<g>
			<rect x="486.27" y="601.58" class="st0" width="27.84" height="124.15"/>
			<rect x="486.27" y="601.58" class="st1" width="27.84" height="124.15"/>
		</g>
		<g>
			
				<rect x="370.46" y="621.14" transform="matrix(0.7071 -0.7071 0.7071 0.7071 -322.3676 491.8482)" class="st0" width="124.15" height="27.84"/>
			
				<rect x="370.46" y="621.14" transform="matrix(0.7071 -0.7071 0.7071 0.7071 -322.3676 491.8482)" class="st2" width="124.15" height="27.84"/>
		</g>
		<g>
			<rect x="342.93" y="553.05" class="st0" width="124.15" height="27.84"/>
			<rect x="342.93" y="553.05" class="st1" width="124.15" height="27.84"/>
		</g>
		<g>
			
				<rect x="419.65" y="437.24" transform="matrix(0.7071 -0.7071 0.7071 0.7071 -226.081 452.8293)" class="st0" width="27.84" height="124.15"/>
			
				<rect x="419.65" y="437.24" transform="matrix(0.7071 -0.7071 0.7071 0.7071 -226.081 452.8293)" class="st2" width="27.84" height="124.15"/>
		</g>
		<path class="st3" d="M500.94,529.72c-21.07,0-38,16.93-38,38s16.93,38,38,38c21.07,0,38-16.93,38-38S522.01,529.72,500.94,529.72z
			 M500.94,596.31c-15.8,0-28.59-12.79-28.59-28.59c0-15.8,12.79-28.59,28.59-28.59c15.8,0,28.59,12.79,28.59,28.59
			C529.53,583.52,516.74,596.31,500.94,596.31z"/>
		<path class="st3" d="M500.94,364.56c-112.11,0-203.15,91.04-203.15,203.15s91.04,203.15,203.15,203.15S704.1,679.83,704.1,567.72
			S613.05,364.56,500.94,364.56z M500.94,720.08c-84.27,0-152.37-68.09-152.37-152.37s68.09-152.37,152.37-152.37
			s152.37,68.09,152.37,152.37S585.21,720.08,500.94,720.08z"/>
	</g>
	
		<linearGradient id="SVGID_1_" gradientUnits="userSpaceOnUse" x1="882.7964" y1="492.5947" x2="882.7964" y2="492.5947" gradientTransform="matrix(1 0 0 -1 0 1002)">
		<stop  offset="0.0776" style="stop-color:#424242"/>
		<stop  offset="0.295" style="stop-color:#A1A1A1"/>
		<stop  offset="0.6107" style="stop-color:#000000"/>
	</linearGradient>
	<path class="st4" d="M882.8,509.41"/>
	<g>
		<g>
			<path class="st5" d="M262.06,383.44c-8-34.06-19.88-44.13-29.84-47.3c-20.74-6.55-36.58,17.42-68.94,19.26
				c-24.4,1.21-44.82-10.8-58.78-21.56"/>
			<path class="st6" d="M238.04,431.21c-9.39-7.54-6.85-28.92,1.99-42.85c0.57-0.9,13.77-21.19,37.93-20.04
				c16.32,0.59,34.78,10.73,35.94,22.81C315.8,413.45,255.4,445.06,238.04,431.21z"/>
			<polygon class="st7" points="124.59,242.61 110.8,318.93 62.91,256.39 89.59,327.52 22.68,338.62 87.69,344.91 39.48,396.54 
				100.65,359.75 101.36,414.71 113.3,364.63 156.48,407.79 129.2,349.51 188.09,352.55 140.24,335.1 185.44,290.69 123.46,323.81 
							"/>
		</g>
		<path class="st8" d="M891.74,423.94c-13.85-6.78-61.99,17.45-124.51,54.8c-132.77,79.31-330.41,217.79-402.37,244.09
			c-6.08,2.13-14.73,4.83-25.7,5.74c-61.73,4.93-111.63-54.47-118-62.3c-49.85-60.95-62.82-162.13-18.2-219.52
			c17.93-23.28,42.32-34.9,90.93-58.86c54.24-26.38,52.38-14.01,95.85-36.83c12.4-6.62,112.57-48.28,130.11-56.05l8.16,2.03
			c8.98,5.7,17.15,7.73,17.15,7.73l14.26-22.46c0,0,12.85-2.87,14.69-3.28c18.81-4.2,49.39-16.58,81.32-30.96
			c60.3-27.16,125.46-61.49,125.46-61.49l-12.26-20.39c0,0,31.4-21.66,48.94-22.5C841.28,180.79,922.25,336.17,954.16,410
			c-7.58,10.94-47.3,29.84-47.3,29.84S897.42,426.91,891.74,423.94z"/>
	</g>
	<g>
		<g>
			<rect x="326" y="473.67" class="st0" width="27.84" height="124.15"/>
			<rect x="326" y="473.67" class="st1" width="27.84" height="124.15"/>
		</g>
		<g>
			
				<rect x="345.47" y="550.4" transform="matrix(0.7071 -0.7071 0.7071 0.7071 -279.6662 453.4586)" class="st0" width="124.15" height="27.84"/>
			
				<rect x="345.47" y="550.4" transform="matrix(0.7071 -0.7071 0.7071 0.7071 -279.6662 453.4586)" class="st2" width="124.15" height="27.84"/>
		</g>
		<g>
			<rect x="373.03" y="618.51" class="st0" width="124.15" height="27.84"/>
			<rect x="373.03" y="618.51" class="st1" width="124.15" height="27.84"/>
		</g>
		<g>
			
				<rect x="392.58" y="637.98" transform="matrix(0.7071 -0.7071 0.7071 0.7071 -375.953 492.4775)" class="st0" width="27.84" height="124.15"/>
			
				<rect x="392.58" y="637.98" transform="matrix(0.7071 -0.7071 0.7071 0.7071 -375.953 492.4775)" class="st2" width="27.84" height="124.15"/>
		</g>
		<g>
			<rect x="324.5" y="665.53" class="st0" width="27.84" height="124.15"/>
			<rect x="324.5" y="665.53" class="st1" width="27.84" height="124.15"/>
		</g>
		<g>
			
				<rect x="208.68" y="685.09" transform="matrix(0.7071 -0.7071 0.7071 0.7071 -414.9719 396.1909)" class="st0" width="124.15" height="27.84"/>
			
				<rect x="208.68" y="685.09" transform="matrix(0.7071 -0.7071 0.7071 0.7071 -414.9719 396.1909)" class="st2" width="124.15" height="27.84"/>
		</g>
		<g>
			<rect x="181.16" y="617" class="st0" width="124.15" height="27.84"/>
			<rect x="181.16" y="617" class="st1" width="124.15" height="27.84"/>
		</g>
		<g>
			
				<rect x="257.88" y="501.2" transform="matrix(0.7071 -0.7071 0.7071 0.7071 -318.6855 357.1717)" class="st0" width="27.84" height="124.15"/>
			
				<rect x="257.88" y="501.2" transform="matrix(0.7071 -0.7071 0.7071 0.7071 -318.6855 357.1717)" class="st2" width="27.84" height="124.15"/>
		</g>
		<path class="st3" d="M339.17,593.68c-21.07,0-38,16.93-38,38s16.93,38,38,38s38-16.93,38-38S360.24,593.68,339.17,593.68z
			 M339.17,660.27c-15.8,0-28.59-12.79-28.59-28.59c0-15.8,12.79-28.59,28.59-28.59c15.8,0,28.59,12.79,28.59,28.59
			C367.76,647.48,354.97,660.27,339.17,660.27z"/>
		<path class="st3" d="M339.17,428.52c-112.11,0-203.15,91.04-203.15,203.15s91.04,203.15,203.15,203.15s203.15-91.04,203.15-203.15
			S451.28,428.52,339.17,428.52z M339.17,784.04c-84.27,0-152.37-68.09-152.37-152.37s68.09-152.37,152.37-152.37
			s152.37,68.09,152.37,152.37S423.44,784.04,339.17,784.04z"/>
	</g>
</g>
</svg>
