<?xml version="1.0" encoding="utf-8"?>
<!-- Generator: Adobe Illustrator 24.3.0, SVG Export Plug-In . SVG Version: 6.00 Build 0)  -->
<svg version="1.1" id="Layer_1" xmlns="http://www.w3.org/2000/svg" xmlns:xlink="http://www.w3.org/1999/xlink" x="0px" y="0px"
	 viewBox="0 0 1000 1000" style="enable-background:new 0 0 1000 1000;" xml:space="preserve">
<style type="text/css">
	.st0{fill:#895623;}
	.st1{fill:none;stroke:#66401A;stroke-miterlimit:10;}
	.st2{fill:none;stroke:#66401A;stroke-width:1;stroke-miterlimit:9.9999;}
	.st3{fill:#895623;stroke:#66401A;stroke-miterlimit:10;}
	.st4{fill:url(#SVGID_1_);stroke:#66401A;stroke-miterlimit:10;}
	.st5{fill:none;stroke:#171717;stroke-miterlimit:10;}
	.st6{fill:#383838;}
	.st7{fill:#E5E51E;}
	.st8{fill:#231F20;stroke:#171717;stroke-miterlimit:10;}
</style>
<g id="Layer_2_1_">
	<g>
		<g>
			<rect x="487.77" y="409.71" class="st0" width="27.84" height="124.15"/>
			<rect x="487.77" y="409.71" class="st1" width="27.84" height="124.15"/>
		</g>
		<g>
			
				<rect x="507.24" y="486.44" transform="matrix(0.7071 -0.7071 0.7071 0.7071 -187.0621 549.116)" class="st0" width="124.15" height="27.84"/>
			
				<rect x="507.24" y="486.44" transform="matrix(0.7071 -0.7071 0.7071 0.7071 -187.0621 549.116)" class="st2" width="124.15" height="27.84"/>
		</g>
		<g>
			<rect x="534.8" y="554.55" class="st0" width="124.15" height="27.84"/>
			<rect x="534.8" y="554.55" class="st1" width="124.15" height="27.84"/>
		</g>
		<g>
			
				<rect x="554.35" y="574.03" transform="matrix(0.7071 -0.7071 0.7071 0.7071 -283.3488 588.1348)" class="st0" width="27.84" height="124.15"/>
			
				<rect x="554.35" y="574.03" transform="matrix(0.7071 -0.7071 0.7071 0.7071 -283.3488 588.1348)" class="st2" width="27.84" height="124.15"/>
		</g>
		<g>
			<rect x="486.27" y="601.58" class="st0" width="27.84" height="124.15"/>
			<rect x="486.27" y="601.58" class="st1" width="27.84" height="124.15"/>
		</g>
		<g>
			
				<rect x="370.46" y="621.14" transform="matrix(0.7071 -0.7071 0.7071 0.7071 -322.3676 491.8482)" class="st0" width="124.15" height="27.84"/>
			
				<rect x="370.46" y="621.14" transform="matrix(0.7071 -0.7071 0.7071 0.7071 -322.3676 491.8482)" class="st2" width="124.15" height="27.84"/>
		</g>
		<g>
			<rect x="342.93" y="553.05" class="st0" width="124.15" height="27.84"/>
			<rect x="342.93" y="553.05" class="st1" width="124.15" height="27.84"/>
		</g>
		<g>
			
				<rect x="419.65" y="437.24" transform="matrix(0.7071 -0.7071 0.7071 0.7071 -226.081 452.8293)" class="st0" width="27.84" height="124.15"/>
			
				<rect x="419.65" y="437.24" transform="matrix(0.7071 -0.7071 0.7071 0.7071 -226.081 452.8293)" class="st2" width="27.84" height="124.15"/>
		</g>
		<path class="st3" d="M500.94,529.72c-21.07,0-38,16.93-38,38s16.93,38,38,38c21.07,0,38-16.93,38-38S522.01,529.72,500.94,529.72z
			 M500.94,596.31c-15.8,0-28.59-12.79-28.59-28.59c0-15.8,12.79-28.59,28.59-28.59c15.8,0,28.59,12.79,28.59,28.59
			C529.53,583.52,516.74,596.31,500.94,596.31z"/>
		<path class="st3" d="M500.94,364.56c-112.11,0-203.15,91.04-203.15,203.15s91.04,203.15,203.15,203.15S704.1,679.83,704.1,567.72
			S613.05,364.56,500.94,364.56z M500.94,720.08c-84.27,0-152.37-68.09-152.37-152.37s68.09-152.37,152.37-152.37
			s152.37,68.09,152.37,152.37S585.21,720.08,500.94,720.08z"/>
	</g>
	
		<linearGradient id="SVGID_1_" gradientUnits="userSpaceOnUse" x1="882.7964" y1="492.5947" x2="882.7964" y2="492.5947" gradientTransform="matrix(1 0 0 -1 0 1002)">
		<stop  offset="0.0776" style="stop-color:#424242"/>
		<stop  offset="0.295" style="stop-color:#A1A1A1"/>
		<stop  offset="0.6107" style="stop-color:#000000"/>
	</linearGradient>
	<path class="st4" d="M882.8,509.41"/>
	<g>
		<g>
			<path class="st5" d="M258.6,413.33c-12.17-32.81-25.21-41.32-35.49-43.23c-21.39-3.92-34.14,21.83-66.01,27.67
				c-24.06,4.23-45.81-5.15-61.01-14.09"/>
			<path class="st6" d="M240.7,463.71c-10.26-6.31-10.39-27.85-3.35-42.76c0.45-0.96,11.03-22.74,35.14-24.59
				c16.27-1.44,35.84,6.33,38.49,18.17C315.65,436.43,259.64,475.3,240.7,463.71z"/>
			<polygon class="st7" points="104.7,290.67 100.5,368.11 45.2,312 80.52,379.27 15.51,398.59 80.8,396.76 39.37,453.98 
				95.49,409.88 103.03,464.33 108.66,413.15 156.87,450.61 122.55,396.17 181.36,391.87 131.72,380.5 171.05,330.82 113.66,371.38 
							"/>
		</g>
		<path class="st8" d="M888.44,375.29c-14.59-5-59.34,25.02-116.73,69.84c-121.89,95.19-300.79,257.15-368.93,292.18
			c-5.77,2.87-14.01,6.62-24.79,8.89c-60.64,12.56-117.53-40.18-124.83-47.16c-57.04-54.28-82.48-153.07-45.33-215.55
			c14.9-25.33,37.65-39.88,82.91-69.7c50.54-32.92,50.23-20.41,90.53-48.46c11.48-8.11,105.7-61.89,122.14-71.78l8.35,1
			c9.62,4.54,17.98,5.54,17.98,5.54l11.36-24.06c0,0,12.39-4.45,14.17-5.08c18.15-6.51,46.94-22.59,76.84-40.83
			c56.46-34.44,116.85-76.6,116.85-76.6l-14.7-18.71c0,0,28.46-25.4,45.77-28.4C808.15,140.3,907.8,284.41,948.64,353.7
			c-6.16,11.8-43.23,35.49-43.23,35.49S894.44,377.53,888.44,375.29z"/>
	</g>
	<g>
		<g>
			<rect x="326" y="473.67" class="st0" width="27.84" height="124.15"/>
			<rect x="326" y="473.67" class="st1" width="27.84" height="124.15"/>
		</g>
		<g>
			
				<rect x="345.47" y="550.4" transform="matrix(0.7071 -0.7071 0.7071 0.7071 -279.6662 453.4586)" class="st0" width="124.15" height="27.84"/>
			
				<rect x="345.47" y="550.4" transform="matrix(0.7071 -0.7071 0.7071 0.7071 -279.6662 453.4586)" class="st2" width="124.15" height="27.84"/>
		</g>
		<g>
			<rect x="373.03" y="618.51" class="st0" width="124.15" height="27.84"/>
			<rect x="373.03" y="618.51" class="st1" width="124.15" height="27.84"/>
		</g>
		<g>
			
				<rect x="392.58" y="637.98" transform="matrix(0.7071 -0.7071 0.7071 0.7071 -375.953 492.4775)" class="st0" width="27.84" height="124.15"/>
			
				<rect x="392.58" y="637.98" transform="matrix(0.7071 -0.7071 0.7071 0.7071 -375.953 492.4775)" class="st2" width="27.84" height="124.15"/>
		</g>
		<g>
			<rect x="324.5" y="665.53" class="st0" width="27.84" height="124.15"/>
			<rect x="324.5" y="665.53" class="st1" width="27.84" height="124.15"/>
		</g>
		<g>
			
				<rect x="208.68" y="685.09" transform="matrix(0.7071 -0.7071 0.7071 0.7071 -414.9719 396.1909)" class="st0" width="124.15" height="27.84"/>
			
				<rect x="208.68" y="685.09" transform="matrix(0.7071 -0.7071 0.7071 0.7071 -414.9719 396.1909)" class="st2" width="124.15" height="27.84"/>
		</g>
		<g>
			<rect x="181.16" y="617" class="st0" width="124.15" height="27.84"/>
			<rect x="181.16" y="617" class="st1" width="124.15" height="27.84"/>
		</g>
		<g>
			
				<rect x="257.88" y="501.2" transform="matrix(0.7071 -0.7071 0.7071 0.7071 -318.6855 357.1717)" class="st0" width="27.84" height="124.15"/>
			
				<rect x="257.88" y="501.2" transform="matrix(0.7071 -0.7071 0.7071 0.7071 -318.6855 357.1717)" class="st2" width="27.84" height="124.15"/>
		</g>
		<path class="st3" d="M339.17,593.68c-21.07,0-38,16.93-38,38s16.93,38,38,38s38-16.93,38-38S360.24,593.68,339.17,593.68z
			 M339.17,660.27c-15.8,0-28.59-12.79-28.59-28.59c0-15.8,12.79-28.59,28.59-28.59c15.8,0,28.59,12.79,28.59,28.59
			C367.76,647.48,354.97,660.27,339.17,660.27z"/>
		<path class="st3" d="M339.17,428.52c-112.11,0-203.15,91.04-203.15,203.15s91.04,203.15,203.15,203.15s203.15-91.04,203.15-203.15
			S451.28,428.52,339.17,428.52z M339.17,784.04c-84.27,0-152.37-68.09-152.37-152.37s68.09-152.37,152.37-152.37
			s152.37,68.09,152.37,152.37S423.44,784.04,339.17,784.04z"/>
	</g>
</g>
</svg>
