<?xml version="1.0" encoding="utf-8"?>
<!-- Generator: Adobe Illustrator 24.3.0, SVG Export Plug-In . SVG Version: 6.00 Build 0)  -->
<svg version="1.1" id="Layer_1" xmlns="http://www.w3.org/2000/svg" xmlns:xlink="http://www.w3.org/1999/xlink" x="0px" y="0px"
	 viewBox="0 0 1000 1000" style="enable-background:new 0 0 1000 1000;" xml:space="preserve">
<style type="text/css">
	.st0{fill:#895623;}
	.st1{fill:none;stroke:#66401A;stroke-miterlimit:10;}
	.st2{fill:none;stroke:#66401A;stroke-width:1;stroke-miterlimit:9.9999;}
	.st3{fill:#895623;stroke:#66401A;stroke-miterlimit:10;}
	.st4{fill:url(#SVGID_1_);stroke:#66401A;stroke-miterlimit:10;}
	.st5{fill:none;stroke:#171717;stroke-miterlimit:10;}
	.st6{fill:#383838;}
	.st7{fill:#E5E51E;}
	.st8{fill:#231F20;stroke:#171717;stroke-miterlimit:10;}
</style>
<g id="Layer_2_1_">
	<g>
		<g>
			<rect x="487.77" y="409.71" class="st0" width="27.84" height="124.15"/>
			<rect x="487.77" y="409.71" class="st1" width="27.84" height="124.15"/>
		</g>
		<g>
			
				<rect x="507.24" y="486.44" transform="matrix(0.7071 -0.7071 0.7071 0.7071 -187.0621 549.116)" class="st0" width="124.15" height="27.84"/>
			
				<rect x="507.24" y="486.44" transform="matrix(0.7071 -0.7071 0.7071 0.7071 -187.0621 549.116)" class="st2" width="124.15" height="27.84"/>
		</g>
		<g>
			<rect x="534.8" y="554.55" class="st0" width="124.15" height="27.84"/>
			<rect x="534.8" y="554.55" class="st1" width="124.15" height="27.84"/>
		</g>
		<g>
			
				<rect x="554.35" y="574.03" transform="matrix(0.7071 -0.7071 0.7071 0.7071 -283.3488 588.1348)" class="st0" width="27.84" height="124.15"/>
			
				<rect x="554.35" y="574.03" transform="matrix(0.7071 -0.7071 0.7071 0.7071 -283.3488 588.1348)" class="st2" width="27.84" height="124.15"/>
		</g>
		<g>
			<rect x="486.27" y="601.58" class="st0" width="27.84" height="124.15"/>
			<rect x="486.27" y="601.58" class="st1" width="27.84" height="124.15"/>
		</g>
		<g>
			
				<rect x="370.46" y="621.14" transform="matrix(0.7071 -0.7071 0.7071 0.7071 -322.3676 491.8482)" class="st0" width="124.15" height="27.84"/>
			
				<rect x="370.46" y="621.14" transform="matrix(0.7071 -0.7071 0.7071 0.7071 -322.3676 491.8482)" class="st2" width="124.15" height="27.84"/>
		</g>
		<g>
			<rect x="342.93" y="553.05" class="st0" width="124.15" height="27.84"/>
			<rect x="342.93" y="553.05" class="st1" width="124.15" height="27.84"/>
		</g>
		<g>
			
				<rect x="419.65" y="437.24" transform="matrix(0.7071 -0.7071 0.7071 0.7071 -226.081 452.8293)" class="st0" width="27.84" height="124.15"/>
			
				<rect x="419.65" y="437.24" transform="matrix(0.7071 -0.7071 0.7071 0.7071 -226.081 452.8293)" class="st2" width="27.84" height="124.15"/>
		</g>
		<path class="st3" d="M500.94,529.72c-21.07,0-38,16.93-38,38s16.93,38,38,38c21.07,0,38-16.93,38-38S522.01,529.72,500.94,529.72z
			 M500.94,596.31c-15.8,0-28.59-12.79-28.59-28.59c0-15.8,12.79-28.59,28.59-28.59c15.8,0,28.59,12.79,28.59,28.59
			C529.53,583.52,516.74,596.31,500.94,596.31z"/>
		<path class="st3" d="M500.94,364.56c-112.11,0-203.15,91.04-203.15,203.15s91.04,203.15,203.15,203.15S704.1,679.83,704.1,567.72
			S613.05,364.56,500.94,364.56z M500.94,720.08c-84.27,0-152.37-68.09-152.37-152.37s68.09-152.37,152.37-152.37
			s152.37,68.09,152.37,152.37S585.21,720.08,500.94,720.08z"/>
	</g>
	
		<linearGradient id="SVGID_1_" gradientUnits="userSpaceOnUse" x1="882.7964" y1="492.5947" x2="882.7964" y2="492.5947" gradientTransform="matrix(1 0 0 -1 0 1002)">
		<stop  offset="0.0776" style="stop-color:#424242"/>
		<stop  offset="0.295" style="stop-color:#A1A1A1"/>
		<stop  offset="0.6107" style="stop-color:#000000"/>
	</linearGradient>
	<path class="st4" d="M882.8,509.41"/>
	<g>
		<g>
			<path class="st5" d="M282.98,319.64c1.68-34.95-6.98-47.9-15.68-53.68c-18.14-12-39.96,6.69-71.58-0.45
				c-23.79-5.55-40.12-22.71-50.59-36.9"/>
			<path class="st6" d="M246.75,358.96c-6.96-9.83,1.37-29.69,13.7-40.65c0.8-0.71,19.07-16.59,41.98-8.83
				c15.53,5.06,30.49,19.88,28.28,31.81C326.39,363.28,259.62,377.06,246.75,358.96z"/>
			<polygon class="st7" points="189.54,146.44 155.29,216.02 126.45,142.72 132.54,218.45 65.16,210.72 125.93,234.65 65.38,271.03 
				134.3,252.47 119.87,305.52 145.13,260.65 174.77,314.02 164.57,250.49 220.35,269.6 179.15,239.66 234.83,209.4 166.12,224.2 
							"/>
		</g>
		<path class="st8" d="M877.24,531.76c-35.79-32.26-476.36,134.38-588.76,142.45c-6.43,0.38-15.49,0.6-26.29-1.55
			c-60.71-12.24-92.34-83.07-96.31-92.35c-31.17-72.31-15.81-173.16,42.87-216.06c23.64-17.45,50.28-21.91,103.61-31.58
			c59.41-10.45,54.21,0.93,102.29-9.05c13.74-2.96,121.51-15.46,140.51-18.11l7.29,4.2c7.07,7.95,14.36,12.15,14.36,12.15
			l19.88-17.67c0,0,13.14,0.77,15.02,0.88c19.24,1.13,52.04-2.36,86.7-7.4c65.45-9.53,137.54-24.62,137.54-24.62l-6.18-22.98
			c0,0,36.14-12.19,53.24-8.17c12.59,42.2,47.7,213.85,58.08,293.61c-10.3,8.44-53.68,15.68-53.68,15.68
			S881.88,536.18,877.24,531.76z"/>
	</g>
	<g>
		<g>
			<rect x="326" y="473.67" class="st0" width="27.84" height="124.15"/>
			<rect x="326" y="473.67" class="st1" width="27.84" height="124.15"/>
		</g>
		<g>
			
				<rect x="345.47" y="550.4" transform="matrix(0.7071 -0.7071 0.7071 0.7071 -279.6662 453.4586)" class="st0" width="124.15" height="27.84"/>
			
				<rect x="345.47" y="550.4" transform="matrix(0.7071 -0.7071 0.7071 0.7071 -279.6662 453.4586)" class="st2" width="124.15" height="27.84"/>
		</g>
		<g>
			<rect x="373.03" y="618.51" class="st0" width="124.15" height="27.84"/>
			<rect x="373.03" y="618.51" class="st1" width="124.15" height="27.84"/>
		</g>
		<g>
			
				<rect x="392.58" y="637.98" transform="matrix(0.7071 -0.7071 0.7071 0.7071 -375.953 492.4775)" class="st0" width="27.84" height="124.15"/>
			
				<rect x="392.58" y="637.98" transform="matrix(0.7071 -0.7071 0.7071 0.7071 -375.953 492.4775)" class="st2" width="27.84" height="124.15"/>
		</g>
		<g>
			<rect x="324.5" y="665.53" class="st0" width="27.84" height="124.15"/>
			<rect x="324.5" y="665.53" class="st1" width="27.84" height="124.15"/>
		</g>
		<g>
			
				<rect x="208.68" y="685.09" transform="matrix(0.7071 -0.7071 0.7071 0.7071 -414.9719 396.1909)" class="st0" width="124.15" height="27.84"/>
			
				<rect x="208.68" y="685.09" transform="matrix(0.7071 -0.7071 0.7071 0.7071 -414.9719 396.1909)" class="st2" width="124.15" height="27.84"/>
		</g>
		<g>
			<rect x="181.16" y="617" class="st0" width="124.15" height="27.84"/>
			<rect x="181.16" y="617" class="st1" width="124.15" height="27.84"/>
		</g>
		<g>
			
				<rect x="257.88" y="501.2" transform="matrix(0.7071 -0.7071 0.7071 0.7071 -318.6855 357.1717)" class="st0" width="27.84" height="124.15"/>
			
				<rect x="257.88" y="501.2" transform="matrix(0.7071 -0.7071 0.7071 0.7071 -318.6855 357.1717)" class="st2" width="27.84" height="124.15"/>
		</g>
		<path class="st3" d="M339.17,593.68c-21.07,0-38,16.93-38,38s16.93,38,38,38s38-16.93,38-38S360.24,593.68,339.17,593.68z
			 M339.17,660.27c-15.8,0-28.59-12.79-28.59-28.59c0-15.8,12.79-28.59,28.59-28.59c15.8,0,28.59,12.79,28.59,28.59
			C367.76,647.48,354.97,660.27,339.17,660.27z"/>
		<path class="st3" d="M339.17,428.52c-112.11,0-203.15,91.04-203.15,203.15s91.04,203.15,203.15,203.15s203.15-91.04,203.15-203.15
			S451.28,428.52,339.17,428.52z M339.17,784.04c-84.27,0-152.37-68.09-152.37-152.37s68.09-152.37,152.37-152.37
			s152.37,68.09,152.37,152.37S423.44,784.04,339.17,784.04z"/>
	</g>
</g>
</svg>
