<?xml version="1.0" encoding="utf-8"?>
<!-- Generator: Adobe Illustrator 24.3.0, SVG Export Plug-In . SVG Version: 6.00 Build 0)  -->
<svg version="1.1" id="Layer_1" xmlns="http://www.w3.org/2000/svg" xmlns:xlink="http://www.w3.org/1999/xlink" x="0px" y="0px"
	 viewBox="0 0 1000 1000" style="enable-background:new 0 0 1000 1000;" xml:space="preserve">
<style type="text/css">
	.st0{fill:#895623;}
	.st1{fill:none;stroke:#66401A;stroke-miterlimit:10;}
	.st2{fill:none;stroke:#66401A;stroke-width:1;stroke-miterlimit:9.9999;}
	.st3{fill:#895623;stroke:#66401A;stroke-miterlimit:10;}
	.st4{fill:url(#SVGID_1_);stroke:#66401A;stroke-miterlimit:10;}
	.st5{fill:none;stroke:#171717;stroke-miterlimit:10;}
	.st6{fill:#383838;}
	.st7{fill:#E5E51E;}
	.st8{fill:#231F20;stroke:#171717;stroke-miterlimit:10;}
</style>
<g id="Layer_2_1_">
	<g>
		<g>
			<rect x="487.77" y="409.71" class="st0" width="27.84" height="124.15"/>
			<rect x="487.77" y="409.71" class="st1" width="27.84" height="124.15"/>
		</g>
		<g>
			
				<rect x="507.24" y="486.44" transform="matrix(0.7071 -0.7071 0.7071 0.7071 -187.0621 549.116)" class="st0" width="124.15" height="27.84"/>
			
				<rect x="507.24" y="486.44" transform="matrix(0.7071 -0.7071 0.7071 0.7071 -187.0621 549.116)" class="st2" width="124.15" height="27.84"/>
		</g>
		<g>
			<rect x="534.8" y="554.55" class="st0" width="124.15" height="27.84"/>
			<rect x="534.8" y="554.55" class="st1" width="124.15" height="27.84"/>
		</g>
		<g>
			
				<rect x="554.35" y="574.03" transform="matrix(0.7071 -0.7071 0.7071 0.7071 -283.3488 588.1348)" class="st0" width="27.84" height="124.15"/>
			
				<rect x="554.35" y="574.03" transform="matrix(0.7071 -0.7071 0.7071 0.7071 -283.3488 588.1348)" class="st2" width="27.84" height="124.15"/>
		</g>
		<g>
			<rect x="486.27" y="601.58" class="st0" width="27.84" height="124.15"/>
			<rect x="486.27" y="601.58" class="st1" width="27.84" height="124.15"/>
		</g>
		<g>
			
				<rect x="370.46" y="621.14" transform="matrix(0.7071 -0.7071 0.7071 0.7071 -322.3676 491.8482)" class="st0" width="124.15" height="27.84"/>
			
				<rect x="370.46" y="621.14" transform="matrix(0.7071 -0.7071 0.7071 0.7071 -322.3676 491.8482)" class="st2" width="124.15" height="27.84"/>
		</g>
		<g>
			<rect x="342.93" y="553.05" class="st0" width="124.15" height="27.84"/>
			<rect x="342.93" y="553.05" class="st1" width="124.15" height="27.84"/>
		</g>
		<g>
			
				<rect x="419.65" y="437.24" transform="matrix(0.7071 -0.7071 0.7071 0.7071 -226.081 452.8293)" class="st0" width="27.84" height="124.15"/>
			
				<rect x="419.65" y="437.24" transform="matrix(0.7071 -0.7071 0.7071 0.7071 -226.081 452.8293)" class="st2" width="27.84" height="124.15"/>
		</g>
		<path class="st3" d="M500.94,529.72c-21.07,0-38,16.93-38,38s16.93,38,38,38c21.07,0,38-16.93,38-38S522.01,529.72,500.94,529.72z
			 M500.94,596.31c-15.8,0-28.59-12.79-28.59-28.59c0-15.8,12.79-28.59,28.59-28.59c15.8,0,28.59,12.79,28.59,28.59
			C529.53,583.52,516.74,596.31,500.94,596.31z"/>
		<path class="st3" d="M500.94,364.56c-112.11,0-203.15,91.04-203.15,203.15s91.04,203.15,203.15,203.15S704.1,679.83,704.1,567.72
			S613.05,364.56,500.94,364.56z M500.94,720.08c-84.27,0-152.37-68.09-152.37-152.37s68.09-152.37,152.37-152.37
			s152.37,68.09,152.37,152.37S585.21,720.08,500.94,720.08z"/>
	</g>
	
		<linearGradient id="SVGID_1_" gradientUnits="userSpaceOnUse" x1="882.7964" y1="492.5947" x2="882.7964" y2="492.5947" gradientTransform="matrix(1 0 0 -1 0 1002)">
		<stop  offset="0.0776" style="stop-color:#424242"/>
		<stop  offset="0.295" style="stop-color:#A1A1A1"/>
		<stop  offset="0.6107" style="stop-color:#000000"/>
	</linearGradient>
	<path class="st4" d="M882.8,509.41"/>
	<g>
		<g>
			<path class="st5" d="M259.8,398.87c-10.18-33.48-22.69-42.76-32.83-45.28c-21.12-5.2-35.38,19.75-67.55,23.66
				c-24.27,2.78-45.42-7.89-60.05-17.72"/>
			<path class="st6" d="M238.91,448.09c-9.86-6.92-8.7-28.42-0.78-42.89c0.51-0.93,12.37-22.04,36.56-22.44
				c16.33-0.46,35.4,8.47,37.33,20.45C315.36,425.36,257.13,460.8,238.91,448.09z"/>
			<polygon class="st7" points="113.53,267.2 104.7,344.26 52.87,284.93 84.09,354.2 18.03,369.58 83.31,371.67 38.53,426.31 
				97.2,385.64 101.45,440.45 110.14,389.7 156.01,429.99 125.03,373.59 183.99,372.82 135.12,358.49 177.36,311.26 117.64,348.31 
							"/>
		</g>
		<path class="st8" d="M890.79,398.68c-14.26-5.87-60.73,21.41-120.71,62.72C642.7,549.11,454.4,700.04,384.28,730.92
			c-5.93,2.52-14.38,5.77-25.28,7.39c-61.29,8.9-114.91-47.16-121.77-54.56c-53.68-57.61-73.15-157.74-32.32-217.88
			c16.39-24.39,39.98-37.55,86.95-64.61c52.43-29.82,51.37-17.36,93.28-42.94c11.94-7.41,109.22-55.44,126.22-64.33l8.28,1.5
			c9.33,5.11,17.61,6.61,17.61,6.61l12.78-23.33c0,0,12.64-3.69,14.44-4.22c18.5-5.41,48.21-19.73,79.15-36.14
			c58.43-31,121.23-69.46,121.23-69.46L751.3,149.4c0,0,29.93-23.64,47.39-25.61c26.05,35.5,116.88,185.33,153.48,256.94
			c-6.86,11.41-45.28,32.83-45.28,32.83S896.64,401.28,890.79,398.68z"/>
	</g>
	<g>
		<g>
			<rect x="326" y="473.67" class="st0" width="27.84" height="124.15"/>
			<rect x="326" y="473.67" class="st1" width="27.84" height="124.15"/>
		</g>
		<g>
			
				<rect x="345.47" y="550.4" transform="matrix(0.7071 -0.7071 0.7071 0.7071 -279.6662 453.4586)" class="st0" width="124.15" height="27.84"/>
			
				<rect x="345.47" y="550.4" transform="matrix(0.7071 -0.7071 0.7071 0.7071 -279.6662 453.4586)" class="st2" width="124.15" height="27.84"/>
		</g>
		<g>
			<rect x="373.03" y="618.51" class="st0" width="124.15" height="27.84"/>
			<rect x="373.03" y="618.51" class="st1" width="124.15" height="27.84"/>
		</g>
		<g>
			
				<rect x="392.58" y="637.98" transform="matrix(0.7071 -0.7071 0.7071 0.7071 -375.953 492.4775)" class="st0" width="27.84" height="124.15"/>
			
				<rect x="392.58" y="637.98" transform="matrix(0.7071 -0.7071 0.7071 0.7071 -375.953 492.4775)" class="st2" width="27.84" height="124.15"/>
		</g>
		<g>
			<rect x="324.5" y="665.53" class="st0" width="27.84" height="124.15"/>
			<rect x="324.5" y="665.53" class="st1" width="27.84" height="124.15"/>
		</g>
		<g>
			
				<rect x="208.68" y="685.09" transform="matrix(0.7071 -0.7071 0.7071 0.7071 -414.9719 396.1909)" class="st0" width="124.15" height="27.84"/>
			
				<rect x="208.68" y="685.09" transform="matrix(0.7071 -0.7071 0.7071 0.7071 -414.9719 396.1909)" class="st2" width="124.15" height="27.84"/>
		</g>
		<g>
			<rect x="181.16" y="617" class="st0" width="124.15" height="27.84"/>
			<rect x="181.16" y="617" class="st1" width="124.15" height="27.84"/>
		</g>
		<g>
			
				<rect x="257.88" y="501.2" transform="matrix(0.7071 -0.7071 0.7071 0.7071 -318.6855 357.1717)" class="st0" width="27.84" height="124.15"/>
			
				<rect x="257.88" y="501.2" transform="matrix(0.7071 -0.7071 0.7071 0.7071 -318.6855 357.1717)" class="st2" width="27.84" height="124.15"/>
		</g>
		<path class="st3" d="M339.17,593.68c-21.07,0-38,16.93-38,38s16.93,38,38,38s38-16.93,38-38S360.24,593.68,339.17,593.68z
			 M339.17,660.27c-15.8,0-28.59-12.79-28.59-28.59c0-15.8,12.79-28.59,28.59-28.59c15.8,0,28.59,12.79,28.59,28.59
			C367.76,647.48,354.97,660.27,339.17,660.27z"/>
		<path class="st3" d="M339.17,428.52c-112.11,0-203.15,91.04-203.15,203.15s91.04,203.15,203.15,203.15s203.15-91.04,203.15-203.15
			S451.28,428.52,339.17,428.52z M339.17,784.04c-84.27,0-152.37-68.09-152.37-152.37s68.09-152.37,152.37-152.37
			s152.37,68.09,152.37,152.37S423.44,784.04,339.17,784.04z"/>
	</g>
</g>
</svg>
