<?xml version="1.0" encoding="utf-8"?>
<!-- Generator: Adobe Illustrator 24.3.0, SVG Export Plug-In . SVG Version: 6.00 Build 0)  -->
<svg version="1.1" id="Layer_1" xmlns="http://www.w3.org/2000/svg" xmlns:xlink="http://www.w3.org/1999/xlink" x="0px" y="0px"
	 viewBox="0 0 301.6 259.8" style="enable-background:new 0 0 301.6 259.8;" xml:space="preserve">
<style type="text/css">
	.st0{fill:none;stroke:#171717;stroke-miterlimit:10;}
	.st1{fill:#383838;}
	.st2{fill:#E5E51E;}
	.st3{fill:#895623;}
	.st4{fill:none;stroke:#66401A;stroke-miterlimit:10;}
	.st5{fill:none;stroke:#66401A;stroke-width:1;stroke-miterlimit:9.9999;}
	.st6{fill:#895623;stroke:#66401A;stroke-miterlimit:10;}
	.st7{fill:url(#SVGID_1_);stroke:#66401A;stroke-miterlimit:10;}
	.st8{fill:#231F20;stroke:#171717;stroke-miterlimit:10;}
	.st9{fill:none;stroke:#171717;stroke-width:2;stroke-miterlimit:10;}
	.st10{fill:#8C6239;stroke:#171717;stroke-width:2;stroke-miterlimit:10;}
	.st11{fill:#4F3820;stroke:#171717;stroke-width:2;stroke-miterlimit:10;}
	.st12{fill:none;stroke:#4F3820;stroke-width:11;stroke-miterlimit:10;}
	.st13{fill:url(#SVGID_2_);stroke:#000000;stroke-miterlimit:10;}
	.st14{fill:none;stroke:#000000;stroke-width:2;stroke-miterlimit:10;}
	.st15{fill:#D2B48C;stroke:#000000;stroke-width:2;stroke-miterlimit:10;}
	.st16{stroke:#000000;stroke-width:2;stroke-miterlimit:10;}
	.st17{fill:#FFFFFF;stroke:#000000;stroke-miterlimit:10;}
	.st18{fill:#F40006;stroke:#000000;stroke-miterlimit:10;}
	.st19{fill:#F0F0F0;}
	.st20{fill:#757575;stroke:#000000;stroke-miterlimit:10;}
	.st21{fill:none;stroke:#000000;stroke-width:4;stroke-linecap:round;stroke-miterlimit:10;}
	.st22{fill:none;stroke:#000000;stroke-width:4;stroke-miterlimit:10;}
	.st23{fill:none;stroke:#020202;stroke-width:2;stroke-miterlimit:10;}
	.st24{fill:none;stroke:#000000;stroke-width:2;stroke-linecap:round;stroke-miterlimit:10;}
	.st25{fill:#363636;stroke:#171717;stroke-miterlimit:10;}
	.st26{fill:#DD3311;stroke:#000000;stroke-linecap:round;stroke-miterlimit:10;}
	.st27{fill:none;stroke:#000000;stroke-miterlimit:10;}
	.st28{fill:url(#SVGID_3_);stroke:#000000;stroke-miterlimit:10;}
	.st29{fill:#583002;stroke:#000000;stroke-miterlimit:10;}
	.st30{fill:#915002;stroke:#000000;stroke-width:2;stroke-miterlimit:10;}
	.st31{fill:#F98A05;stroke:#000000;stroke-width:2;stroke-miterlimit:10;}
	.st32{fill:url(#SVGID_4_);stroke:#000000;stroke-miterlimit:10;}
	.st33{fill:none;stroke:#8C6239;stroke-width:4;stroke-linecap:round;stroke-miterlimit:10;}
	.st34{fill:#7F8C94;stroke:#000000;stroke-miterlimit:10;}
	.st35{fill:#FFB800;stroke:#000000;stroke-miterlimit:10;}
	.st36{fill:#FFB800;stroke:#000000;stroke-width:2;stroke-miterlimit:10;}
	.st37{fill:#95B6CB;stroke:#000000;stroke-miterlimit:10;}
	.st38{fill:#ADEBF6;stroke:#000000;stroke-miterlimit:10;}
	.st39{fill:#FCE2A6;stroke:#000000;stroke-miterlimit:10;}
	.st40{fill:#FCE2A6;stroke:#000000;stroke-linejoin:round;stroke-miterlimit:10;}
	.st41{fill:#FCE2A6;stroke:#000000;stroke-linejoin:bevel;stroke-miterlimit:10;}
	.st42{fill:#FFFFFF;stroke:#000000;stroke-width:3;stroke-miterlimit:10;}
	.st43{fill:url(#SVGID_5_);stroke:#000000;stroke-miterlimit:10;}
	.st44{fill:#858585;stroke:#000000;stroke-miterlimit:10;}
	.st45{fill:url(#SVGID_6_);stroke:#000000;stroke-miterlimit:10;}
	.st46{fill:url(#SVGID_7_);stroke:#000000;stroke-miterlimit:10;}
</style>
<g id="Layer_1_1_">
	<g>
		
			<image style="overflow:visible;enable-background:new    ;" width="1920" height="1080" xlink:href="../../1x/Artboard 1.png"  transform="matrix(1 0 0 1 -1044.2354 531.0588)">
		</image>
	</g>
</g>
<g id="Layer_2_1_">
	<g>
		<path class="st0" d="M-883.7,1052.6c-0.1-9.3-2.6-12.6-5-14c-5-2.9-10.5,2.4-19,1c-6.4-1.1-11-5.4-14-9"/>
		<path class="st1" d="M-892.7,1063.6c-2-2.5-0.1-7.9,3-11c0.2-0.2,4.8-4.7,11-3c4.2,1.1,8.4,4.8,8,8
			C-871.5,1063.5-889,1068.2-892.7,1063.6z"/>
		<polygon class="st2" points="-911.2,1008.1 -919.2,1027.1 -928,1008.1 -925.2,1028.1 -943.2,1027.1 -926.7,1032.5 -942.2,1043.1 
			-924.2,1037.1 -927.2,1051.4 -921.2,1039.1 -912.5,1052.8 -916.2,1036.1 -901.1,1040.3 -912.5,1033 -898.2,1024.1 -916.2,1029.1 
					"/>
	</g>
	<g>
		<g>
			<rect x="-827.7" y="1073.1" class="st3" width="7.4" height="33"/>
			<rect x="-827.7" y="1073.1" class="st4" width="7.4" height="33"/>
		</g>
		<g>
			
				<rect x="-822.6" y="1093.5" transform="matrix(0.7071 -0.7071 0.7071 0.7071 -1011.8959 -248.6227)" class="st3" width="33" height="7.4"/>
			
				<rect x="-822.6" y="1093.5" transform="matrix(0.7071 -0.7071 0.7071 0.7071 -1011.8959 -248.6227)" class="st5" width="33" height="7.4"/>
		</g>
		<g>
			<rect x="-815.2" y="1111.6" class="st3" width="33" height="7.4"/>
			<rect x="-815.2" y="1111.6" class="st4" width="33" height="7.4"/>
		</g>
		<g>
			
				<rect x="-810" y="1116.7" transform="matrix(0.7071 -0.7071 0.7071 0.7071 -1037.4895 -238.2512)" class="st3" width="7.4" height="33"/>
			
				<rect x="-810" y="1116.7" transform="matrix(0.7071 -0.7071 0.7071 0.7071 -1037.4895 -238.2512)" class="st5" width="7.4" height="33"/>
		</g>
		<g>
			<rect x="-828.1" y="1124.1" class="st3" width="7.4" height="33"/>
			<rect x="-828.1" y="1124.1" class="st4" width="7.4" height="33"/>
		</g>
		<g>
			
				<rect x="-858.9" y="1129.3" transform="matrix(0.7071 -0.7071 0.7071 0.7071 -1047.8611 -263.8448)" class="st3" width="33" height="7.4"/>
			
				<rect x="-858.9" y="1129.3" transform="matrix(0.7071 -0.7071 0.7071 0.7071 -1047.8611 -263.8448)" class="st5" width="33" height="7.4"/>
		</g>
		<g>
			<rect x="-866.2" y="1111.2" class="st3" width="33" height="7.4"/>
			<rect x="-866.2" y="1111.2" class="st4" width="33" height="7.4"/>
		</g>
		<g>
			
				<rect x="-845.8" y="1080.4" transform="matrix(0.7071 -0.7071 0.7071 0.7071 -1022.2674 -274.2164)" class="st3" width="7.4" height="33"/>
			
				<rect x="-845.8" y="1080.4" transform="matrix(0.7071 -0.7071 0.7071 0.7071 -1022.2674 -274.2164)" class="st5" width="7.4" height="33"/>
		</g>
		<path class="st6" d="M-824.2,1105c-5.6,0-10.1,4.5-10.1,10.1s4.5,10.1,10.1,10.1c5.6,0,10.1-4.5,10.1-10.1S-818.6,1105-824.2,1105
			z M-824.2,1122.7c-4.2,0-7.6-3.4-7.6-7.6s3.4-7.6,7.6-7.6s7.6,3.4,7.6,7.6S-820,1122.7-824.2,1122.7z"/>
		<path class="st6" d="M-824.2,1061.1c-29.8,0-54,24.2-54,54c0,29.8,24.2,54,54,54s54-24.2,54-54
			C-770.2,1085.3-794.4,1061.1-824.2,1061.1z M-824.2,1155.6c-22.4,0-40.5-18.1-40.5-40.5s18.1-40.5,40.5-40.5
			c22.4,0,40.5,18.1,40.5,40.5S-801.8,1155.6-824.2,1155.6z"/>
	</g>
	
		<linearGradient id="SVGID_1_" gradientUnits="userSpaceOnUse" x1="-722.7353" y1="1042.5588" x2="-722.7353" y2="1042.5588" gradientTransform="matrix(1 0 0 -1 0 2142.1177)">
		<stop  offset="7.759906e-02" style="stop-color:#424242"/>
		<stop  offset="0.295" style="stop-color:#A1A1A1"/>
		<stop  offset="0.6107" style="stop-color:#000000"/>
	</linearGradient>
	<path class="st7" d="M-722.7,1099.6"/>
	<path class="st8" d="M-722.7,1099.6c-10-8-124.3,43.1-154,47c-1.7,0.2-4.1,0.4-7,0c-16.3-2.3-25.8-20.6-27-23
		c-9.4-18.7-6.9-45.7,8-58c6-5,13-6.6,27-10c15.6-3.7,14.4-0.6,27-4c3.6-1,32-6,37-7l2,1c2,2,4,3,4,3l5-5c0,0,3.5,0,4,0
		c14.8,0,59-12,59-12l-2-6c0,0,9.4-3.8,14-3c4,11,16,56,20,77c-2.6,2.4-14,5-14,5S-721.4,1100.7-722.7,1099.6z"/>
	<g>
		<g>
			<rect x="-870.7" y="1090.1" class="st3" width="7.4" height="33"/>
			<rect x="-870.7" y="1090.1" class="st4" width="7.4" height="33"/>
		</g>
		<g>
			
				<rect x="-865.6" y="1110.5" transform="matrix(0.7071 -0.7071 0.7071 0.7071 -1036.5107 -274.0491)" class="st3" width="33" height="7.4"/>
			
				<rect x="-865.6" y="1110.5" transform="matrix(0.7071 -0.7071 0.7071 0.7071 -1036.5107 -274.0491)" class="st5" width="33" height="7.4"/>
		</g>
		<g>
			<rect x="-858.2" y="1128.6" class="st3" width="33" height="7.4"/>
			<rect x="-858.2" y="1128.6" class="st4" width="33" height="7.4"/>
		</g>
		<g>
			
				<rect x="-853" y="1133.7" transform="matrix(0.7071 -0.7071 0.7071 0.7071 -1062.1044 -263.6776)" class="st3" width="7.4" height="33"/>
			
				<rect x="-853" y="1133.7" transform="matrix(0.7071 -0.7071 0.7071 0.7071 -1062.1044 -263.6776)" class="st5" width="7.4" height="33"/>
		</g>
		<g>
			<rect x="-871.1" y="1141.1" class="st3" width="7.4" height="33"/>
			<rect x="-871.1" y="1141.1" class="st4" width="7.4" height="33"/>
		</g>
		<g>
			
				<rect x="-901.9" y="1146.3" transform="matrix(0.7071 -0.7071 0.7071 0.7071 -1072.476 -289.2712)" class="st3" width="33" height="7.4"/>
			
				<rect x="-901.9" y="1146.3" transform="matrix(0.7071 -0.7071 0.7071 0.7071 -1072.476 -289.2712)" class="st5" width="33" height="7.4"/>
		</g>
		<g>
			<rect x="-909.2" y="1128.2" class="st3" width="33" height="7.4"/>
			<rect x="-909.2" y="1128.2" class="st4" width="33" height="7.4"/>
		</g>
		<g>
			
				<rect x="-888.8" y="1097.4" transform="matrix(0.7071 -0.7071 0.7071 0.7071 -1046.8823 -299.6429)" class="st3" width="7.4" height="33"/>
			
				<rect x="-888.8" y="1097.4" transform="matrix(0.7071 -0.7071 0.7071 0.7071 -1046.8823 -299.6429)" class="st5" width="7.4" height="33"/>
		</g>
		<path class="st6" d="M-867.2,1122c-5.6,0-10.1,4.5-10.1,10.1s4.5,10.1,10.1,10.1c5.6,0,10.1-4.5,10.1-10.1S-861.6,1122-867.2,1122
			z M-867.2,1139.7c-4.2,0-7.6-3.4-7.6-7.6s3.4-7.6,7.6-7.6s7.6,3.4,7.6,7.6S-863,1139.7-867.2,1139.7z"/>
		<path class="st6" d="M-867.2,1078.1c-29.8,0-54,24.2-54,54c0,29.8,24.2,54,54,54s54-24.2,54-54
			C-813.2,1102.3-837.4,1078.1-867.2,1078.1z M-867.2,1172.6c-22.4,0-40.5-18.1-40.5-40.5s18.1-40.5,40.5-40.5
			c22.4,0,40.5,18.1,40.5,40.5S-844.8,1172.6-867.2,1172.6z"/>
	</g>
</g>
<g id="Layer_3">
	<g>
		<path class="st9" d="M473.8,875.1"/>
		<path class="st10" d="M526.8,739.1c0,0,20,52-2,85h-103c-20-38,2-85,2-85"/>
		<ellipse class="st11" cx="475.3" cy="739.1" rx="51.5" ry="9"/>
		<path class="st12" d="M414.8,773.1c30.1,7.4,71.3,12.4,119.5,1.2"/>
		
			<linearGradient id="SVGID_2_" gradientUnits="userSpaceOnUse" x1="461.6983" y1="1394.6238" x2="474.1087" y2="1285.6083" gradientTransform="matrix(1.2918 0.1071 0.1039 -1.2542 -272.0544 2476.4958)">
			<stop  offset="0.3137" style="stop-color:#056C94"/>
			<stop  offset="0.4038" style="stop-color:#0F7194;stop-opacity:0.7676"/>
			<stop  offset="0.5546" style="stop-color:#297E93;stop-opacity:0.3785"/>
			<stop  offset="0.7012" style="stop-color:#488D93;stop-opacity:0"/>
		</linearGradient>
		<path class="st13" d="M401.1,842.8c0,0,37.7-62.7-38.3-79.7c64-13,106.6,56.3,106.6,56.3s47.4-31.3-2.4-49.5
			c61.8-16.8,110.7,76.2,110.7,76.2"/>
		<line class="st14" x1="477.3" y1="748.1" x2="474.6" y2="701.3"/>
		<circle class="st15" cx="473.8" cy="672.1" r="33"/>
		<path class="st16" d="M459.8,666.1l15.1,1.9c0,0-1.9,8.1-9,6.1S459.8,666.1,459.8,666.1z"/>
		<polyline class="st14" points="446,654.4 459.8,666.1 506.8,672.1 		"/>
		<ellipse class="st17" cx="450.3" cy="668.6" rx="4" ry="6"/>
		<path class="st17" d="M448.3,685.6c0,0,16.1-6,19,0c3,6-11,9-11,9"/>
		<path class="st18" d="M508.1,650.8c0,0,5.2-24.2,21.2-19.2s16.7-0.7,16.7-0.7s-9.7,10.7-18.7,9.7s-10,8-10,8s20.5-2.2,22-6
			c2-5,0,9-3,11c-1.9,1.2-21,6-27,3S508.1,650.8,508.1,650.8z"/>
		<path class="st18" d="M504,653.4c0,0,2.3-6.8,5.3-2.8s3,9,3,9s-5,1.6-6.5-0.7"/>
		<path class="st18" d="M452.3,646.6c0,0,54,26,54.9,20.5C509.8,652.3,490.3,618,452.3,646.6z"/>
		<g>
			
				<rect x="405.5" y="701.2" transform="matrix(0.4076 -0.9132 0.9132 0.4076 -408.1035 795.3914)" class="st19" width="7" height="22"/>
			<path class="st20" d="M395.7,711.6c0,0-59.9-26.5-49.9-89.5c6,13,6,13,18,20c1,18,2,37,34,60c-2,9-2,9-2,9"/>
			<path class="st21" d="M401.3,698.6c-0.9,1.5-1.7,2.8-2.3,4.2c-8.2,18.3,0.6,20.7,4.8,22.3c5,2,11,3,18.5-15.5"/>
			<line class="st22" x1="421.3" y1="712.8" x2="398.6" y2="703.6"/>
			<line class="st22" x1="418.3" y1="720.8" x2="395.6" y2="711.6"/>
			<circle class="st23" cx="423.3" cy="718.6" r="3.5"/>
		</g>
		<path class="st24" d="M475.8,722.1c0,0-27.1-7-37.5-18.5s-29.2,8.7-29.2,8.7"/>
	</g>
	<g>
		<g>
			<path class="st25" d="M-107.4,1204.2c-5.1,12.2,0.7,26.3,12.9,31.4c12.2,5.1,26.3-0.7,31.4-12.9c4-9.7,1.3-20.5-6.1-27.1
				c-1.9-1.7-4.2-3.2-6.8-4.3C-88.3,1186.2-102.3,1192-107.4,1204.2z"/>
			<path class="st0" d="M-73.6,1192.4c0,0,10.8-30.2,19.7-17.8s-14,11.3-17.1-1.3s20.4-16.9,20.4-16.9"/>
		</g>
		<path class="st9" d="M-107.2,1355.1"/>
		<g>
			<path class="st26" d="M-121.3,1233l-15.4,6.7l-30.2-58.6c1.7-0.7,3.4-1.5,5.1-2.2c0.9-0.4,1.9-0.8,2.8-1.2c2.5-1.1,5-2.2,7.5-3.2
				C-141.5,1193.9-131.4,1213.4-121.3,1233z"/>
			<path class="st26" d="M-154.3,1153.3"/>
			<path class="st26" d="M-159.6,1169.2"/>
			<path class="st26" d="M-162.8,1168.1"/>
			<path class="st27" d="M-159,1177.6c0,0-15.9-1.5-8.1-12.5s0.5-12,0.5-12"/>
		</g>
		<g>
			<path class="st26" d="M-130.9,1239.3l-16.8-2.7l12.3-63.8c1.8,0.3,3.7,0.6,5.5,0.9c1,0.2,2.1,0.3,3.1,0.5
				c2.7,0.4,5.4,0.9,8.1,1.3C-122.7,1196.7-126.8,1218-130.9,1239.3z"/>
			<path class="st26" d="M-107.6,1156.8"/>
			<path class="st26" d="M-122,1167"/>
			<path class="st26" d="M-123.9,1164.4"/>
			<path class="st27" d="M-126.8,1174.1c0,0-12-9.7,1.3-14.5c13.3-4.8,8-9.5,8-9.5"/>
		</g>
		<g>
			<path class="st26" d="M-125.5,1243.1l-15.2-7.1l31.9-57.8c1.7,0.8,3.3,1.6,5,2.3c0.9,0.4,1.9,0.9,2.8,1.3
				c2.5,1.1,4.9,2.3,7.4,3.4C-104.3,1204.5-114.9,1223.8-125.5,1243.1z"/>
			<path class="st26" d="M-77.2,1170.3"/>
			<path class="st26" d="M-94.1,1176.2"/>
			<path class="st26" d="M-95.2,1173.2"/>
			<path class="st27" d="M-101,1181.8c0,0-8.4-12.5,5.8-13.5c14.2-1.1,10.7-7,10.7-7"/>
		</g>
		<path class="st10" d="M-54.2,1219.1c0,0,20,52-2,85h-103c-20-38-3-66,2-85C-121.2,1206.1-91.2,1207.1-54.2,1219.1z"/>
		<path class="st12" d="M-166.2,1253.1c30.1,7.4,71.3,12.4,119.5,1.2"/>
		
			<linearGradient id="SVGID_3_" gradientUnits="userSpaceOnUse" x1="45.5751" y1="976.403" x2="57.9855" y2="867.3876" gradientTransform="matrix(1.2918 0.1071 0.1039 -1.2542 -272.0544 2476.4958)">
			<stop  offset="0.3137" style="stop-color:#056C94"/>
			<stop  offset="0.4038" style="stop-color:#0F7194;stop-opacity:0.7676"/>
			<stop  offset="0.5546" style="stop-color:#297E93;stop-opacity:0.3785"/>
			<stop  offset="0.7012" style="stop-color:#488D93;stop-opacity:0"/>
		</linearGradient>
		<path class="st28" d="M-179.9,1322.8c0,0,37.7-62.7-38.3-79.7c64-13,106.6,56.3,106.6,56.3s47.4-31.3-2.4-49.5
			c61.8-16.8,110.7,76.2,110.7,76.2"/>
	</g>
	<g>
		<path class="st29" d="M482.3,1279.6L482.3,1279.6c-8.8,0-16-7.2-16-16v-267c0-8.8,7.2-16,16-16l0,0c8.8,0,16,7.2,16,16v267
			C498.3,1272.4,491.1,1279.6,482.3,1279.6z"/>
		<path class="st29" d="M280.8,1171.1c0,0-93.5-19.5-119-41c3,41,117,62,117,62L280.8,1171.1z"/>
		<path class="st30" d="M268.8,1192.1l3-30c0,0,80,25,111,19c5,71,60,84,99,87c87,6,89.9-89.5,89.9-89.5s98.1,26.5,122.7,1.1
			c0.5,61.5-7.6,61.5-7.6,61.5h-25.1c0,0-5.6,107.9-27.7,125.9s-307.9,0-307.9,0s-78.3-53-66.3-126
			C264.8,1209.1,268.8,1192.1,268.8,1192.1"/>
		<path class="st24" d="M694.3,1179.6v-16.8c0,0-15.6,0.2-48.2-0.8c-1.2,0-2.3,0-3.3,0c-28.9,0.9-23.7,25.9-23.7,25.9"/>
		<line class="st14" x1="641.6" y1="1190.3" x2="642.8" y2="1162.1"/>
		<line class="st14" x1="629.6" y1="1190.1" x2="630.7" y2="1165.1"/>
		<line class="st14" x1="653.6" y1="1190.3" x2="654.8" y2="1162.1"/>
		<line class="st14" x1="665.6" y1="1190.3" x2="666.8" y2="1162.1"/>
		<line class="st14" x1="677" y1="1188.1" x2="678.8" y2="1162.1"/>
		<path class="st31" d="M263.8,1153.1c0,0,2,22.5,0,28.8c-2,6.3,104,17.2,104,17.2s3,71,95,79s104-37,104-37s12-33,16-46
			c14,2,86,15,111,5l0.6-23.9c0,0-50.6,17.9-126.6-8.1c0,0-10,67-35,76s-109,37-142-62c-2-5-2-7-4.2-11.8
			C357.8,1172.1,263.8,1153.1,263.8,1153.1z"/>
		<path class="st27" d="M262.4,1225.2c0,0,59.4,20.9,95.4,17.9"/>
		<path class="st27" d="M267.4,1297.2c0,0,35.9,28.4,176.9,35.4"/>
		<circle class="st29" cx="289.3" cy="1209.6" r="13.5"/>
		<circle class="st29" cx="333.8" cy="1216.1" r="12.5"/>
		<circle class="st29" cx="597.8" cy="1222.1" r="12.5"/>
		<circle class="st29" cx="634.8" cy="1223.1" r="13.5"/>
		<path class="st27" d="M656.6,1294.2c0,0-67.3,18.4-136.3,6.4"/>
		
			<linearGradient id="SVGID_4_" gradientUnits="userSpaceOnUse" x1="456.2147" y1="776.9412" x2="456.2147" y2="726.4036" gradientTransform="matrix(1 0 0 -1 0 2142.1177)">
			<stop  offset="0.1944" style="stop-color:#056C94"/>
			<stop  offset="0.2639" style="stop-color:#1A7694;stop-opacity:0.8008"/>
			<stop  offset="0.3703" style="stop-color:#338393;stop-opacity:0.4962"/>
			<stop  offset="0.4667" style="stop-color:#438A93;stop-opacity:0.2202"/>
			<stop  offset="0.5436" style="stop-color:#488D93;stop-opacity:0"/>
		</linearGradient>
		<path class="st32" d="M233.8,1384.1c0,0,41-14,62-31c12,17,42.2,11,42.2,11s17.8-12,26.8-25c22,20,29,32,36,29s32-16,37-23
			c17,15,19,22,28,23s29-9,29-9s10,10,20,10s44-17,47-23c14,9,15.3,20.3,26.6,21.6c11.4,1.4,30.3-14.8,30.3-14.8s5,9.2,14,11.2
			s46,23,46,23"/>
		<g>
			<line class="st33" x1="420.8" y1="1062.1" x2="555.8" y2="1062.1"/>
			<path class="st16" d="M420,1063.7c0,0-35.2,43.4-10.2,109.4h142c0,0-45-68.9,0-109.4C419.8,1064.1,420,1063.7,420,1063.7z"/>
		</g>
		<g>
			<line class="st33" x1="452" y1="980.5" x2="520.8" y2="980.5"/>
			<path class="st16" d="M451.6,981.3c0,0-18,22.1-5.2,55.8h72.4c0,0-22.9-35.1,0-55.8C451.5,981.5,451.6,981.3,451.6,981.3z"/>
		</g>
		<polyline class="st14" points="694.4,1176.2 482.8,985.1 161.8,1130.1 		"/>
	</g>
	<g>
		<g>
			<polyline class="st34" points="216.3,921 282.1,921 285.1,921 285.1,927.8 216.3,927.8 			"/>
			<path class="st34" d="M286.1,921c0,0,21.4-33.9-1.4-33.9c-12.9,0-6.1,22.6-4.7,33.9"/>
			<path class="st35" d="M286.9,929.5h-7c-0.9,0-1.6-0.7-1.6-1.6v-7c0-0.9,0.7-1.6,1.6-1.6h7c0.9,0,1.6,0.7,1.6,1.6v7
				C288.5,928.8,287.8,929.5,286.9,929.5z"/>
		</g>
		<path class="st36" d="M197.2,888.9c0,0,33.2-49.6,73.6-51.3c13.5,10.1,3.4,47.2,0,64.1c-8.2,11-26.4,7.9-54.5,7.3"/>
		<path class="st36" d="M216.3,900.8v27h-379.5c0,0,4-81.7,98.6-86c50.9-2.3,152.7,9.9,202.7,21.9
			C194.2,877.2,216.3,900.8,216.3,900.8z"/>
		<g>
			<path class="st37" d="M-59.8,927.1c0-0.2,0-0.4,0-0.6c0-22-17.9-39.9-39.9-39.9s-39.9,17.9-39.9,39.9c0,0.2,0,0.4,0,0.6H-59.8z"
				/>
			<path class="st38" d="M-73.1,927.4c0-0.1,0-0.2,0-0.4c0-14.7-11.9-26.6-26.6-26.6s-26.6,11.9-26.6,26.6c0,0.1,0,0.2,0,0.4H-73.1z
				"/>
		</g>
		<g>
			<path class="st37" d="M29.9,927.1c0-0.2,0-0.4,0-0.6c0-22-17.9-39.9-39.9-39.9s-39.9,17.9-39.9,39.9c0,0.2,0,0.4,0,0.6H29.9z"/>
			<path class="st38" d="M16.6,927.4c0-0.1,0-0.2,0-0.4c0-14.7-11.9-26.6-26.6-26.6s-26.6,11.9-26.6,26.6c0,0.1,0,0.2,0,0.4H16.6z"
				/>
		</g>
		<g>
			<path class="st37" d="M119.5,927.1c0-0.2,0-0.4,0-0.6c0-22-17.9-39.9-39.9-39.9s-39.9,17.9-39.9,39.9c0,0.2,0,0.4,0,0.6H119.5z"
				/>
			<path class="st38" d="M106.2,927.4c0-0.1,0-0.2,0-0.4c0-14.7-11.9-26.6-26.6-26.6S53,912.3,53,927c0,0.1,0,0.2,0,0.4H106.2z"/>
		</g>
		<line class="st14" x1="146.7" y1="865.4" x2="146.7" y2="927.8"/>
		<circle class="st27" cx="135.1" cy="877.2" r="3.4"/>
		<circle class="st27" cx="135.1" cy="897.4" r="3.4"/>
		<circle class="st27" cx="135.1" cy="917.7" r="3.4"/>
		<circle class="st27" cx="155.4" cy="889" r="3.4"/>
		<circle class="st27" cx="155.4" cy="909.2" r="3.4"/>
	</g>
	<g>
		<g>
			<polygon class="st39" points="49.3,817.5 113.8,822.1 93.1,838.2 113.8,858.9 49.3,855.5 			"/>
			<polygon class="st40" points="49.3,839.1 71.2,839.1 49.3,817.5 			"/>
			<polygon class="st39" points="-93.4,817.5 -157.9,822.1 -137.2,838.2 -157.9,858.9 -93.4,855.5 			"/>
			<polygon class="st40" points="-93.4,839.1 -115.3,839.1 -93.4,817.5 			"/>
			<rect x="-115.3" y="839.1" class="st41" width="186.5" height="44"/>
		</g>
		<g>
			<polygon class="st39" points="551.3,744.5 615.8,749.1 595.1,765.2 615.8,785.9 551.3,782.5 			"/>
			<polygon class="st40" points="551.3,766.1 573.2,766.1 551.3,744.5 			"/>
			<polygon class="st39" points="408.6,744.5 344.1,749.1 364.8,765.2 344.1,785.9 408.6,782.5 			"/>
			<polygon class="st40" points="408.6,766.1 386.7,766.1 408.6,744.5 			"/>
			<rect x="386.7" y="766.1" class="st41" width="186.5" height="44"/>
		</g>
		<g>
			<polygon class="st39" points="545.3,1271.5 609.8,1276.1 589.1,1292.2 609.8,1312.9 545.3,1309.5 			"/>
			<polygon class="st40" points="545.3,1293.1 567.2,1293.1 545.3,1271.5 			"/>
			<polygon class="st39" points="402.6,1271.5 338.1,1276.1 358.8,1292.2 338.1,1312.9 402.6,1309.5 			"/>
			<polygon class="st40" points="402.6,1293.1 380.7,1293.1 402.6,1271.5 			"/>
			<rect x="380.7" y="1293.1" class="st41" width="186.5" height="44"/>
		</g>
		<g>
			<polygon class="st39" points="-32.7,1224.5 31.8,1229.1 11.1,1245.2 31.8,1265.9 -32.7,1262.5 			"/>
			<polygon class="st40" points="-32.7,1246.1 -10.8,1246.1 -32.7,1224.5 			"/>
			<polygon class="st39" points="-175.4,1224.5 -239.9,1229.1 -219.2,1245.2 -239.9,1265.9 -175.4,1262.5 			"/>
			<polygon class="st40" points="-175.4,1246.1 -197.3,1246.1 -175.4,1224.5 			"/>
			<rect x="-197.3" y="1246.1" class="st41" width="186.5" height="44"/>
		</g>
	</g>
</g>
<g>
	<rect x="-386.2" y="1494.5" class="st42" width="600.8" height="65.9"/>
	<g>
		
			<radialGradient id="SVGID_5_" cx="-383.3181" cy="1510.8297" r="58.9448" fx="-362.2243" fy="1470.254" gradientTransform="matrix(1 0 0 0.9311 0 104.1557)" gradientUnits="userSpaceOnUse">
			<stop  offset="0.1559" style="stop-color:#FFFFFF"/>
			<stop  offset="0.1622" style="stop-color:#FDFDFD"/>
			<stop  offset="0.2924" style="stop-color:#D3D3D3"/>
			<stop  offset="0.4252" style="stop-color:#B0B0B0"/>
			<stop  offset="0.5593" style="stop-color:#959595"/>
			<stop  offset="0.6952" style="stop-color:#828282"/>
			<stop  offset="0.834" style="stop-color:#777777"/>
			<stop  offset="0.9801" style="stop-color:#737373"/>
		</radialGradient>
		<path class="st43" d="M-397.3,1453.8c-2.2,0.7-23.4,5.6-35.3,26.6c-4.1,7.2-10.3,20.3-6.6,30.3c1.9,5.1,5.1,6.5,11.2,18.6
			c2,4,3.1,6.2,4.3,9.7c3.2,9.2,1.6,11.7,4.6,15.1c4.3,4.9,12.2,5.3,14,5.4c5.1,0.2,6.6-1.4,9.6-0.2c4.5,1.9,6.8,8.1,9.7,11.5
			c9.5,1.9,31-6.7,41.5-10.6c2.8-6.1-0.7-9.7,3.3-16.2c4.7-7.5,11.7-6.3,14.1-12.6c2-5.2-2.2-8-4.1-18c-2.1-11,1.7-14.2,1-23.7
			c-1.1-15.1-12.2-25.8-13.9-27.4C-363.4,1443.7-394,1452.7-397.3,1453.8z"/>
		<path class="st17" d="M-409.7,1514.7c8.6-2.8,16.2,3.3,20.7,4.7c0.8,0.2,2.4,0.5,3.3,1.8c1.8,2.7-0.8,7.9-3.6,10.7
			c-0.4,0.4-6.1,6.1-13.9,4.2c-1.6-0.4-6.6-1.9-9-6.9C-414.3,1524.6-415,1516.4-409.7,1514.7z"/>
		<path class="st17" d="M-354.3,1497.8c-8.7,2.5-11.6,11.8-14.6,15.5c-0.5,0.6-1.8,1.7-1.8,3.3c0,3.2,5.1,6.1,9,6.9
			c0.5,0.1,8.5,1.6,13.9-4.2c1.1-1.2,4.4-5.3,3.6-10.7C-344.9,1503.4-348.9,1496.2-354.3,1497.8z"/>
		<path class="st17" d="M-369,1551.2c-3.7,1.1-5.6,4.7-8.4,4c0,0-0.8-0.2-1.6-0.9c-4.5-3.7-4.8-26.1,2.4-28.3
			c7.6-2.3,21.4,19.2,18.2,23.4C-359.9,1551.2-365.2,1550-369,1551.2z"/>
		<path class="st44" d="M-396.1,1570.5c0,0,3.4-2.4,7.3,6c4,8.4,5.5,13.5,13.8,13.7c8.3,0.2,14.6-1.7,19.7-3.3c5-1.5,19-7.9,19.1-12
			c0.1-2.6-2.8-22.6,2.3-24.1c0,0,8,30.6,7.1,32.3c-0.9,1.6-19.7,18.5-25.7,20.3s-28.5,0.4-31-3C-386,1597-393,1578.5-396.1,1570.5z
			"/>
	</g>
	<g>
		
			<radialGradient id="SVGID_6_" cx="196.2113" cy="1510.8297" r="59.6477" fx="190.3942" fy="1464.9204" gradientTransform="matrix(0.7328 0.6804 -0.6335 0.6823 1020.876 350.9413)" gradientUnits="userSpaceOnUse">
			<stop  offset="0.1387" style="stop-color:#FFFFFF"/>
			<stop  offset="0.1451" style="stop-color:#FDFDFD"/>
			<stop  offset="0.278" style="stop-color:#D3D3D3"/>
			<stop  offset="0.4136" style="stop-color:#B0B0B0"/>
			<stop  offset="0.5505" style="stop-color:#959595"/>
			<stop  offset="0.6893" style="stop-color:#828282"/>
			<stop  offset="0.8309" style="stop-color:#777777"/>
			<stop  offset="0.9801" style="stop-color:#737373"/>
		</radialGradient>
		<path class="st45" d="M236.1,1463.9c-2.1-1-20.9-11.8-44-4.5c-7.9,2.5-21.4,7.8-25.4,17.7c-2,5-0.7,8.3-4.5,21.3
			c-1.2,4.3-1.9,6.7-3.4,10.1c-3.9,8.9-6.8,9.6-6.9,14.2c-0.2,6.6,5.4,12.2,6.6,13.5c3.6,3.6,5.8,3.4,7.1,6.4c2,4.4-0.6,10.5-0.7,15
			c5.7,7.9,27.3,16.2,37.7,20.5c6.2-2.5,6.1-7.6,13.4-9.6c8.5-2.3,12.9,3.4,18.9,0.4c5-2.5,3.8-7.4,9.2-16c6-9.5,11-9.3,16.9-16.7
			c9.5-11.8,8.7-27.2,8.5-29.6C267.8,1479.6,239.2,1465.4,236.1,1463.9z"/>
		<path class="st17" d="M185.5,1500.1c8.2,3.8,9.6,13.4,12,17.5c0.4,0.7,1.5,2,1.2,3.5c-0.5,3.2-5.9,5.2-10,5.4
			c-0.5,0-8.6,0.3-13-6.3c-0.9-1.4-3.6-5.9-1.9-11.2C175.4,1504.3,180.5,1497.8,185.5,1500.1z"/>
		<path class="st17" d="M237.6,1525.4c-8.1-4.1-16.5,0.8-21.2,1.4c-0.8,0.1-2.5,0.1-3.5,1.2c-2.2,2.4-0.4,7.9,1.9,11.2
			c0.3,0.4,5.1,7,13,6.3c1.6-0.1,6.9-0.9,10-5.4C240.7,1536,242.6,1527.9,237.6,1525.4z"/>
		<path class="st17" d="M190.6,1554.6c-3.4-1.7-7.3-0.4-8.9-2.8c0,0-0.5-0.7-0.6-1.8c-0.8-5.8,14.3-22.4,21-19.1
			c7.1,3.5,2.7,28.6-2.6,29.5C197.2,1560.8,194.1,1556.3,190.6,1554.6z"/>
		<path class="st44" d="M157.5,1550.3c0,0,4.1,0.5,1.3,9.4c-2.8,8.9-5.1,13.6,0.8,19.4c6,5.8,11.9,8.7,16.6,11s19.2,7.1,22.1,4.2
			c1.8-1.9,13.3-18.4,18.1-16.1c0,0-15,27.9-16.8,28.5c-1.8,0.6-27,0.2-32.7-2.6c-5.7-2.8-21.2-19.1-20.7-23.3
			C146.9,1576.6,154.4,1558.2,157.5,1550.3z"/>
	</g>
</g>
<g>
	<text transform="matrix(1 0 0 1 -39.5676 869.7738)" style="font-family:'MyriadPro-Regular'; font-size:26px;">5*8</text>
	<text transform="matrix(1 0 0 1 454.2642 796.0213)" style="font-family:'MyriadPro-Regular'; font-size:26px;">13+4</text>
	<text transform="matrix(1 0 0 1 445.4337 1323.1411)" style="font-family:'MyriadPro-Regular'; font-size:26px;">20-54</text>
	<text transform="matrix(1 0 0 1 -128.8031 1275.1576)" style="font-family:'MyriadPro-Regular'; font-size:26px;">40/8</text>
	<text transform="matrix(1 0 0 1 -103.5025 1541.083)" style="font-family:'MyriadPro-Regular'; font-size:52px;">5</text>
</g>
<g>
	<g>
		<g>
			<path class="st25" d="M154.2,81.5c-5.1,12.2,0.7,26.3,12.9,31.4s26.3-0.7,31.4-12.9c4-9.7,1.3-20.5-6.1-27.1
				c-1.9-1.7-4.2-3.2-6.8-4.3C173.3,63.5,159.3,69.3,154.2,81.5z"/>
			<path class="st0" d="M188,69.7c0,0,10.8-30.2,19.7-17.8s-14,11.3-17.1-1.3S211,33.7,211,33.7"/>
		</g>
		<path class="st9" d="M154.4,232.4"/>
		<g>
			<path class="st26" d="M140.3,110.3l-15.4,6.7L94.7,58.4c1.7-0.7,3.4-1.5,5.1-2.2c0.9-0.4,1.9-0.8,2.8-1.2c2.5-1.1,5-2.2,7.5-3.2
				C120.1,71.2,130.2,90.7,140.3,110.3z"/>
			<path class="st26" d="M107.3,30.6"/>
			<path class="st26" d="M102,46.5"/>
			<path class="st26" d="M98.8,45.4"/>
			<path class="st27" d="M102.6,54.9c0,0-15.9-1.5-8.1-12.5s0.5-12,0.5-12"/>
		</g>
		<g>
			<path class="st26" d="M130.7,116.6l-16.8-2.7l12.3-63.8c1.8,0.3,3.7,0.6,5.5,0.9c1,0.2,2.1,0.3,3.1,0.5c2.7,0.4,5.4,0.9,8.1,1.3
				C138.9,74,134.8,95.3,130.7,116.6z"/>
			<path class="st26" d="M154,34.1"/>
			<path class="st26" d="M139.6,44.3"/>
			<path class="st26" d="M137.7,41.7"/>
			<path class="st27" d="M134.8,51.4c0,0-12-9.7,1.3-14.5s8-9.5,8-9.5"/>
		</g>
		<g>
			<path class="st26" d="M136.1,120.4l-15.2-7.1l31.9-57.8c1.7,0.8,3.3,1.6,5,2.3c0.9,0.4,1.9,0.9,2.8,1.3c2.5,1.1,4.9,2.3,7.4,3.4
				C157.3,81.8,146.7,101.1,136.1,120.4z"/>
			<path class="st26" d="M184.4,47.6"/>
			<path class="st26" d="M167.5,53.5"/>
			<path class="st26" d="M166.4,50.5"/>
			<path class="st27" d="M160.6,59.1c0,0-8.4-12.5,5.8-13.5c14.2-1.1,10.7-7,10.7-7"/>
		</g>
		<path class="st10" d="M207.4,96.4c0,0,20,52-2,85h-103c-20-38-3-66,2-85C140.4,83.4,170.4,84.4,207.4,96.4z"/>
		<path class="st12" d="M95.4,130.4c30.1,7.4,71.3,12.4,119.5,1.2"/>
		
			<linearGradient id="SVGID_7_" gradientUnits="userSpaceOnUse" x1="175.2038" y1="1882.6058" x2="187.6142" y2="1773.5905" gradientTransform="matrix(1.2918 0.1071 0.1039 -1.2542 -272.0544 2476.4958)">
			<stop  offset="0.3137" style="stop-color:#056C94"/>
			<stop  offset="0.4038" style="stop-color:#0F7194;stop-opacity:0.7676"/>
			<stop  offset="0.5546" style="stop-color:#297E93;stop-opacity:0.3785"/>
			<stop  offset="0.7012" style="stop-color:#488D93;stop-opacity:0"/>
		</linearGradient>
		<path class="st46" d="M81.7,200.1c0,0,37.7-62.7-38.3-79.7c64-13,106.6,56.3,106.6,56.3s47.4-31.3-2.4-49.5
			c61.8-16.8,110.7,76.2,110.7,76.2"/>
	</g>
</g>
</svg>
