<?xml version="1.0" encoding="utf-8"?>
<!-- Generator: Adobe Illustrator 24.3.0, SVG Export Plug-In . SVG Version: 6.00 Build 0)  -->
<svg version="1.1" id="Layer_1" xmlns="http://www.w3.org/2000/svg" xmlns:xlink="http://www.w3.org/1999/xlink" x="0px" y="0px"
	 viewBox="0 0 1000 1000" style="enable-background:new 0 0 1000 1000;" xml:space="preserve">
<style type="text/css">
	.st0{fill:none;stroke:#171717;stroke-miterlimit:10;}
	.st1{fill:#383838;}
	.st2{fill:#E5E51E;}
	.st3{fill:#895623;}
	.st4{fill:none;stroke:#66401A;stroke-miterlimit:10;}
	.st5{fill:none;stroke:#66401A;stroke-width:1;stroke-miterlimit:9.9999;}
	.st6{fill:#895623;stroke:#66401A;stroke-miterlimit:10;}
	.st7{fill:url(#SVGID_1_);stroke:#66401A;stroke-miterlimit:10;}
	.st8{fill:#231F20;stroke:#171717;stroke-miterlimit:10;}
</style>
<g id="Layer_2_1_">
	<g>
		<path class="st0" d="M277.09,332.59c-0.38-34.99-9.78-47.4-18.81-52.67c-18.81-10.91-39.5,9.03-71.48,3.76
			c-24.08-4.14-41.38-20.32-52.67-33.86"/>
		<path class="st1" d="M243.23,373.97c-7.52-9.41-0.38-29.72,11.29-41.38c0.75-0.75,18.06-17.68,41.38-11.29
			c15.8,4.14,31.6,18.06,30.1,30.1C322.99,373.59,257.15,391.27,243.23,373.97z"/>
		<polygon class="st2" points="173.64,165.17 143.54,236.65 110.43,165.17 120.97,240.41 53.25,236.65 115.32,256.97 57.01,296.85 
			124.73,274.27 113.44,328.07 136.01,281.8 168.74,333.34 154.82,270.51 211.63,286.31 168.74,258.85 222.54,225.36 154.82,244.18 
					"/>
	</g>
	<g>
		<g>
			<rect x="487.77" y="409.71" class="st3" width="27.84" height="124.15"/>
			<rect x="487.77" y="409.71" class="st4" width="27.84" height="124.15"/>
		</g>
		<g>
			
				<rect x="507.24" y="486.44" transform="matrix(0.7071 -0.7071 0.7071 0.7071 -187.0621 549.116)" class="st3" width="124.15" height="27.84"/>
			
				<rect x="507.24" y="486.44" transform="matrix(0.7071 -0.7071 0.7071 0.7071 -187.0621 549.116)" class="st5" width="124.15" height="27.84"/>
		</g>
		<g>
			<rect x="534.8" y="554.55" class="st3" width="124.15" height="27.84"/>
			<rect x="534.8" y="554.55" class="st4" width="124.15" height="27.84"/>
		</g>
		<g>
			
				<rect x="554.35" y="574.03" transform="matrix(0.7071 -0.7071 0.7071 0.7071 -283.3488 588.1348)" class="st3" width="27.84" height="124.15"/>
			
				<rect x="554.35" y="574.03" transform="matrix(0.7071 -0.7071 0.7071 0.7071 -283.3488 588.1348)" class="st5" width="27.84" height="124.15"/>
		</g>
		<g>
			<rect x="486.27" y="601.58" class="st3" width="27.84" height="124.15"/>
			<rect x="486.27" y="601.58" class="st4" width="27.84" height="124.15"/>
		</g>
		<g>
			
				<rect x="370.46" y="621.14" transform="matrix(0.7071 -0.7071 0.7071 0.7071 -322.3676 491.8482)" class="st3" width="124.15" height="27.84"/>
			
				<rect x="370.46" y="621.14" transform="matrix(0.7071 -0.7071 0.7071 0.7071 -322.3676 491.8482)" class="st5" width="124.15" height="27.84"/>
		</g>
		<g>
			<rect x="342.93" y="553.05" class="st3" width="124.15" height="27.84"/>
			<rect x="342.93" y="553.05" class="st4" width="124.15" height="27.84"/>
		</g>
		<g>
			
				<rect x="419.65" y="437.24" transform="matrix(0.7071 -0.7071 0.7071 0.7071 -226.081 452.8293)" class="st3" width="27.84" height="124.15"/>
			
				<rect x="419.65" y="437.24" transform="matrix(0.7071 -0.7071 0.7071 0.7071 -226.081 452.8293)" class="st5" width="27.84" height="124.15"/>
		</g>
		<path class="st6" d="M500.94,529.72c-21.07,0-38,16.93-38,38s16.93,38,38,38c21.07,0,38-16.93,38-38S522.01,529.72,500.94,529.72z
			 M500.94,596.31c-15.8,0-28.59-12.79-28.59-28.59c0-15.8,12.79-28.59,28.59-28.59c15.8,0,28.59,12.79,28.59,28.59
			C529.53,583.52,516.74,596.31,500.94,596.31z"/>
		<path class="st6" d="M500.94,364.56c-112.11,0-203.15,91.04-203.15,203.15s91.04,203.15,203.15,203.15S704.1,679.83,704.1,567.72
			S613.05,364.56,500.94,364.56z M500.94,720.08c-84.27,0-152.37-68.09-152.37-152.37s68.09-152.37,152.37-152.37
			s152.37,68.09,152.37,152.37S585.21,720.08,500.94,720.08z"/>
	</g>
	
		<linearGradient id="SVGID_1_" gradientUnits="userSpaceOnUse" x1="882.7964" y1="492.5947" x2="882.7964" y2="492.5947" gradientTransform="matrix(1 0 0 -1 0 1002)">
		<stop  offset="0.0776" style="stop-color:#424242"/>
		<stop  offset="0.295" style="stop-color:#A1A1A1"/>
		<stop  offset="0.6107" style="stop-color:#000000"/>
	</linearGradient>
	<path class="st7" d="M882.8,509.41"/>
	<path class="st8" d="M882.8,509.41c-37.62-30.1-467.63,162.15-579.37,176.82c-6.4,0.75-15.42,1.5-26.33,0
		c-61.32-8.65-97.06-77.5-101.58-86.53c-35.36-70.35-25.96-171.93,30.1-218.2c22.57-18.81,48.91-24.83,101.58-37.62
		c58.69-13.92,54.17-2.26,101.58-15.05c13.54-3.76,120.39-22.57,139.2-26.33l7.52,3.76c7.52,7.52,15.05,11.29,15.05,11.29
		l18.81-18.81c0,0,13.17,0,15.05,0c55.68,0,221.97-45.15,221.97-45.15l-7.52-22.57c0,0,35.36-14.3,52.67-11.29
		c15.05,41.38,60.19,210.68,75.24,289.68c-9.78,9.03-52.67,18.81-52.67,18.81S887.69,513.54,882.8,509.41z"/>
	<g>
		<g>
			<rect x="326" y="473.67" class="st3" width="27.84" height="124.15"/>
			<rect x="326" y="473.67" class="st4" width="27.84" height="124.15"/>
		</g>
		<g>
			
				<rect x="345.47" y="550.4" transform="matrix(0.7071 -0.7071 0.7071 0.7071 -279.6662 453.4586)" class="st3" width="124.15" height="27.84"/>
			
				<rect x="345.47" y="550.4" transform="matrix(0.7071 -0.7071 0.7071 0.7071 -279.6662 453.4586)" class="st5" width="124.15" height="27.84"/>
		</g>
		<g>
			<rect x="373.03" y="618.51" class="st3" width="124.15" height="27.84"/>
			<rect x="373.03" y="618.51" class="st4" width="124.15" height="27.84"/>
		</g>
		<g>
			
				<rect x="392.58" y="637.98" transform="matrix(0.7071 -0.7071 0.7071 0.7071 -375.953 492.4775)" class="st3" width="27.84" height="124.15"/>
			
				<rect x="392.58" y="637.98" transform="matrix(0.7071 -0.7071 0.7071 0.7071 -375.953 492.4775)" class="st5" width="27.84" height="124.15"/>
		</g>
		<g>
			<rect x="324.5" y="665.53" class="st3" width="27.84" height="124.15"/>
			<rect x="324.5" y="665.53" class="st4" width="27.84" height="124.15"/>
		</g>
		<g>
			
				<rect x="208.68" y="685.09" transform="matrix(0.7071 -0.7071 0.7071 0.7071 -414.9719 396.1909)" class="st3" width="124.15" height="27.84"/>
			
				<rect x="208.68" y="685.09" transform="matrix(0.7071 -0.7071 0.7071 0.7071 -414.9719 396.1909)" class="st5" width="124.15" height="27.84"/>
		</g>
		<g>
			<rect x="181.16" y="617" class="st3" width="124.15" height="27.84"/>
			<rect x="181.16" y="617" class="st4" width="124.15" height="27.84"/>
		</g>
		<g>
			
				<rect x="257.88" y="501.2" transform="matrix(0.7071 -0.7071 0.7071 0.7071 -318.6855 357.1717)" class="st3" width="27.84" height="124.15"/>
			
				<rect x="257.88" y="501.2" transform="matrix(0.7071 -0.7071 0.7071 0.7071 -318.6855 357.1717)" class="st5" width="27.84" height="124.15"/>
		</g>
		<path class="st6" d="M339.17,593.68c-21.07,0-38,16.93-38,38s16.93,38,38,38s38-16.93,38-38S360.24,593.68,339.17,593.68z
			 M339.17,660.27c-15.8,0-28.59-12.79-28.59-28.59c0-15.8,12.79-28.59,28.59-28.59c15.8,0,28.59,12.79,28.59,28.59
			C367.76,647.48,354.97,660.27,339.17,660.27z"/>
		<path class="st6" d="M339.17,428.52c-112.11,0-203.15,91.04-203.15,203.15s91.04,203.15,203.15,203.15s203.15-91.04,203.15-203.15
			S451.28,428.52,339.17,428.52z M339.17,784.04c-84.27,0-152.37-68.09-152.37-152.37s68.09-152.37,152.37-152.37
			s152.37,68.09,152.37,152.37S423.44,784.04,339.17,784.04z"/>
	</g>
</g>
</svg>
