<?xml version="1.0" encoding="utf-8"?>
<!-- Generator: Adobe Illustrator 24.3.0, SVG Export Plug-In . SVG Version: 6.00 Build 0)  -->
<svg version="1.1" id="Layer_1" xmlns="http://www.w3.org/2000/svg" xmlns:xlink="http://www.w3.org/1999/xlink" x="0px" y="0px"
	 viewBox="0 0 687.9 523.1" style="enable-background:new 0 0 687.9 523.1;" xml:space="preserve">
<style type="text/css">
	.st0{fill:none;stroke:#171717;stroke-miterlimit:10;}
	.st1{fill:#383838;}
	.st2{fill:#E5E51E;}
	.st3{fill:#895623;}
	.st4{fill:none;stroke:#66401A;stroke-miterlimit:10;}
	.st5{fill:none;stroke:#66401A;stroke-width:1;stroke-miterlimit:9.9999;}
	.st6{fill:#895623;stroke:#66401A;stroke-miterlimit:10;}
	.st7{fill:url(#SVGID_1_);stroke:#66401A;stroke-miterlimit:10;}
	.st8{fill:#231F20;stroke:#171717;stroke-miterlimit:10;}
	.st9{fill:none;stroke:#171717;stroke-width:2;stroke-miterlimit:10;}
	.st10{fill:#8C6239;stroke:#171717;stroke-width:2;stroke-miterlimit:10;}
	.st11{fill:#4F3820;stroke:#171717;stroke-width:2;stroke-miterlimit:10;}
	.st12{fill:none;stroke:#4F3820;stroke-width:11;stroke-miterlimit:10;}
	.st13{fill:url(#SVGID_2_);stroke:#000000;stroke-miterlimit:10;}
	.st14{fill:none;stroke:#000000;stroke-width:2;stroke-miterlimit:10;}
	.st15{fill:#D2B48C;stroke:#000000;stroke-width:2;stroke-miterlimit:10;}
	.st16{stroke:#000000;stroke-width:2;stroke-miterlimit:10;}
	.st17{fill:#FFFFFF;stroke:#000000;stroke-miterlimit:10;}
	.st18{fill:#F40006;stroke:#000000;stroke-miterlimit:10;}
	.st19{fill:#F0F0F0;}
	.st20{fill:#757575;stroke:#000000;stroke-miterlimit:10;}
	.st21{fill:none;stroke:#000000;stroke-width:4;stroke-linecap:round;stroke-miterlimit:10;}
	.st22{fill:none;stroke:#000000;stroke-width:4;stroke-miterlimit:10;}
	.st23{fill:none;stroke:#020202;stroke-width:2;stroke-miterlimit:10;}
	.st24{fill:none;stroke:#000000;stroke-width:2;stroke-linecap:round;stroke-miterlimit:10;}
	.st25{fill:#363636;stroke:#171717;stroke-miterlimit:10;}
	.st26{fill:#DD3311;stroke:#000000;stroke-linecap:round;stroke-miterlimit:10;}
	.st27{fill:none;stroke:#000000;stroke-miterlimit:10;}
	.st28{fill:url(#SVGID_3_);stroke:#000000;stroke-miterlimit:10;}
	.st29{fill:#583002;stroke:#000000;stroke-miterlimit:10;}
	.st30{fill:#915002;stroke:#000000;stroke-width:2;stroke-miterlimit:10;}
	.st31{fill:#F98A05;stroke:#000000;stroke-width:2;stroke-miterlimit:10;}
	.st32{fill:url(#SVGID_4_);stroke:#000000;stroke-miterlimit:10;}
	.st33{fill:none;stroke:#8C6239;stroke-width:4;stroke-linecap:round;stroke-miterlimit:10;}
	.st34{fill:#7F8C94;stroke:#000000;stroke-miterlimit:10;}
	.st35{fill:#FFB800;stroke:#000000;stroke-miterlimit:10;}
	.st36{fill:#FFB800;stroke:#000000;stroke-width:2;stroke-miterlimit:10;}
	.st37{fill:#95B6CB;stroke:#000000;stroke-miterlimit:10;}
	.st38{fill:#ADEBF6;stroke:#000000;stroke-miterlimit:10;}
	.st39{fill:#FCE2A6;stroke:#000000;stroke-miterlimit:10;}
	.st40{fill:#FCE2A6;stroke:#000000;stroke-linejoin:round;stroke-miterlimit:10;}
	.st41{fill:#FCE2A6;stroke:#000000;stroke-linejoin:bevel;stroke-miterlimit:10;}
	.st42{fill:#FFFFFF;stroke:#000000;stroke-width:3;stroke-miterlimit:10;}
	.st43{fill:url(#SVGID_5_);stroke:#000000;stroke-miterlimit:10;}
	.st44{fill:#858585;stroke:#000000;stroke-miterlimit:10;}
	.st45{fill:url(#SVGID_6_);stroke:#000000;stroke-miterlimit:10;}
	.st46{fill:url(#SVGID_7_);stroke:#000000;stroke-miterlimit:10;}
</style>
<g id="Layer_1_1_">
	<g>
		
			<image style="overflow:visible;enable-background:new    ;" width="1920" height="1080" xlink:href="../../1x/Artboard 1.png"  transform="matrix(1 0 0 1 -921.0352 602.353)">
		</image>
	</g>
</g>
<g id="Layer_2_1_">
	<g>
		<path class="st0" d="M-760.5,1123.9c-0.1-9.3-2.6-12.6-5-14c-5-2.9-10.5,2.4-19,1c-6.4-1.1-11-5.4-14-9"/>
		<path class="st1" d="M-769.5,1134.9c-2-2.5-0.1-7.9,3-11c0.2-0.2,4.8-4.7,11-3c4.2,1.1,8.4,4.8,8,8
			C-748.3,1134.8-765.8,1139.5-769.5,1134.9z"/>
		<polygon class="st2" points="-788,1079.4 -796,1098.4 -804.8,1079.4 -802,1099.4 -820,1098.4 -803.5,1103.8 -819,1114.4 
			-801,1108.4 -804,1122.7 -798,1110.4 -789.3,1124.1 -793,1107.4 -777.9,1111.6 -789.3,1104.3 -775,1095.4 -793,1100.4 		"/>
	</g>
	<g>
		<g>
			<rect x="-704.5" y="1144.4" class="st3" width="7.4" height="33"/>
			<rect x="-704.5" y="1144.4" class="st4" width="7.4" height="33"/>
		</g>
		<g>
			
				<rect x="-699.4" y="1164.7" transform="matrix(0.7071 -0.7071 0.7071 0.7071 -1026.224 -140.6255)" class="st3" width="33" height="7.4"/>
			
				<rect x="-699.4" y="1164.7" transform="matrix(0.7071 -0.7071 0.7071 0.7071 -1026.224 -140.6255)" class="st5" width="33" height="7.4"/>
		</g>
		<g>
			<rect x="-692" y="1182.9" class="st3" width="33" height="7.4"/>
			<rect x="-692" y="1182.9" class="st4" width="33" height="7.4"/>
		</g>
		<g>
			
				<rect x="-686.8" y="1188" transform="matrix(0.7071 -0.7071 0.7071 0.7071 -1051.8176 -130.254)" class="st3" width="7.4" height="33"/>
			
				<rect x="-686.8" y="1188" transform="matrix(0.7071 -0.7071 0.7071 0.7071 -1051.8176 -130.254)" class="st5" width="7.4" height="33"/>
		</g>
		<g>
			<rect x="-704.9" y="1195.4" class="st3" width="7.4" height="33"/>
			<rect x="-704.9" y="1195.4" class="st4" width="7.4" height="33"/>
		</g>
		<g>
			
				<rect x="-735.7" y="1200.6" transform="matrix(0.7071 -0.7071 0.7071 0.7071 -1062.1891 -155.8477)" class="st3" width="33" height="7.4"/>
			
				<rect x="-735.7" y="1200.6" transform="matrix(0.7071 -0.7071 0.7071 0.7071 -1062.1891 -155.8477)" class="st5" width="33" height="7.4"/>
		</g>
		<g>
			<rect x="-743" y="1182.5" class="st3" width="33" height="7.4"/>
			<rect x="-743" y="1182.5" class="st4" width="33" height="7.4"/>
		</g>
		<g>
			
				<rect x="-722.6" y="1151.7" transform="matrix(0.7071 -0.7071 0.7071 0.7071 -1036.5955 -166.2192)" class="st3" width="7.4" height="33"/>
			
				<rect x="-722.6" y="1151.7" transform="matrix(0.7071 -0.7071 0.7071 0.7071 -1036.5955 -166.2192)" class="st5" width="7.4" height="33"/>
		</g>
		<path class="st6" d="M-701,1176.3c-5.6,0-10.1,4.5-10.1,10.1s4.5,10.1,10.1,10.1c5.6,0,10.1-4.5,10.1-10.1
			S-695.4,1176.3-701,1176.3z M-701,1194c-4.2,0-7.6-3.4-7.6-7.6s3.4-7.6,7.6-7.6s7.6,3.4,7.6,7.6S-696.8,1194-701,1194z"/>
		<path class="st6" d="M-701,1132.4c-29.8,0-54,24.2-54,54c0,29.8,24.2,54,54,54c29.8,0,54-24.2,54-54
			C-647,1156.6-671.2,1132.4-701,1132.4z M-701,1226.9c-22.4,0-40.5-18.1-40.5-40.5s18.1-40.5,40.5-40.5c22.4,0,40.5,18.1,40.5,40.5
			S-678.6,1226.9-701,1226.9z"/>
	</g>
	
		<linearGradient id="SVGID_1_" gradientUnits="userSpaceOnUse" x1="-599.5352" y1="1113.8529" x2="-599.5352" y2="1113.8529" gradientTransform="matrix(1 0 0 -1 0 2284.7058)">
		<stop  offset="7.759906e-02" style="stop-color:#424242"/>
		<stop  offset="0.295" style="stop-color:#A1A1A1"/>
		<stop  offset="0.6107" style="stop-color:#000000"/>
	</linearGradient>
	<path class="st7" d="M-599.5,1170.9"/>
	<path class="st8" d="M-599.5,1170.9c-10-8-124.3,43.1-154,47c-1.7,0.2-4.1,0.4-7,0c-16.3-2.3-25.8-20.6-27-23
		c-9.4-18.7-6.9-45.7,8-58c6-5,13-6.6,27-10c15.6-3.7,14.4-0.6,27-4c3.6-1,32-6,37-7l2,1c2,2,4,3,4,3l5-5c0,0,3.5,0,4,0
		c14.8,0,59-12,59-12l-2-6c0,0,9.4-3.8,14-3c4,11,16,56,20,77c-2.6,2.4-14,5-14,5S-598.2,1172-599.5,1170.9z"/>
	<g>
		<g>
			<rect x="-747.5" y="1161.4" class="st3" width="7.4" height="33"/>
			<rect x="-747.5" y="1161.4" class="st4" width="7.4" height="33"/>
		</g>
		<g>
			
				<rect x="-742.4" y="1181.7" transform="matrix(0.7071 -0.7071 0.7071 0.7071 -1050.8387 -166.0519)" class="st3" width="33" height="7.4"/>
			
				<rect x="-742.4" y="1181.7" transform="matrix(0.7071 -0.7071 0.7071 0.7071 -1050.8387 -166.0519)" class="st5" width="33" height="7.4"/>
		</g>
		<g>
			<rect x="-735" y="1199.9" class="st3" width="33" height="7.4"/>
			<rect x="-735" y="1199.9" class="st4" width="33" height="7.4"/>
		</g>
		<g>
			
				<rect x="-729.8" y="1205" transform="matrix(0.7071 -0.7071 0.7071 0.7071 -1076.4325 -155.6804)" class="st3" width="7.4" height="33"/>
			
				<rect x="-729.8" y="1205" transform="matrix(0.7071 -0.7071 0.7071 0.7071 -1076.4325 -155.6804)" class="st5" width="7.4" height="33"/>
		</g>
		<g>
			<rect x="-747.9" y="1212.4" class="st3" width="7.4" height="33"/>
			<rect x="-747.9" y="1212.4" class="st4" width="7.4" height="33"/>
		</g>
		<g>
			
				<rect x="-778.7" y="1217.6" transform="matrix(0.7071 -0.7071 0.7071 0.7071 -1086.804 -181.274)" class="st3" width="33" height="7.4"/>
			
				<rect x="-778.7" y="1217.6" transform="matrix(0.7071 -0.7071 0.7071 0.7071 -1086.804 -181.274)" class="st5" width="33" height="7.4"/>
		</g>
		<g>
			<rect x="-786" y="1199.5" class="st3" width="33" height="7.4"/>
			<rect x="-786" y="1199.5" class="st4" width="33" height="7.4"/>
		</g>
		<g>
			
				<rect x="-765.6" y="1168.7" transform="matrix(0.7071 -0.7071 0.7071 0.7071 -1061.2103 -191.6456)" class="st3" width="7.4" height="33"/>
			
				<rect x="-765.6" y="1168.7" transform="matrix(0.7071 -0.7071 0.7071 0.7071 -1061.2103 -191.6456)" class="st5" width="7.4" height="33"/>
		</g>
		<path class="st6" d="M-744,1193.3c-5.6,0-10.1,4.5-10.1,10.1s4.5,10.1,10.1,10.1c5.6,0,10.1-4.5,10.1-10.1
			S-738.4,1193.3-744,1193.3z M-744,1211c-4.2,0-7.6-3.4-7.6-7.6s3.4-7.6,7.6-7.6s7.6,3.4,7.6,7.6S-739.8,1211-744,1211z"/>
		<path class="st6" d="M-744,1149.4c-29.8,0-54,24.2-54,54c0,29.8,24.2,54,54,54c29.8,0,54-24.2,54-54
			C-690,1173.6-714.2,1149.4-744,1149.4z M-744,1243.9c-22.4,0-40.5-18.1-40.5-40.5s18.1-40.5,40.5-40.5c22.4,0,40.5,18.1,40.5,40.5
			S-721.6,1243.9-744,1243.9z"/>
	</g>
</g>
<g id="Layer_3">
	<g>
		<path class="st9" d="M597,946.4"/>
		<path class="st10" d="M650,810.4c0,0,20,52-2,85H545c-20-38,2-85,2-85"/>
		<ellipse class="st11" cx="598.5" cy="810.4" rx="51.5" ry="9"/>
		<path class="st12" d="M538,844.4c30.1,7.4,71.3,12.4,119.5,1.2"/>
		
			<linearGradient id="SVGID_2_" gradientUnits="userSpaceOnUse" x1="584.8984" y1="1465.9178" x2="597.3088" y2="1356.9023" gradientTransform="matrix(1.2918 0.1071 0.1039 -1.2542 -315.4117 2624.0122)">
			<stop  offset="0.3137" style="stop-color:#056C94"/>
			<stop  offset="0.4038" style="stop-color:#0F7194;stop-opacity:0.7676"/>
			<stop  offset="0.5546" style="stop-color:#297E93;stop-opacity:0.3785"/>
			<stop  offset="0.7012" style="stop-color:#488D93;stop-opacity:0"/>
		</linearGradient>
		<path class="st13" d="M524.3,914.1c0,0,37.7-62.7-38.3-79.7c64-13,106.6,56.3,106.6,56.3s47.4-31.3-2.4-49.5
			c61.8-16.8,110.7,76.2,110.7,76.2"/>
		<line class="st14" x1="600.5" y1="819.4" x2="597.8" y2="772.6"/>
		<circle class="st15" cx="597" cy="743.4" r="33"/>
		<path class="st16" d="M583,737.4l15.1,1.9c0,0-1.9,8.1-9,6.1S583,737.4,583,737.4z"/>
		<polyline class="st14" points="569.2,725.7 583,737.4 630,743.4 		"/>
		<ellipse class="st17" cx="573.5" cy="739.9" rx="4" ry="6"/>
		<path class="st17" d="M571.5,756.9c0,0,16.1-6,19,0c3,6-11,9-11,9"/>
		<path class="st18" d="M631.3,722.1c0,0,5.2-24.2,21.2-19.2s16.7-0.7,16.7-0.7s-9.7,10.7-18.7,9.7s-10,8-10,8s20.5-2.2,22-6
			c2-5,0,9-3,11c-1.9,1.2-21,6-27,3S631.3,722.1,631.3,722.1z"/>
		<path class="st18" d="M627.2,724.7c0,0,2.3-6.8,5.3-2.8s3,9,3,9s-5,1.6-6.5-0.7"/>
		<path class="st18" d="M575.5,717.9c0,0,54,26,54.9,20.5C633,723.6,613.5,689.3,575.5,717.9z"/>
		<g>
			
				<rect x="528.7" y="772.5" transform="matrix(0.4076 -0.9132 0.9132 0.4076 -400.2214 950.1293)" class="st19" width="7" height="22"/>
			<path class="st20" d="M518.9,782.9c0,0-59.9-26.5-49.9-89.5c6,13,6,13,18,20c1,18,2,37,34,60c-2,9-2,9-2,9"/>
			<path class="st21" d="M524.5,769.9c-0.9,1.5-1.7,2.8-2.3,4.2c-8.2,18.3,0.6,20.7,4.8,22.3c5,2,11,3,18.5-15.5"/>
			<line class="st22" x1="544.5" y1="784.1" x2="521.8" y2="774.9"/>
			<line class="st22" x1="541.5" y1="792.1" x2="518.8" y2="782.9"/>
			<circle class="st23" cx="546.5" cy="789.9" r="3.5"/>
		</g>
		<path class="st24" d="M599,793.4c0,0-27.1-7-37.5-18.5s-29.2,8.7-29.2,8.7"/>
	</g>
	<g>
		<g>
			<path class="st25" d="M15.8,1275.5c-5.1,12.2,0.7,26.3,12.9,31.4c12.2,5.1,26.3-0.7,31.4-12.9c4-9.7,1.3-20.5-6.1-27.1
				c-1.9-1.7-4.2-3.2-6.8-4.3C34.9,1257.5,20.9,1263.3,15.8,1275.5z"/>
			<path class="st0" d="M49.6,1263.7c0,0,10.8-30.2,19.7-17.8s-14,11.3-17.1-1.3s20.4-16.9,20.4-16.9"/>
		</g>
		<path class="st9" d="M16,1426.4"/>
		<g>
			<path class="st26" d="M1.9,1304.3l-15.4,6.7l-30.2-58.6c1.7-0.7,3.4-1.5,5.1-2.2c0.9-0.4,1.9-0.8,2.8-1.2c2.5-1.1,5-2.2,7.5-3.2
				C-18.3,1265.2-8.2,1284.7,1.9,1304.3z"/>
			<path class="st26" d="M-31.1,1224.6"/>
			<path class="st26" d="M-36.4,1240.5"/>
			<path class="st26" d="M-39.6,1239.4"/>
			<path class="st27" d="M-35.8,1248.9c0,0-15.9-1.5-8.1-12.5s0.5-12,0.5-12"/>
		</g>
		<g>
			<path class="st26" d="M-7.7,1310.6l-16.8-2.7l12.3-63.8c1.8,0.3,3.7,0.6,5.5,0.9c1,0.2,2.1,0.3,3.1,0.5c2.7,0.4,5.4,0.9,8.1,1.3
				C0.5,1268-3.6,1289.3-7.7,1310.6z"/>
			<path class="st26" d="M15.6,1228.1"/>
			<path class="st26" d="M1.2,1238.3"/>
			<path class="st26" d="M-0.7,1235.7"/>
			<path class="st27" d="M-3.6,1245.4c0,0-12-9.7,1.3-14.5c13.3-4.8,8-9.5,8-9.5"/>
		</g>
		<g>
			<path class="st26" d="M-2.3,1314.4l-15.2-7.1l31.9-57.8c1.7,0.8,3.3,1.6,5,2.3c0.9,0.4,1.9,0.9,2.8,1.3c2.5,1.1,4.9,2.3,7.4,3.4
				C18.9,1275.8,8.3,1295.1-2.3,1314.4z"/>
			<path class="st26" d="M46,1241.6"/>
			<path class="st26" d="M29.1,1247.5"/>
			<path class="st26" d="M28,1244.5"/>
			<path class="st27" d="M22.2,1253.1c0,0-8.4-12.5,5.8-13.5c14.2-1.1,10.7-7,10.7-7"/>
		</g>
		<path class="st10" d="M69,1290.4c0,0,20,52-2,85H-36c-20-38-3-66,2-85C2,1277.4,32,1278.4,69,1290.4z"/>
		<path class="st12" d="M-43,1324.4c30.1,7.4,71.3,12.4,119.5,1.2"/>
		
			<linearGradient id="SVGID_3_" gradientUnits="userSpaceOnUse" x1="168.7752" y1="1047.697" x2="181.1856" y2="938.6816" gradientTransform="matrix(1.2918 0.1071 0.1039 -1.2542 -315.4117 2624.0122)">
			<stop  offset="0.3137" style="stop-color:#056C94"/>
			<stop  offset="0.4038" style="stop-color:#0F7194;stop-opacity:0.7676"/>
			<stop  offset="0.5546" style="stop-color:#297E93;stop-opacity:0.3785"/>
			<stop  offset="0.7012" style="stop-color:#488D93;stop-opacity:0"/>
		</linearGradient>
		<path class="st28" d="M-56.7,1394.1c0,0,37.7-62.7-38.3-79.7c64-13,106.6,56.3,106.6,56.3s47.4-31.3-2.4-49.5
			c61.8-16.8,110.7,76.2,110.7,76.2"/>
	</g>
	<g>
		<path class="st29" d="M605.5,1350.9L605.5,1350.9c-8.8,0-16-7.2-16-16v-267c0-8.8,7.2-16,16-16l0,0c8.8,0,16,7.2,16,16v267
			C621.5,1343.7,614.3,1350.9,605.5,1350.9z"/>
		<path class="st29" d="M404,1242.4c0,0-93.5-19.5-119-41c3,41,117,62,117,62L404,1242.4z"/>
		<path class="st30" d="M392,1263.4l3-30c0,0,80,25,111,19c5,71,60,84,99,87c87,6,89.9-89.5,89.9-89.5s98.1,26.5,122.7,1.1
			c0.5,61.5-7.6,61.5-7.6,61.5h-25.1c0,0-5.6,107.9-27.7,125.9s-307.9,0-307.9,0s-78.3-53-66.3-126
			C388,1280.4,392,1263.4,392,1263.4"/>
		<path class="st24" d="M817.5,1250.9v-16.8c0,0-15.6,0.2-48.2-0.8c-1.2,0-2.3,0-3.3,0c-28.9,0.9-23.7,25.9-23.7,25.9"/>
		<line class="st14" x1="764.8" y1="1261.6" x2="766" y2="1233.4"/>
		<line class="st14" x1="752.8" y1="1261.4" x2="753.9" y2="1236.4"/>
		<line class="st14" x1="776.8" y1="1261.6" x2="778" y2="1233.4"/>
		<line class="st14" x1="788.8" y1="1261.6" x2="790" y2="1233.4"/>
		<line class="st14" x1="800.2" y1="1259.4" x2="802" y2="1233.4"/>
		<path class="st31" d="M387,1224.4c0,0,2,22.5,0,28.8c-2,6.3,104,17.2,104,17.2s3,71,95,79s104-37,104-37s12-33,16-46
			c14,2,86,15,111,5l0.6-23.9c0,0-50.6,17.9-126.6-8.1c0,0-10,67-35,76s-109,37-142-62c-2-5-2-7-4.2-11.8
			C481,1243.4,387,1224.4,387,1224.4z"/>
		<path class="st27" d="M385.6,1296.5c0,0,59.4,20.9,95.4,17.9"/>
		<path class="st27" d="M390.6,1368.5c0,0,35.9,28.4,176.9,35.4"/>
		<circle class="st29" cx="412.5" cy="1280.9" r="13.5"/>
		<circle class="st29" cx="457" cy="1287.4" r="12.5"/>
		<circle class="st29" cx="721" cy="1293.4" r="12.5"/>
		<circle class="st29" cx="758" cy="1294.4" r="13.5"/>
		<path class="st27" d="M779.8,1365.5c0,0-67.3,18.4-136.3,6.4"/>
		
			<linearGradient id="SVGID_4_" gradientUnits="userSpaceOnUse" x1="579.4148" y1="848.2353" x2="579.4148" y2="797.6977" gradientTransform="matrix(1 0 0 -1 0 2284.7058)">
			<stop  offset="0.1944" style="stop-color:#056C94"/>
			<stop  offset="0.2639" style="stop-color:#1A7694;stop-opacity:0.8008"/>
			<stop  offset="0.3703" style="stop-color:#338393;stop-opacity:0.4962"/>
			<stop  offset="0.4667" style="stop-color:#438A93;stop-opacity:0.2202"/>
			<stop  offset="0.5436" style="stop-color:#488D93;stop-opacity:0"/>
		</linearGradient>
		<path class="st32" d="M357,1455.4c0,0,41-14,62-31c12,17,42.2,11,42.2,11s17.8-12,26.8-25c22,20,29,32,36,29s32-16,37-23
			c17,15,19,22,28,23s29-9,29-9s10,10,20,10s44-17,47-23c14,9,15.3,20.3,26.6,21.6c11.4,1.4,30.3-14.8,30.3-14.8s5,9.2,14,11.2
			s46,23,46,23"/>
		<g>
			<line class="st33" x1="544" y1="1133.4" x2="679" y2="1133.4"/>
			<path class="st16" d="M543.2,1135c0,0-35.2,43.4-10.2,109.4h142c0,0-45-68.9,0-109.4C543,1135.4,543.2,1135,543.2,1135z"/>
		</g>
		<g>
			<line class="st33" x1="575.2" y1="1051.8" x2="644" y2="1051.8"/>
			<path class="st16" d="M574.8,1052.6c0,0-18,22.1-5.2,55.8H642c0,0-22.9-35.1,0-55.8C574.7,1052.8,574.8,1052.6,574.8,1052.6z"/>
		</g>
		<polyline class="st14" points="817.6,1247.5 606,1056.4 285,1201.4 		"/>
	</g>
	<g>
		<g>
			<polyline class="st34" points="339.5,992.3 405.3,992.3 408.3,992.3 408.3,999.1 339.5,999.1 			"/>
			<path class="st34" d="M409.3,992.3c0,0,21.4-33.9-1.4-33.9c-12.9,0-6.1,22.6-4.7,33.9"/>
			<path class="st35" d="M410.1,1000.8h-7c-0.9,0-1.6-0.7-1.6-1.6v-7c0-0.9,0.7-1.6,1.6-1.6h7c0.9,0,1.6,0.7,1.6,1.6v7
				C411.7,1000.1,411,1000.8,410.1,1000.8z"/>
		</g>
		<path class="st36" d="M320.4,960.2c0,0,33.2-49.6,73.6-51.3c13.5,10.1,3.4,47.2,0,64.1c-8.2,11-26.4,7.9-54.5,7.3"/>
		<path class="st36" d="M339.5,972.1v27H-40c0,0,4-81.7,98.6-86c50.9-2.3,152.7,9.9,202.7,21.9C317.4,948.5,339.5,972.1,339.5,972.1
			z"/>
		<g>
			<path class="st37" d="M63.4,998.4c0-0.2,0-0.4,0-0.6c0-22-17.9-39.9-39.9-39.9s-39.9,17.9-39.9,39.9c0,0.2,0,0.4,0,0.6H63.4z"/>
			<path class="st38" d="M50.1,998.7c0-0.1,0-0.2,0-0.4c0-14.7-11.9-26.6-26.6-26.6s-26.6,11.9-26.6,26.6c0,0.1,0,0.2,0,0.4H50.1z"
				/>
		</g>
		<g>
			<path class="st37" d="M153.1,998.4c0-0.2,0-0.4,0-0.6c0-22-17.9-39.9-39.9-39.9s-39.9,17.9-39.9,39.9c0,0.2,0,0.4,0,0.6H153.1z"
				/>
			<path class="st38" d="M139.8,998.7c0-0.1,0-0.2,0-0.4c0-14.7-11.9-26.6-26.6-26.6s-26.6,11.9-26.6,26.6c0,0.1,0,0.2,0,0.4H139.8z
				"/>
		</g>
		<g>
			<path class="st37" d="M242.7,998.4c0-0.2,0-0.4,0-0.6c0-22-17.9-39.9-39.9-39.9s-39.9,17.9-39.9,39.9c0,0.2,0,0.4,0,0.6H242.7z"
				/>
			<path class="st38" d="M229.4,998.7c0-0.1,0-0.2,0-0.4c0-14.7-11.9-26.6-26.6-26.6s-26.6,11.9-26.6,26.6c0,0.1,0,0.2,0,0.4H229.4z
				"/>
		</g>
		<line class="st14" x1="269.9" y1="936.7" x2="269.9" y2="999.1"/>
		<circle class="st27" cx="258.3" cy="948.5" r="3.4"/>
		<circle class="st27" cx="258.3" cy="968.7" r="3.4"/>
		<circle class="st27" cx="258.3" cy="989" r="3.4"/>
		<circle class="st27" cx="278.6" cy="960.3" r="3.4"/>
		<circle class="st27" cx="278.6" cy="980.5" r="3.4"/>
	</g>
	<g>
		<g>
			<polygon class="st39" points="172.5,888.8 237,893.4 216.3,909.5 237,930.2 172.5,926.8 			"/>
			<polygon class="st40" points="172.5,910.4 194.4,910.4 172.5,888.8 			"/>
			<polygon class="st39" points="29.8,888.8 -34.7,893.4 -14,909.5 -34.7,930.2 29.8,926.8 			"/>
			<polygon class="st40" points="29.8,910.4 7.9,910.4 29.8,888.8 			"/>
			<rect x="7.9" y="910.4" class="st41" width="186.5" height="44"/>
		</g>
		<g>
			<polygon class="st39" points="674.5,815.8 739,820.4 718.3,836.5 739,857.2 674.5,853.8 			"/>
			<polygon class="st40" points="674.5,837.4 696.4,837.4 674.5,815.8 			"/>
			<polygon class="st39" points="531.8,815.8 467.3,820.4 488,836.5 467.3,857.2 531.8,853.8 			"/>
			<polygon class="st40" points="531.8,837.4 509.9,837.4 531.8,815.8 			"/>
			<rect x="509.9" y="837.4" class="st41" width="186.5" height="44"/>
		</g>
		<g>
			<polygon class="st39" points="668.5,1342.8 733,1347.4 712.3,1363.5 733,1384.2 668.5,1380.8 			"/>
			<polygon class="st40" points="668.5,1364.4 690.4,1364.4 668.5,1342.8 			"/>
			<polygon class="st39" points="525.8,1342.8 461.3,1347.4 482,1363.5 461.3,1384.2 525.8,1380.8 			"/>
			<polygon class="st40" points="525.8,1364.4 503.9,1364.4 525.8,1342.8 			"/>
			<rect x="503.9" y="1364.4" class="st41" width="186.5" height="44"/>
		</g>
		<g>
			<polygon class="st39" points="90.5,1295.8 155,1300.4 134.3,1316.5 155,1337.2 90.5,1333.8 			"/>
			<polygon class="st40" points="90.5,1317.4 112.4,1317.4 90.5,1295.8 			"/>
			<polygon class="st39" points="-52.2,1295.8 -116.7,1300.4 -96,1316.5 -116.7,1337.2 -52.2,1333.8 			"/>
			<polygon class="st40" points="-52.2,1317.4 -74.1,1317.4 -52.2,1295.8 			"/>
			<rect x="-74.1" y="1317.4" class="st41" width="186.5" height="44"/>
		</g>
	</g>
</g>
<g>
	<rect x="-263" y="1565.8" class="st42" width="600.8" height="65.9"/>
	<g>
		
			<radialGradient id="SVGID_5_" cx="-260.118" cy="1582.1238" r="58.9448" fx="-239.0242" fy="1541.5481" gradientTransform="matrix(1 0 0 0.9311 0 109.0707)" gradientUnits="userSpaceOnUse">
			<stop  offset="0.1559" style="stop-color:#FFFFFF"/>
			<stop  offset="0.1622" style="stop-color:#FDFDFD"/>
			<stop  offset="0.2924" style="stop-color:#D3D3D3"/>
			<stop  offset="0.4252" style="stop-color:#B0B0B0"/>
			<stop  offset="0.5593" style="stop-color:#959595"/>
			<stop  offset="0.6952" style="stop-color:#828282"/>
			<stop  offset="0.834" style="stop-color:#777777"/>
			<stop  offset="0.9801" style="stop-color:#737373"/>
		</radialGradient>
		<path class="st43" d="M-274.1,1525.1c-2.2,0.7-23.4,5.6-35.3,26.6c-4.1,7.2-10.3,20.3-6.6,30.3c1.9,5.1,5.1,6.5,11.2,18.6
			c2,4,3.1,6.2,4.3,9.7c3.2,9.2,1.6,11.7,4.6,15.1c4.3,4.9,12.2,5.3,14,5.4c5.1,0.2,6.6-1.4,9.6-0.2c4.5,1.9,6.8,8.1,9.7,11.5
			c9.5,1.9,31-6.7,41.5-10.6c2.8-6.1-0.7-9.7,3.3-16.2c4.7-7.5,11.7-6.3,14.1-12.6c2-5.2-2.2-8-4.1-18c-2.1-11,1.7-14.2,1-23.7
			c-1.1-15.1-12.2-25.8-13.9-27.4C-240.2,1515-270.8,1524-274.1,1525.1z"/>
		<path class="st17" d="M-286.5,1586c8.6-2.8,16.2,3.3,20.7,4.7c0.8,0.2,2.4,0.5,3.3,1.8c1.8,2.7-0.8,7.9-3.6,10.7
			c-0.4,0.4-6.1,6.1-13.9,4.2c-1.6-0.4-6.6-1.9-9-6.9C-291.1,1595.9-291.8,1587.7-286.5,1586z"/>
		<path class="st17" d="M-231.1,1569.1c-8.7,2.5-11.6,11.8-14.6,15.5c-0.5,0.6-1.8,1.7-1.8,3.3c0,3.2,5.1,6.1,9,6.9
			c0.5,0.1,8.5,1.6,13.9-4.2c1.1-1.2,4.4-5.3,3.6-10.7C-221.7,1574.7-225.7,1567.5-231.1,1569.1z"/>
		<path class="st17" d="M-245.8,1622.5c-3.7,1.1-5.6,4.7-8.4,4c0,0-0.8-0.2-1.6-0.9c-4.5-3.7-4.8-26.1,2.4-28.3
			c7.6-2.3,21.4,19.2,18.2,23.4C-236.7,1622.5-242,1621.3-245.8,1622.5z"/>
		<path class="st44" d="M-272.9,1641.8c0,0,3.4-2.4,7.3,6s5.5,13.5,13.8,13.7s14.6-1.7,19.7-3.3c5-1.5,19-7.9,19.1-12
			c0.1-2.6-2.8-22.6,2.3-24.1c0,0,8,30.6,7.1,32.3c-0.9,1.6-19.7,18.5-25.7,20.3c-6.1,1.8-28.5,0.4-31-3S-269.8,1649.8-272.9,1641.8
			z"/>
	</g>
	<g>
		
			<radialGradient id="SVGID_6_" cx="319.4115" cy="1582.1238" r="59.6477" fx="313.5944" fy="1536.2145" gradientTransform="matrix(0.7328 0.6804 -0.6335 0.6823 1098.9629 289.7617)" gradientUnits="userSpaceOnUse">
			<stop  offset="0.1387" style="stop-color:#FFFFFF"/>
			<stop  offset="0.1451" style="stop-color:#FDFDFD"/>
			<stop  offset="0.278" style="stop-color:#D3D3D3"/>
			<stop  offset="0.4136" style="stop-color:#B0B0B0"/>
			<stop  offset="0.5505" style="stop-color:#959595"/>
			<stop  offset="0.6893" style="stop-color:#828282"/>
			<stop  offset="0.8309" style="stop-color:#777777"/>
			<stop  offset="0.9801" style="stop-color:#737373"/>
		</radialGradient>
		<path class="st45" d="M359.3,1535.2c-2.1-1-20.9-11.8-44-4.5c-7.9,2.5-21.4,7.8-25.4,17.7c-2,5-0.7,8.3-4.5,21.3
			c-1.2,4.3-1.9,6.7-3.4,10.1c-3.9,8.9-6.8,9.6-6.9,14.2c-0.2,6.6,5.4,12.2,6.6,13.5c3.6,3.6,5.8,3.4,7.1,6.4c2,4.4-0.6,10.5-0.7,15
			c5.7,7.9,27.3,16.2,37.7,20.5c6.2-2.5,6.1-7.6,13.4-9.6c8.5-2.3,12.9,3.4,18.9,0.4c5-2.5,3.8-7.4,9.2-16c6-9.5,11-9.3,16.9-16.7
			c9.5-11.8,8.7-27.2,8.5-29.6C391,1550.9,362.4,1536.7,359.3,1535.2z"/>
		<path class="st17" d="M308.7,1571.4c8.2,3.8,9.6,13.4,12,17.5c0.4,0.7,1.5,2,1.2,3.5c-0.5,3.2-5.9,5.2-10,5.4
			c-0.5,0-8.6,0.3-13-6.3c-0.9-1.4-3.6-5.9-1.9-11.2C298.6,1575.6,303.7,1569.1,308.7,1571.4z"/>
		<path class="st17" d="M360.8,1596.7c-8.1-4.1-16.5,0.8-21.2,1.4c-0.8,0.1-2.5,0.1-3.5,1.2c-2.2,2.4-0.4,7.9,1.9,11.2
			c0.3,0.4,5.1,7,13,6.3c1.6-0.1,6.9-0.9,10-5.4C363.9,1607.3,365.8,1599.2,360.8,1596.7z"/>
		<path class="st17" d="M313.8,1625.9c-3.4-1.7-7.3-0.4-8.9-2.8c0,0-0.5-0.7-0.6-1.8c-0.8-5.8,14.3-22.4,21-19.1
			c7.1,3.5,2.7,28.6-2.6,29.5C320.4,1632.1,317.3,1627.6,313.8,1625.9z"/>
		<path class="st44" d="M280.7,1621.5c0,0,4.1,0.5,1.3,9.4s-5.1,13.6,0.8,19.4c6,5.8,11.9,8.7,16.6,11c4.7,2.3,19.2,7.1,22.1,4.2
			c1.8-1.9,13.3-18.4,18.1-16.1c0,0-15,27.9-16.8,28.5c-1.8,0.6-27,0.2-32.7-2.6s-21.2-19.1-20.7-23.3
			C270.1,1647.9,277.6,1629.5,280.7,1621.5z"/>
	</g>
</g>
<g>
	<text transform="matrix(1 0 0 1 83.6326 941.0679)" style="font-family:'MyriadPro-Regular'; font-size:26px;">5*8</text>
	<text transform="matrix(1 0 0 1 577.4643 867.3154)" style="font-family:'MyriadPro-Regular'; font-size:26px;">13+4</text>
	<text transform="matrix(1 0 0 1 568.6337 1394.4353)" style="font-family:'MyriadPro-Regular'; font-size:26px;">20-54</text>
	<text transform="matrix(1 0 0 1 -5.603 1346.4517)" style="font-family:'MyriadPro-Regular'; font-size:26px;">40/8</text>
	<text transform="matrix(1 0 0 1 19.6976 1612.3771)" style="font-family:'MyriadPro-Regular'; font-size:52px;">5</text>
</g>
<g>
	<path class="st29" d="M406.3,345.6L406.3,345.6c-8.8,0-16-7.2-16-16v-267c0-8.8,7.2-16,16-16l0,0c8.8,0,16,7.2,16,16v267
		C422.3,338.4,415.1,345.6,406.3,345.6z"/>
	<path class="st29" d="M204.8,237.1c0,0-93.5-19.5-119-41c3,41,117,62,117,62L204.8,237.1z"/>
	<path class="st30" d="M192.8,258.1l3-30c0,0,80,25,111,19c5,71,60,84,99,87c87,6,89.9-89.5,89.9-89.5s98.1,26.5,122.7,1.1
		c0.5,61.5-7.6,61.5-7.6,61.5h-25.1c0,0-5.6,107.9-27.7,125.9s-307.9,0-307.9,0s-78.3-53-66.3-126
		C188.8,275.1,192.8,258.1,192.8,258.1"/>
	<path class="st24" d="M618.3,245.6v-16.8c0,0-15.6,0.2-48.2-0.8c-1.2,0-2.3,0-3.3,0c-28.9,0.9-23.7,25.9-23.7,25.9"/>
	<line class="st14" x1="565.6" y1="256.3" x2="566.8" y2="228.1"/>
	<line class="st14" x1="553.6" y1="256.1" x2="554.7" y2="231.1"/>
	<line class="st14" x1="577.6" y1="256.3" x2="578.8" y2="228.1"/>
	<line class="st14" x1="589.6" y1="256.3" x2="590.8" y2="228.1"/>
	<line class="st14" x1="601" y1="254.1" x2="602.8" y2="228.1"/>
	<path class="st31" d="M187.8,219.1c0,0,2,22.5,0,28.8s104,17.2,104,17.2s3,71,95,79s104-37,104-37s12-33,16-46c14,2,86,15,111,5
		l0.6-23.9c0,0-50.6,17.9-126.6-8.1c0,0-10,67-35,76s-109,37-142-62c-2-5-2-7-4.2-11.8C281.8,238.1,187.8,219.1,187.8,219.1z"/>
	<path class="st27" d="M186.4,291.2c0,0,59.4,20.9,95.4,17.9"/>
	<path class="st27" d="M191.4,363.2c0,0,35.9,28.4,176.9,35.4"/>
	<circle class="st29" cx="213.3" cy="275.6" r="13.5"/>
	<circle class="st29" cx="257.8" cy="282.1" r="12.5"/>
	<circle class="st29" cx="521.8" cy="288.1" r="12.5"/>
	<circle class="st29" cx="558.8" cy="289.1" r="13.5"/>
	<path class="st27" d="M580.6,360.2c0,0-67.3,18.4-136.3,6.4"/>
	
		<linearGradient id="SVGID_7_" gradientUnits="userSpaceOnUse" x1="380.2218" y1="1853.4452" x2="380.2218" y2="1802.9076" gradientTransform="matrix(1 0 0 -1 0 2284.7058)">
		<stop  offset="0.1944" style="stop-color:#056C94"/>
		<stop  offset="0.2639" style="stop-color:#1A7694;stop-opacity:0.8008"/>
		<stop  offset="0.3703" style="stop-color:#338393;stop-opacity:0.4962"/>
		<stop  offset="0.4667" style="stop-color:#438A93;stop-opacity:0.2202"/>
		<stop  offset="0.5436" style="stop-color:#488D93;stop-opacity:0"/>
	</linearGradient>
	<path class="st46" d="M157.8,450.1c0,0,41-14,62-31c12,17,42.2,11,42.2,11s17.8-12,26.8-25c22,20,29,32,36,29s32-16,37-23
		c17,15,19,22,28,23s29-9,29-9s10,10,20,10s44-17,47-23c14,9,15.3,20.3,26.6,21.6c11.4,1.4,30.3-14.8,30.3-14.8s5,9.2,14,11.2
		s46,23,46,23"/>
	<g>
		<line class="st33" x1="344.8" y1="128.1" x2="479.8" y2="128.1"/>
		<path class="st16" d="M344,129.7c0,0-35.2,43.4-10.2,109.4h142c0,0-45-68.9,0-109.4C343.8,130.1,344,129.7,344,129.7z"/>
	</g>
	<g>
		<line class="st33" x1="376" y1="46.5" x2="444.8" y2="46.5"/>
		<path class="st16" d="M375.6,47.3c0,0-18,22.1-5.2,55.8h72.4c0,0-22.9-35.1,0-55.8C375.5,47.5,375.6,47.3,375.6,47.3z"/>
	</g>
	<polyline class="st14" points="618.4,242.2 406.8,51.1 85.8,196.1 	"/>
</g>
</svg>
