<?xml version="1.0" encoding="utf-8"?>
<!-- Generator: Adobe Illustrator 24.3.0, SVG Export Plug-In . SVG Version: 6.00 Build 0)  -->
<svg version="1.1" id="Layer_1" xmlns="http://www.w3.org/2000/svg" xmlns:xlink="http://www.w3.org/1999/xlink" x="0px" y="0px"
	 viewBox="0 0 322.6 299.3" style="enable-background:new 0 0 322.6 299.3;" xml:space="preserve">
<style type="text/css">
	.st0{fill:none;stroke:#171717;stroke-miterlimit:10;}
	.st1{fill:#383838;}
	.st2{fill:#E5E51E;}
	.st3{fill:#895623;}
	.st4{fill:none;stroke:#66401A;stroke-miterlimit:10;}
	.st5{fill:none;stroke:#66401A;stroke-width:1;stroke-miterlimit:9.9999;}
	.st6{fill:#895623;stroke:#66401A;stroke-miterlimit:10;}
	.st7{fill:url(#SVGID_1_);stroke:#66401A;stroke-miterlimit:10;}
	.st8{fill:#231F20;stroke:#171717;stroke-miterlimit:10;}
	.st9{fill:none;stroke:#171717;stroke-width:2;stroke-miterlimit:10;}
	.st10{fill:#8C6239;stroke:#171717;stroke-width:2;stroke-miterlimit:10;}
	.st11{fill:#4F3820;stroke:#171717;stroke-width:2;stroke-miterlimit:10;}
	.st12{fill:none;stroke:#4F3820;stroke-width:11;stroke-miterlimit:10;}
	.st13{fill:url(#SVGID_2_);stroke:#000000;stroke-miterlimit:10;}
	.st14{fill:none;stroke:#000000;stroke-width:2;stroke-miterlimit:10;}
	.st15{fill:#D2B48C;stroke:#000000;stroke-width:2;stroke-miterlimit:10;}
	.st16{stroke:#000000;stroke-width:2;stroke-miterlimit:10;}
	.st17{fill:#FFFFFF;stroke:#000000;stroke-miterlimit:10;}
	.st18{fill:#F40006;stroke:#000000;stroke-miterlimit:10;}
	.st19{fill:#F0F0F0;}
	.st20{fill:#757575;stroke:#000000;stroke-miterlimit:10;}
	.st21{fill:none;stroke:#000000;stroke-width:4;stroke-linecap:round;stroke-miterlimit:10;}
	.st22{fill:none;stroke:#000000;stroke-width:4;stroke-miterlimit:10;}
	.st23{fill:none;stroke:#020202;stroke-width:2;stroke-miterlimit:10;}
	.st24{fill:none;stroke:#000000;stroke-width:2;stroke-linecap:round;stroke-miterlimit:10;}
	.st25{fill:url(#SVGID_3_);stroke:#000000;stroke-miterlimit:10;}
	.st26{fill:#363636;stroke:#171717;stroke-miterlimit:10;}
	.st27{fill:#DD3311;stroke:#000000;stroke-linecap:round;stroke-miterlimit:10;}
	.st28{fill:none;stroke:#000000;stroke-miterlimit:10;}
	.st29{fill:url(#SVGID_4_);stroke:#000000;stroke-miterlimit:10;}
	.st30{fill:#583002;stroke:#000000;stroke-miterlimit:10;}
	.st31{fill:#915002;stroke:#000000;stroke-width:2;stroke-miterlimit:10;}
	.st32{fill:#F98A05;stroke:#000000;stroke-width:2;stroke-miterlimit:10;}
	.st33{fill:url(#SVGID_5_);stroke:#000000;stroke-miterlimit:10;}
	.st34{fill:none;stroke:#8C6239;stroke-width:4;stroke-linecap:round;stroke-miterlimit:10;}
	.st35{fill:#7F8C94;stroke:#000000;stroke-miterlimit:10;}
	.st36{fill:#FFB800;stroke:#000000;stroke-miterlimit:10;}
	.st37{fill:#FFB800;stroke:#000000;stroke-width:2;stroke-miterlimit:10;}
	.st38{fill:#95B6CB;stroke:#000000;stroke-miterlimit:10;}
	.st39{fill:#ADEBF6;stroke:#000000;stroke-miterlimit:10;}
	.st40{fill:#FCE2A6;stroke:#000000;stroke-miterlimit:10;}
	.st41{fill:#FCE2A6;stroke:#000000;stroke-linejoin:round;stroke-miterlimit:10;}
	.st42{fill:#FCE2A6;stroke:#000000;stroke-linejoin:bevel;stroke-miterlimit:10;}
	.st43{fill:#FFFFFF;stroke:#000000;stroke-width:3;stroke-miterlimit:10;}
	.st44{fill:url(#SVGID_6_);stroke:#000000;stroke-miterlimit:10;}
	.st45{fill:#858585;stroke:#000000;stroke-miterlimit:10;}
	.st46{fill:url(#SVGID_7_);stroke:#000000;stroke-miterlimit:10;}
</style>
<g id="Layer_1_1_">
	<g>
		
			<image style="overflow:visible;enable-background:new    ;" width="1920" height="1080" xlink:href="../../1x/Artboard 1.png"  transform="matrix(1 0 0 1 -1033.1765 547.2941)">
		</image>
	</g>
</g>
<g id="Layer_2_1_">
	<g>
		<path class="st0" d="M-872.7,1068.8c-0.1-9.3-2.6-12.6-5-14c-5-2.9-10.5,2.4-19,1c-6.4-1.1-11-5.4-14-9"/>
		<path class="st1" d="M-881.7,1079.8c-2-2.5-0.1-7.9,3-11c0.2-0.2,4.8-4.7,11-3c4.2,1.1,8.4,4.8,8,8
			C-860.5,1079.7-878,1084.4-881.7,1079.8z"/>
		<polygon class="st2" points="-900.2,1024.3 -908.2,1043.3 -917,1024.3 -914.2,1044.3 -932.2,1043.3 -915.7,1048.7 -931.2,1059.3 
			-913.2,1053.3 -916.2,1067.6 -910.2,1055.3 -901.5,1069 -905.2,1052.3 -890.1,1056.5 -901.5,1049.2 -887.2,1040.3 -905.2,1045.3 
					"/>
	</g>
	<g>
		<g>
			<rect x="-816.7" y="1089.3" class="st3" width="7.4" height="33"/>
			<rect x="-816.7" y="1089.3" class="st4" width="7.4" height="33"/>
		</g>
		<g>
			
				<rect x="-811.5" y="1109.7" transform="matrix(0.7071 -0.7071 0.7071 0.7071 -1020.1369 -236.0477)" class="st3" width="33" height="7.4"/>
			
				<rect x="-811.5" y="1109.7" transform="matrix(0.7071 -0.7071 0.7071 0.7071 -1020.1369 -236.0477)" class="st5" width="33" height="7.4"/>
		</g>
		<g>
			<rect x="-804.2" y="1127.8" class="st3" width="33" height="7.4"/>
			<rect x="-804.2" y="1127.8" class="st4" width="33" height="7.4"/>
		</g>
		<g>
			
				<rect x="-799" y="1133" transform="matrix(0.7071 -0.7071 0.7071 0.7071 -1045.7306 -225.6762)" class="st3" width="7.4" height="33"/>
			
				<rect x="-799" y="1133" transform="matrix(0.7071 -0.7071 0.7071 0.7071 -1045.7306 -225.6762)" class="st5" width="7.4" height="33"/>
		</g>
		<g>
			<rect x="-817.1" y="1140.3" class="st3" width="7.4" height="33"/>
			<rect x="-817.1" y="1140.3" class="st4" width="7.4" height="33"/>
		</g>
		<g>
			
				<rect x="-847.9" y="1145.5" transform="matrix(0.7071 -0.7071 0.7071 0.7071 -1056.1021 -251.2699)" class="st3" width="33" height="7.4"/>
			
				<rect x="-847.9" y="1145.5" transform="matrix(0.7071 -0.7071 0.7071 0.7071 -1056.1021 -251.2699)" class="st5" width="33" height="7.4"/>
		</g>
		<g>
			<rect x="-855.2" y="1127.4" class="st3" width="33" height="7.4"/>
			<rect x="-855.2" y="1127.4" class="st4" width="33" height="7.4"/>
		</g>
		<g>
			
				<rect x="-834.8" y="1096.6" transform="matrix(0.7071 -0.7071 0.7071 0.7071 -1030.5084 -261.6414)" class="st3" width="7.4" height="33"/>
			
				<rect x="-834.8" y="1096.6" transform="matrix(0.7071 -0.7071 0.7071 0.7071 -1030.5084 -261.6414)" class="st5" width="7.4" height="33"/>
		</g>
		<path class="st6" d="M-813.2,1121.2c-5.6,0-10.1,4.5-10.1,10.1s4.5,10.1,10.1,10.1c5.6,0,10.1-4.5,10.1-10.1
			S-807.6,1121.2-813.2,1121.2z M-813.2,1138.9c-4.2,0-7.6-3.4-7.6-7.6s3.4-7.6,7.6-7.6s7.6,3.4,7.6,7.6S-809,1138.9-813.2,1138.9z"
			/>
		<path class="st6" d="M-813.2,1077.3c-29.8,0-54,24.2-54,54c0,29.8,24.2,54,54,54c29.8,0,54-24.2,54-54
			C-759.2,1101.5-783.4,1077.3-813.2,1077.3z M-813.2,1171.8c-22.4,0-40.5-18.1-40.5-40.5s18.1-40.5,40.5-40.5
			c22.4,0,40.5,18.1,40.5,40.5S-790.8,1171.8-813.2,1171.8z"/>
	</g>
	
		<linearGradient id="SVGID_1_" gradientUnits="userSpaceOnUse" x1="-711.6765" y1="1058.7941" x2="-711.6765" y2="1058.7941" gradientTransform="matrix(1 0 0 -1 0 2174.5881)">
		<stop  offset="7.759906e-02" style="stop-color:#424242"/>
		<stop  offset="0.295" style="stop-color:#A1A1A1"/>
		<stop  offset="0.6107" style="stop-color:#000000"/>
	</linearGradient>
	<path class="st7" d="M-711.7,1115.8"/>
	<path class="st8" d="M-711.7,1115.8c-10-8-124.3,43.1-154,47c-1.7,0.2-4.1,0.4-7,0c-16.3-2.3-25.8-20.6-27-23
		c-9.4-18.7-6.9-45.7,8-58c6-5,13-6.6,27-10c15.6-3.7,14.4-0.6,27-4c3.6-1,32-6,37-7l2,1c2,2,4,3,4,3l5-5c0,0,3.5,0,4,0
		c14.8,0,59-12,59-12l-2-6c0,0,9.4-3.8,14-3c4,11,16,56,20,77c-2.6,2.4-14,5-14,5S-710.4,1116.9-711.7,1115.8z"/>
	<g>
		<g>
			<rect x="-859.7" y="1106.3" class="st3" width="7.4" height="33"/>
			<rect x="-859.7" y="1106.3" class="st4" width="7.4" height="33"/>
		</g>
		<g>
			
				<rect x="-854.5" y="1126.7" transform="matrix(0.7071 -0.7071 0.7071 0.7071 -1044.7517 -261.4741)" class="st3" width="33" height="7.4"/>
			
				<rect x="-854.5" y="1126.7" transform="matrix(0.7071 -0.7071 0.7071 0.7071 -1044.7517 -261.4741)" class="st5" width="33" height="7.4"/>
		</g>
		<g>
			<rect x="-847.2" y="1144.8" class="st3" width="33" height="7.4"/>
			<rect x="-847.2" y="1144.8" class="st4" width="33" height="7.4"/>
		</g>
		<g>
			
				<rect x="-842" y="1150" transform="matrix(0.7071 -0.7071 0.7071 0.7071 -1070.3455 -251.1026)" class="st3" width="7.4" height="33"/>
			
				<rect x="-842" y="1150" transform="matrix(0.7071 -0.7071 0.7071 0.7071 -1070.3455 -251.1026)" class="st5" width="7.4" height="33"/>
		</g>
		<g>
			<rect x="-860.1" y="1157.3" class="st3" width="7.4" height="33"/>
			<rect x="-860.1" y="1157.3" class="st4" width="7.4" height="33"/>
		</g>
		<g>
			
				<rect x="-890.9" y="1162.5" transform="matrix(0.7071 -0.7071 0.7071 0.7071 -1080.7169 -276.6963)" class="st3" width="33" height="7.4"/>
			
				<rect x="-890.9" y="1162.5" transform="matrix(0.7071 -0.7071 0.7071 0.7071 -1080.7169 -276.6963)" class="st5" width="33" height="7.4"/>
		</g>
		<g>
			<rect x="-898.2" y="1144.4" class="st3" width="33" height="7.4"/>
			<rect x="-898.2" y="1144.4" class="st4" width="33" height="7.4"/>
		</g>
		<g>
			
				<rect x="-877.8" y="1113.6" transform="matrix(0.7071 -0.7071 0.7071 0.7071 -1055.1233 -287.0679)" class="st3" width="7.4" height="33"/>
			
				<rect x="-877.8" y="1113.6" transform="matrix(0.7071 -0.7071 0.7071 0.7071 -1055.1233 -287.0679)" class="st5" width="7.4" height="33"/>
		</g>
		<path class="st6" d="M-856.2,1138.2c-5.6,0-10.1,4.5-10.1,10.1s4.5,10.1,10.1,10.1c5.6,0,10.1-4.5,10.1-10.1
			S-850.6,1138.2-856.2,1138.2z M-856.2,1155.9c-4.2,0-7.6-3.4-7.6-7.6s3.4-7.6,7.6-7.6s7.6,3.4,7.6,7.6S-852,1155.9-856.2,1155.9z"
			/>
		<path class="st6" d="M-856.2,1094.3c-29.8,0-54,24.2-54,54c0,29.8,24.2,54,54,54c29.8,0,54-24.2,54-54
			C-802.2,1118.5-826.4,1094.3-856.2,1094.3z M-856.2,1188.8c-22.4,0-40.5-18.1-40.5-40.5s18.1-40.5,40.5-40.5
			c22.4,0,40.5,18.1,40.5,40.5S-833.8,1188.8-856.2,1188.8z"/>
	</g>
</g>
<g id="Layer_3">
	<g>
		<path class="st9" d="M484.8,891.3"/>
		<path class="st10" d="M537.8,755.3c0,0,20,52-2,85h-103c-20-38,2-85,2-85"/>
		<ellipse class="st11" cx="486.3" cy="755.3" rx="51.5" ry="9"/>
		<path class="st12" d="M425.8,789.3c30.1,7.4,71.3,12.4,119.5,1.2"/>
		
			<linearGradient id="SVGID_2_" gradientUnits="userSpaceOnUse" x1="472.7572" y1="1410.859" x2="485.1675" y2="1301.8435" gradientTransform="matrix(1.2918 0.1071 0.1039 -1.2542 -276.9682 2511.9089)">
			<stop  offset="0.3137" style="stop-color:#056C94"/>
			<stop  offset="0.4038" style="stop-color:#0F7194;stop-opacity:0.7676"/>
			<stop  offset="0.5546" style="stop-color:#297E93;stop-opacity:0.3785"/>
			<stop  offset="0.7012" style="stop-color:#488D93;stop-opacity:0"/>
		</linearGradient>
		<path class="st13" d="M412.1,859c0,0,37.7-62.7-38.3-79.7c64-13,106.6,56.3,106.6,56.3s47.4-31.3-2.4-49.5
			c61.8-16.8,110.7,76.2,110.7,76.2"/>
		<line class="st14" x1="488.3" y1="764.3" x2="485.6" y2="717.5"/>
		<circle class="st15" cx="484.8" cy="688.3" r="33"/>
		<path class="st16" d="M470.8,682.3l15.1,1.9c0,0-1.9,8.1-9,6.1S470.8,682.3,470.8,682.3z"/>
		<polyline class="st14" points="457,670.6 470.8,682.3 517.8,688.3 		"/>
		<ellipse class="st17" cx="461.3" cy="684.8" rx="4" ry="6"/>
		<path class="st17" d="M459.3,701.8c0,0,16.1-6,19,0c3,6-11,9-11,9"/>
		<path class="st18" d="M519.1,667c0,0,5.2-24.2,21.2-19.2s16.7-0.7,16.7-0.7s-9.7,10.7-18.7,9.7s-10,8-10,8s20.5-2.2,22-6
			c2-5,0,9-3,11c-1.9,1.2-21,6-27,3S519.1,667,519.1,667z"/>
		<path class="st18" d="M515,669.6c0,0,2.3-6.8,5.3-2.8s3,9,3,9s-5,1.6-6.5-0.7"/>
		<path class="st18" d="M463.3,662.8c0,0,54,26,54.9,20.5C520.8,668.5,501.3,634.2,463.3,662.8z"/>
		<g>
			
				<rect x="416.5" y="717.5" transform="matrix(0.4076 -0.9132 0.9132 0.4076 -416.3776 815.1079)" class="st19" width="7" height="22"/>
			<path class="st20" d="M406.7,727.8c0,0-59.9-26.5-49.9-89.5c6,13,6,13,18,20c1,18,2,37,34,60c-2,9-2,9-2,9"/>
			<path class="st21" d="M412.3,714.8c-0.9,1.5-1.7,2.8-2.3,4.2c-8.2,18.3,0.6,20.7,4.8,22.3c5,2,11,3,18.5-15.5"/>
			<line class="st22" x1="432.3" y1="729" x2="409.6" y2="719.8"/>
			<line class="st22" x1="429.3" y1="737" x2="406.6" y2="727.8"/>
			<circle class="st23" cx="434.3" cy="734.8" r="3.5"/>
		</g>
		<path class="st24" d="M486.8,738.3c0,0-27.1-7-37.5-18.5s-29.2,8.7-29.2,8.7"/>
	</g>
	<g>
		<path class="st9" d="M162.1,287.2"/>
		<path class="st10" d="M215.1,151.2c0,0,20,52-2,85h-103c-20-38,2-85,2-85"/>
		<ellipse class="st11" cx="163.6" cy="151.2" rx="51.5" ry="9"/>
		<path class="st12" d="M103.1,185.2c30.1,7.4,71.3,12.4,119.5,1.2"/>
		
			<linearGradient id="SVGID_3_" gradientUnits="userSpaceOnUse" x1="186.1914" y1="1868.0171" x2="198.6018" y2="1759.0016" gradientTransform="matrix(1.2918 0.1071 0.1039 -1.2542 -276.9682 2511.9089)">
			<stop  offset="0.3137" style="stop-color:#056C94"/>
			<stop  offset="0.4038" style="stop-color:#0F7194;stop-opacity:0.7676"/>
			<stop  offset="0.5546" style="stop-color:#297E93;stop-opacity:0.3785"/>
			<stop  offset="0.7012" style="stop-color:#488D93;stop-opacity:0"/>
		</linearGradient>
		<path class="st25" d="M89.4,254.9c0,0,37.7-62.7-38.3-79.7c64-13,106.6,56.3,106.6,56.3s47.4-31.3-2.4-49.5
			c61.8-16.8,110.7,76.2,110.7,76.2"/>
		<line class="st14" x1="165.6" y1="160.2" x2="162.9" y2="113.4"/>
		<circle class="st15" cx="162.1" cy="84.2" r="33"/>
		<path class="st16" d="M148.1,78.2l15.1,1.9c0,0-1.9,8.1-9,6.1S148.1,78.2,148.1,78.2z"/>
		<polyline class="st14" points="134.3,66.5 148.1,78.2 195.1,84.2 		"/>
		<ellipse class="st17" cx="138.6" cy="80.7" rx="4" ry="6"/>
		<path class="st17" d="M136.6,97.7c0,0,16.1-6,19,0c3,6-11,9-11,9"/>
		<path class="st18" d="M196.4,62.9c0,0,5.2-24.2,21.2-19.2s16.7-0.7,16.7-0.7s-9.7,10.7-18.7,9.7s-10,8-10,8s20.5-2.2,22-6
			c2-5,0,9-3,11c-1.9,1.2-21,6-27,3S196.4,62.9,196.4,62.9z"/>
		<path class="st18" d="M192.3,65.5c0,0,2.3-6.8,5.3-2.8s3,9,3,9s-5,1.6-6.5-0.7"/>
		<path class="st18" d="M140.6,58.7c0,0,54,26,54.9,20.5C198.1,64.4,178.6,30.1,140.6,58.7z"/>
		<g>
			
				<rect x="93.8" y="113.4" transform="matrix(0.4076 -0.9132 0.9132 0.4076 -55.9354 162.5875)" class="st19" width="7" height="22"/>
			<path class="st20" d="M84,123.7c0,0-59.9-26.5-49.9-89.5c6,13,6,13,18,20c1,18,2,37,34,60c-2,9-2,9-2,9"/>
			<path class="st21" d="M89.6,110.7c-0.9,1.5-1.7,2.8-2.3,4.2c-8.2,18.3,0.6,20.7,4.8,22.3c5,2,11,3,18.5-15.5"/>
			<line class="st22" x1="109.6" y1="124.9" x2="86.9" y2="115.7"/>
			<line class="st22" x1="106.6" y1="132.9" x2="83.9" y2="123.7"/>
			<circle class="st23" cx="111.6" cy="130.7" r="3.5"/>
		</g>
		<path class="st24" d="M164.1,134.2c0,0-27.1-7-37.5-18.5s-29.2,8.7-29.2,8.7"/>
	</g>
	<g>
		<g>
			<path class="st26" d="M-96.4,1220.4c-5.1,12.2,0.7,26.3,12.9,31.4c12.2,5.1,26.3-0.7,31.4-12.9c4-9.7,1.3-20.5-6.1-27.1
				c-1.9-1.7-4.2-3.2-6.8-4.3C-77.3,1202.4-91.3,1208.2-96.4,1220.4z"/>
			<path class="st0" d="M-62.6,1208.6c0,0,10.8-30.2,19.7-17.8s-14,11.3-17.1-1.3s20.4-16.9,20.4-16.9"/>
		</g>
		<path class="st9" d="M-96.2,1371.3"/>
		<g>
			<path class="st27" d="M-110.3,1249.2l-15.4,6.7l-30.2-58.6c1.7-0.7,3.4-1.5,5.1-2.2c0.9-0.4,1.9-0.8,2.8-1.2
				c2.5-1.1,5-2.2,7.5-3.2C-130.5,1210.1-120.4,1229.6-110.3,1249.2z"/>
			<path class="st27" d="M-143.3,1169.5"/>
			<path class="st27" d="M-148.6,1185.4"/>
			<path class="st27" d="M-151.8,1184.3"/>
			<path class="st28" d="M-148,1193.8c0,0-15.9-1.5-8.1-12.5s0.5-12,0.5-12"/>
		</g>
		<g>
			<path class="st27" d="M-119.9,1255.5l-16.8-2.7l12.3-63.8c1.8,0.3,3.7,0.6,5.5,0.9c1,0.2,2.1,0.3,3.1,0.5
				c2.7,0.4,5.4,0.9,8.1,1.3C-111.7,1212.9-115.8,1234.2-119.9,1255.5z"/>
			<path class="st27" d="M-96.6,1173"/>
			<path class="st27" d="M-111,1183.2"/>
			<path class="st27" d="M-112.9,1180.6"/>
			<path class="st28" d="M-115.8,1190.3c0,0-12-9.7,1.3-14.5c13.3-4.8,8-9.5,8-9.5"/>
		</g>
		<g>
			<path class="st27" d="M-114.5,1259.3l-15.2-7.1l31.9-57.8c1.7,0.8,3.3,1.6,5,2.3c0.9,0.4,1.9,0.9,2.8,1.3
				c2.5,1.1,4.9,2.3,7.4,3.4C-93.3,1220.7-103.9,1240-114.5,1259.3z"/>
			<path class="st27" d="M-66.2,1186.5"/>
			<path class="st27" d="M-83.1,1192.4"/>
			<path class="st27" d="M-84.2,1189.4"/>
			<path class="st28" d="M-90,1198c0,0-8.4-12.5,5.8-13.5c14.2-1.1,10.7-7,10.7-7"/>
		</g>
		<path class="st10" d="M-43.2,1235.3c0,0,20,52-2,85h-103c-20-38-3-66,2-85C-110.2,1222.3-80.2,1223.3-43.2,1235.3z"/>
		<path class="st12" d="M-155.2,1269.3c30.1,7.4,71.3,12.4,119.5,1.2"/>
		
			<linearGradient id="SVGID_4_" gradientUnits="userSpaceOnUse" x1="56.6339" y1="992.6382" x2="69.0443" y2="883.6229" gradientTransform="matrix(1.2918 0.1071 0.1039 -1.2542 -276.9682 2511.9089)">
			<stop  offset="0.3137" style="stop-color:#056C94"/>
			<stop  offset="0.4038" style="stop-color:#0F7194;stop-opacity:0.7676"/>
			<stop  offset="0.5546" style="stop-color:#297E93;stop-opacity:0.3785"/>
			<stop  offset="0.7012" style="stop-color:#488D93;stop-opacity:0"/>
		</linearGradient>
		<path class="st29" d="M-168.9,1339c0,0,37.7-62.7-38.3-79.7c64-13,106.6,56.3,106.6,56.3s47.4-31.3-2.4-49.5
			c61.8-16.8,110.7,76.2,110.7,76.2"/>
	</g>
	<g>
		<path class="st30" d="M493.3,1295.8L493.3,1295.8c-8.8,0-16-7.2-16-16v-267c0-8.8,7.2-16,16-16l0,0c8.8,0,16,7.2,16,16v267
			C509.3,1288.6,502.1,1295.8,493.3,1295.8z"/>
		<path class="st30" d="M291.8,1187.3c0,0-93.5-19.5-119-41c3,41,117,62,117,62L291.8,1187.3z"/>
		<path class="st31" d="M279.8,1208.3l3-30c0,0,80,25,111,19c5,71,60,84,99,87c87,6,89.9-89.5,89.9-89.5s98.1,26.5,122.7,1.1
			c0.5,61.5-7.6,61.5-7.6,61.5h-25.1c0,0-5.6,107.9-27.7,125.9s-307.9,0-307.9,0s-78.3-53-66.3-126
			C275.8,1225.3,279.8,1208.3,279.8,1208.3"/>
		<path class="st24" d="M705.3,1195.8V1179c0,0-15.6,0.2-48.2-0.8c-1.2,0-2.3,0-3.3,0c-28.9,0.9-23.7,25.9-23.7,25.9"/>
		<line class="st14" x1="652.6" y1="1206.5" x2="653.8" y2="1178.3"/>
		<line class="st14" x1="640.6" y1="1206.3" x2="641.7" y2="1181.3"/>
		<line class="st14" x1="664.6" y1="1206.5" x2="665.8" y2="1178.3"/>
		<line class="st14" x1="676.6" y1="1206.5" x2="677.8" y2="1178.3"/>
		<line class="st14" x1="688" y1="1204.3" x2="689.8" y2="1178.3"/>
		<path class="st32" d="M274.8,1169.3c0,0,2,22.5,0,28.8c-2,6.3,104,17.2,104,17.2s3,71,95,79s104-37,104-37s12-33,16-46
			c14,2,86,15,111,5l0.6-23.9c0,0-50.6,17.9-126.6-8.1c0,0-10,67-35,76s-109,37-142-62c-2-5-2-7-4.2-11.8
			C368.8,1188.3,274.8,1169.3,274.8,1169.3z"/>
		<path class="st28" d="M273.4,1241.4c0,0,59.4,20.9,95.4,17.9"/>
		<path class="st28" d="M278.4,1313.4c0,0,35.9,28.4,176.9,35.4"/>
		<circle class="st30" cx="300.3" cy="1225.8" r="13.5"/>
		<circle class="st30" cx="344.8" cy="1232.3" r="12.5"/>
		<circle class="st30" cx="608.8" cy="1238.3" r="12.5"/>
		<circle class="st30" cx="645.8" cy="1239.3" r="13.5"/>
		<path class="st28" d="M667.6,1310.4c0,0-67.3,18.4-136.3,6.4"/>
		
			<linearGradient id="SVGID_5_" gradientUnits="userSpaceOnUse" x1="467.2735" y1="793.1765" x2="467.2735" y2="742.6389" gradientTransform="matrix(1 0 0 -1 0 2174.5881)">
			<stop  offset="0.1944" style="stop-color:#056C94"/>
			<stop  offset="0.2639" style="stop-color:#1A7694;stop-opacity:0.8008"/>
			<stop  offset="0.3703" style="stop-color:#338393;stop-opacity:0.4962"/>
			<stop  offset="0.4667" style="stop-color:#438A93;stop-opacity:0.2202"/>
			<stop  offset="0.5436" style="stop-color:#488D93;stop-opacity:0"/>
		</linearGradient>
		<path class="st33" d="M244.8,1400.3c0,0,41-14,62-31c12,17,42.2,11,42.2,11s17.8-12,26.8-25c22,20,29,32,36,29s32-16,37-23
			c17,15,19,22,28,23s29-9,29-9s10,10,20,10s44-17,47-23c14,9,15.3,20.3,26.6,21.6c11.4,1.4,30.3-14.8,30.3-14.8s5,9.2,14,11.2
			s46,23,46,23"/>
		<g>
			<line class="st34" x1="431.8" y1="1078.3" x2="566.8" y2="1078.3"/>
			<path class="st16" d="M431,1079.9c0,0-35.2,43.4-10.2,109.4h142c0,0-45-68.9,0-109.4C430.8,1080.3,431,1079.9,431,1079.9z"/>
		</g>
		<g>
			<line class="st34" x1="463" y1="996.7" x2="531.8" y2="996.7"/>
			<path class="st16" d="M462.6,997.5c0,0-18,22.1-5.2,55.8h72.4c0,0-22.9-35.1,0-55.8C462.5,997.7,462.6,997.5,462.6,997.5z"/>
		</g>
		<polyline class="st14" points="705.4,1192.4 493.8,1001.3 172.8,1146.3 		"/>
	</g>
	<g>
		<g>
			<polyline class="st35" points="227.3,937.2 293.1,937.2 296.1,937.2 296.1,944 227.3,944 			"/>
			<path class="st35" d="M297.1,937.2c0,0,21.4-33.9-1.4-33.9c-12.9,0-6.1,22.6-4.7,33.9"/>
			<path class="st36" d="M297.9,945.7h-7c-0.9,0-1.6-0.7-1.6-1.6v-7c0-0.9,0.7-1.6,1.6-1.6h7c0.9,0,1.6,0.7,1.6,1.6v7
				C299.5,945,298.8,945.7,297.9,945.7z"/>
		</g>
		<path class="st37" d="M208.2,905.1c0,0,33.2-49.6,73.6-51.3c13.5,10.1,3.4,47.2,0,64.1c-8.2,11-26.4,7.9-54.5,7.3"/>
		<path class="st37" d="M227.3,917v27h-379.5c0,0,4-81.7,98.6-86c50.9-2.3,152.7,9.9,202.7,21.9C205.2,893.4,227.3,917,227.3,917z"
			/>
		<g>
			<path class="st38" d="M-48.8,943.3c0-0.2,0-0.4,0-0.6c0-22-17.9-39.9-39.9-39.9s-39.9,17.9-39.9,39.9c0,0.2,0,0.4,0,0.6H-48.8z"
				/>
			<path class="st39" d="M-62.1,943.6c0-0.1,0-0.2,0-0.4c0-14.7-11.9-26.6-26.6-26.6s-26.6,11.9-26.6,26.6c0,0.1,0,0.2,0,0.4H-62.1z
				"/>
		</g>
		<g>
			<path class="st38" d="M40.9,943.3c0-0.2,0-0.4,0-0.6c0-22-17.9-39.9-39.9-39.9s-39.9,17.9-39.9,39.9c0,0.2,0,0.4,0,0.6H40.9z"/>
			<path class="st39" d="M27.6,943.6c0-0.1,0-0.2,0-0.4c0-14.7-11.9-26.6-26.6-26.6s-26.6,11.9-26.6,26.6c0,0.1,0,0.2,0,0.4H27.6z"
				/>
		</g>
		<g>
			<path class="st38" d="M130.5,943.3c0-0.2,0-0.4,0-0.6c0-22-17.9-39.9-39.9-39.9s-39.9,17.9-39.9,39.9c0,0.2,0,0.4,0,0.6H130.5z"
				/>
			<path class="st39" d="M117.2,943.6c0-0.1,0-0.2,0-0.4c0-14.7-11.9-26.6-26.6-26.6S64,928.5,64,943.2c0,0.1,0,0.2,0,0.4H117.2z"/>
		</g>
		<line class="st14" x1="157.7" y1="881.6" x2="157.7" y2="944"/>
		<circle class="st28" cx="146.1" cy="893.4" r="3.4"/>
		<circle class="st28" cx="146.1" cy="913.6" r="3.4"/>
		<circle class="st28" cx="146.1" cy="933.9" r="3.4"/>
		<circle class="st28" cx="166.4" cy="905.2" r="3.4"/>
		<circle class="st28" cx="166.4" cy="925.4" r="3.4"/>
	</g>
	<g>
		<g>
			<polygon class="st40" points="60.3,833.7 124.8,838.3 104.1,854.4 124.8,875.1 60.3,871.7 			"/>
			<polygon class="st41" points="60.3,855.3 82.2,855.3 60.3,833.7 			"/>
			<polygon class="st40" points="-82.4,833.7 -146.9,838.3 -126.2,854.4 -146.9,875.1 -82.4,871.7 			"/>
			<polygon class="st41" points="-82.4,855.3 -104.3,855.3 -82.4,833.7 			"/>
			<rect x="-104.3" y="855.3" class="st42" width="186.5" height="44"/>
		</g>
		<g>
			<polygon class="st40" points="562.3,760.7 626.8,765.3 606.1,781.4 626.8,802.1 562.3,798.7 			"/>
			<polygon class="st41" points="562.3,782.3 584.2,782.3 562.3,760.7 			"/>
			<polygon class="st40" points="419.6,760.7 355.1,765.3 375.8,781.4 355.1,802.1 419.6,798.7 			"/>
			<polygon class="st41" points="419.6,782.3 397.7,782.3 419.6,760.7 			"/>
			<rect x="397.7" y="782.3" class="st42" width="186.5" height="44"/>
		</g>
		<g>
			<polygon class="st40" points="556.3,1287.7 620.8,1292.3 600.1,1308.4 620.8,1329.1 556.3,1325.7 			"/>
			<polygon class="st41" points="556.3,1309.3 578.2,1309.3 556.3,1287.7 			"/>
			<polygon class="st40" points="413.6,1287.7 349.1,1292.3 369.8,1308.4 349.1,1329.1 413.6,1325.7 			"/>
			<polygon class="st41" points="413.6,1309.3 391.7,1309.3 413.6,1287.7 			"/>
			<rect x="391.7" y="1309.3" class="st42" width="186.5" height="44"/>
		</g>
		<g>
			<polygon class="st40" points="-21.7,1240.7 42.8,1245.3 22.1,1261.4 42.8,1282.1 -21.7,1278.7 			"/>
			<polygon class="st41" points="-21.7,1262.3 0.2,1262.3 -21.7,1240.7 			"/>
			<polygon class="st40" points="-164.4,1240.7 -228.9,1245.3 -208.2,1261.4 -228.9,1282.1 -164.4,1278.7 			"/>
			<polygon class="st41" points="-164.4,1262.3 -186.3,1262.3 -164.4,1240.7 			"/>
			<rect x="-186.3" y="1262.3" class="st42" width="186.5" height="44"/>
		</g>
	</g>
</g>
<g>
	<rect x="-375.2" y="1510.7" class="st43" width="600.8" height="65.9"/>
	<g>
		
			<radialGradient id="SVGID_6_" cx="-372.2592" cy="1527.0649" r="58.9448" fx="-351.1655" fy="1486.4893" gradientTransform="matrix(1 0 0 0.9311 0 105.275)" gradientUnits="userSpaceOnUse">
			<stop  offset="0.1559" style="stop-color:#FFFFFF"/>
			<stop  offset="0.1622" style="stop-color:#FDFDFD"/>
			<stop  offset="0.2924" style="stop-color:#D3D3D3"/>
			<stop  offset="0.4252" style="stop-color:#B0B0B0"/>
			<stop  offset="0.5593" style="stop-color:#959595"/>
			<stop  offset="0.6952" style="stop-color:#828282"/>
			<stop  offset="0.834" style="stop-color:#777777"/>
			<stop  offset="0.9801" style="stop-color:#737373"/>
		</radialGradient>
		<path class="st44" d="M-386.3,1470c-2.2,0.7-23.4,5.6-35.3,26.6c-4.1,7.2-10.3,20.3-6.6,30.3c1.9,5.1,5.1,6.5,11.2,18.6
			c2,4,3.1,6.2,4.3,9.7c3.2,9.2,1.6,11.7,4.6,15.1c4.3,4.9,12.2,5.3,14,5.4c5.1,0.2,6.6-1.4,9.6-0.2c4.5,1.9,6.8,8.1,9.7,11.5
			c9.5,1.9,31-6.7,41.5-10.6c2.8-6.1-0.7-9.7,3.3-16.2c4.7-7.5,11.7-6.3,14.1-12.6c2-5.2-2.2-8-4.1-18c-2.1-11,1.7-14.2,1-23.7
			c-1.1-15.1-12.2-25.8-13.9-27.4C-352.4,1459.9-382.9,1469-386.3,1470z"/>
		<path class="st17" d="M-398.7,1530.9c8.6-2.8,16.2,3.3,20.7,4.7c0.8,0.2,2.4,0.5,3.3,1.8c1.8,2.7-0.8,7.9-3.6,10.7
			c-0.4,0.4-6.1,6.1-13.9,4.2c-1.6-0.4-6.6-1.9-9-6.9C-403.3,1540.9-404,1532.6-398.7,1530.9z"/>
		<path class="st17" d="M-343.2,1514c-8.7,2.5-11.6,11.8-14.6,15.5c-0.5,0.6-1.8,1.7-1.8,3.3c0,3.2,5.1,6.1,9,6.9
			c0.5,0.1,8.5,1.6,13.9-4.2c1.1-1.2,4.4-5.3,3.6-10.7C-333.9,1519.7-337.9,1512.5-343.2,1514z"/>
		<path class="st17" d="M-357.9,1567.4c-3.7,1.1-5.6,4.7-8.4,4c0,0-0.8-0.2-1.6-0.9c-4.5-3.7-4.8-26.1,2.4-28.3
			c7.6-2.3,21.4,19.2,18.2,23.4C-348.9,1567.4-354.1,1566.2-357.9,1567.4z"/>
		<path class="st45" d="M-385.1,1586.7c0,0,3.4-2.4,7.3,6c4,8.4,5.5,13.5,13.8,13.7c8.3,0.2,14.6-1.7,19.7-3.3c5-1.5,19-7.9,19.1-12
			c0.1-2.6-2.8-22.6,2.3-24.1c0,0,8,30.6,7.1,32.3c-0.9,1.6-19.7,18.5-25.7,20.3c-6.1,1.8-28.5,0.4-31-3S-381.9,1594.7-385.1,1586.7
			z"/>
	</g>
	<g>
		
			<radialGradient id="SVGID_7_" cx="207.2702" cy="1527.0649" r="59.6477" fx="201.4531" fy="1481.1556" gradientTransform="matrix(0.7328 0.6804 -0.6335 0.6823 1034.1166 348.5746)" gradientUnits="userSpaceOnUse">
			<stop  offset="0.1387" style="stop-color:#FFFFFF"/>
			<stop  offset="0.1451" style="stop-color:#FDFDFD"/>
			<stop  offset="0.278" style="stop-color:#D3D3D3"/>
			<stop  offset="0.4136" style="stop-color:#B0B0B0"/>
			<stop  offset="0.5505" style="stop-color:#959595"/>
			<stop  offset="0.6893" style="stop-color:#828282"/>
			<stop  offset="0.8309" style="stop-color:#777777"/>
			<stop  offset="0.9801" style="stop-color:#737373"/>
		</radialGradient>
		<path class="st46" d="M247.1,1480.1c-2.1-1-20.9-11.8-44-4.5c-7.9,2.5-21.4,7.8-25.4,17.7c-2,5-0.7,8.3-4.5,21.3
			c-1.2,4.3-1.9,6.7-3.4,10.1c-3.9,8.9-6.8,9.6-6.9,14.2c-0.2,6.6,5.4,12.2,6.6,13.5c3.6,3.6,5.8,3.4,7.1,6.4c2,4.4-0.6,10.5-0.7,15
			c5.7,7.9,27.3,16.2,37.7,20.5c6.2-2.5,6.1-7.6,13.4-9.6c8.5-2.3,12.9,3.4,18.9,0.4c5-2.5,3.8-7.4,9.2-16c6-9.5,11-9.3,16.9-16.7
			c9.5-11.8,8.7-27.2,8.5-29.6C278.8,1495.8,250.3,1481.6,247.1,1480.1z"/>
		<path class="st17" d="M196.6,1516.4c8.2,3.8,9.6,13.4,12,17.5c0.4,0.7,1.5,2,1.2,3.5c-0.5,3.2-5.9,5.2-10,5.4
			c-0.5,0-8.6,0.3-13-6.3c-0.9-1.4-3.6-5.9-1.9-11.2C186.4,1520.5,191.5,1514,196.6,1516.4z"/>
		<path class="st17" d="M248.7,1541.7c-8.1-4.1-16.5,0.8-21.2,1.4c-0.8,0.1-2.5,0.1-3.5,1.2c-2.2,2.4-0.4,7.9,1.9,11.2
			c0.3,0.4,5.1,7,13,6.3c1.6-0.1,6.9-0.9,10-5.4C251.7,1552.2,253.7,1544.2,248.7,1541.7z"/>
		<path class="st17" d="M201.6,1570.8c-3.4-1.7-7.3-0.4-8.9-2.8c0,0-0.5-0.7-0.6-1.8c-0.8-5.8,14.3-22.4,21-19.1
			c7.1,3.5,2.7,28.6-2.6,29.5C208.2,1577,205.2,1572.5,201.6,1570.8z"/>
		<path class="st45" d="M168.6,1566.5c0,0,4.1,0.5,1.3,9.4c-2.8,8.9-5.1,13.6,0.8,19.4c6,5.8,11.9,8.7,16.6,11
			c4.7,2.3,19.2,7.1,22.1,4.2c1.8-1.9,13.3-18.4,18.1-16.1c0,0-15,27.9-16.8,28.5c-1.8,0.6-27,0.2-32.7-2.6
			c-5.7-2.8-21.2-19.1-20.7-23.3C158,1592.8,165.4,1574.5,168.6,1566.5z"/>
	</g>
</g>
<g>
	<text transform="matrix(1 0 0 1 -28.5087 886.0091)" style="font-family:'MyriadPro-Regular'; font-size:26px;">5*8</text>
	<text transform="matrix(1 0 0 1 465.323 812.2566)" style="font-family:'MyriadPro-Regular'; font-size:26px;">13+4</text>
	<text transform="matrix(1 0 0 1 456.4925 1339.3765)" style="font-family:'MyriadPro-Regular'; font-size:26px;">20-54</text>
	<text transform="matrix(1 0 0 1 -117.7443 1291.3928)" style="font-family:'MyriadPro-Regular'; font-size:26px;">40/8</text>
	<text transform="matrix(1 0 0 1 -92.4436 1557.3184)" style="font-family:'MyriadPro-Regular'; font-size:52px;">5</text>
</g>
</svg>
