<?xml version="1.0" encoding="utf-8"?>
<!-- Generator: Adobe Illustrator 24.3.0, SVG Export Plug-In . SVG Version: 6.00 Build 0)  -->
<svg version="1.1" id="Layer_1" xmlns="http://www.w3.org/2000/svg" xmlns:xlink="http://www.w3.org/1999/xlink" x="0px" y="0px"
	 viewBox="0 0 529.4 175.8" style="enable-background:new 0 0 529.4 175.8;" xml:space="preserve">
<style type="text/css">
	.st0{fill:none;stroke:#171717;stroke-miterlimit:10;}
	.st1{fill:#383838;}
	.st2{fill:#E5E51E;}
	.st3{fill:#895623;}
	.st4{fill:none;stroke:#66401A;stroke-miterlimit:10;}
	.st5{fill:none;stroke:#66401A;stroke-width:1;stroke-miterlimit:9.9999;}
	.st6{fill:#895623;stroke:#66401A;stroke-miterlimit:10;}
	.st7{fill:url(#SVGID_1_);stroke:#66401A;stroke-miterlimit:10;}
	.st8{fill:#231F20;stroke:#171717;stroke-miterlimit:10;}
	.st9{fill:none;stroke:#171717;stroke-width:2;stroke-miterlimit:10;}
	.st10{fill:#8C6239;stroke:#171717;stroke-width:2;stroke-miterlimit:10;}
	.st11{fill:#4F3820;stroke:#171717;stroke-width:2;stroke-miterlimit:10;}
	.st12{fill:none;stroke:#4F3820;stroke-width:11;stroke-miterlimit:10;}
	.st13{fill:url(#SVGID_2_);stroke:#000000;stroke-miterlimit:10;}
	.st14{fill:none;stroke:#000000;stroke-width:2;stroke-miterlimit:10;}
	.st15{fill:#D2B48C;stroke:#000000;stroke-width:2;stroke-miterlimit:10;}
	.st16{stroke:#000000;stroke-width:2;stroke-miterlimit:10;}
	.st17{fill:#FFFFFF;stroke:#000000;stroke-miterlimit:10;}
	.st18{fill:#F40006;stroke:#000000;stroke-miterlimit:10;}
	.st19{fill:#F0F0F0;}
	.st20{fill:#757575;stroke:#000000;stroke-miterlimit:10;}
	.st21{fill:none;stroke:#000000;stroke-width:4;stroke-linecap:round;stroke-miterlimit:10;}
	.st22{fill:none;stroke:#000000;stroke-width:4;stroke-miterlimit:10;}
	.st23{fill:none;stroke:#020202;stroke-width:2;stroke-miterlimit:10;}
	.st24{fill:none;stroke:#000000;stroke-width:2;stroke-linecap:round;stroke-miterlimit:10;}
	.st25{fill:#363636;stroke:#171717;stroke-miterlimit:10;}
	.st26{fill:#DD3311;stroke:#000000;stroke-linecap:round;stroke-miterlimit:10;}
	.st27{fill:none;stroke:#000000;stroke-miterlimit:10;}
	.st28{fill:url(#SVGID_3_);stroke:#000000;stroke-miterlimit:10;}
	.st29{fill:#583002;stroke:#000000;stroke-miterlimit:10;}
	.st30{fill:#915002;stroke:#000000;stroke-width:2;stroke-miterlimit:10;}
	.st31{fill:#F98A05;stroke:#000000;stroke-width:2;stroke-miterlimit:10;}
	.st32{fill:url(#SVGID_4_);stroke:#000000;stroke-miterlimit:10;}
	.st33{fill:none;stroke:#8C6239;stroke-width:4;stroke-linecap:round;stroke-miterlimit:10;}
	.st34{fill:#7F8C94;stroke:#000000;stroke-miterlimit:10;}
	.st35{fill:#FFB800;stroke:#000000;stroke-miterlimit:10;}
	.st36{fill:#FFB800;stroke:#000000;stroke-width:2;stroke-miterlimit:10;}
	.st37{fill:#95B6CB;stroke:#000000;stroke-miterlimit:10;}
	.st38{fill:#ADEBF6;stroke:#000000;stroke-miterlimit:10;}
	.st39{fill:#FCE2A6;stroke:#000000;stroke-miterlimit:10;}
	.st40{fill:#FCE2A6;stroke:#000000;stroke-linejoin:round;stroke-miterlimit:10;}
	.st41{fill:#FCE2A6;stroke:#000000;stroke-linejoin:bevel;stroke-miterlimit:10;}
	.st42{fill:#FFFFFF;stroke:#000000;stroke-width:3;stroke-miterlimit:10;}
	.st43{fill:url(#SVGID_5_);stroke:#000000;stroke-miterlimit:10;}
	.st44{fill:#858585;stroke:#000000;stroke-miterlimit:10;}
	.st45{fill:url(#SVGID_6_);stroke:#000000;stroke-miterlimit:10;}
</style>
<g id="Layer_1_1_">
	<g>
		
			<image style="overflow:visible;enable-background:new    ;" width="1920" height="1080" xlink:href="../../1x/Artboard 1.png"  transform="matrix(1 0 0 1 -899.0588 407.5294)">
		</image>
	</g>
</g>
<g id="Layer_2_1_">
	<g>
		<path class="st0" d="M-738.6,929c-0.1-9.3-2.6-12.6-5-14c-5-2.9-10.5,2.4-19,1c-6.4-1.1-11-5.4-14-9"/>
		<path class="st1" d="M-747.6,940c-2-2.5-0.1-7.9,3-11c0.2-0.2,4.8-4.7,11-3c4.2,1.1,8.4,4.8,8,8
			C-726.4,939.9-743.9,944.6-747.6,940z"/>
		<polygon class="st2" points="-766.1,884.5 -774.1,903.5 -782.9,884.5 -780.1,904.5 -798.1,903.5 -781.6,908.9 -797.1,919.5 
			-779.1,913.5 -782.1,927.8 -776.1,915.5 -767.4,929.2 -771.1,912.5 -756,916.7 -767.4,909.4 -753.1,900.5 -771.1,905.5 		"/>
	</g>
	<g>
		<g>
			<rect x="-682.6" y="949.5" class="st3" width="7.4" height="33"/>
			<rect x="-682.6" y="949.5" class="st4" width="7.4" height="33"/>
		</g>
		<g>
			
				<rect x="-677.4" y="969.9" transform="matrix(0.7071 -0.7071 0.7071 0.7071 -882.0262 -182.1483)" class="st3" width="33" height="7.4"/>
			
				<rect x="-677.4" y="969.9" transform="matrix(0.7071 -0.7071 0.7071 0.7071 -882.0262 -182.1483)" class="st5" width="33" height="7.4"/>
		</g>
		<g>
			<rect x="-670.1" y="988" class="st3" width="33" height="7.4"/>
			<rect x="-670.1" y="988" class="st4" width="33" height="7.4"/>
		</g>
		<g>
			
				<rect x="-664.9" y="993.2" transform="matrix(0.7071 -0.7071 0.7071 0.7071 -907.6199 -171.7768)" class="st3" width="7.4" height="33"/>
			
				<rect x="-664.9" y="993.2" transform="matrix(0.7071 -0.7071 0.7071 0.7071 -907.6199 -171.7768)" class="st5" width="7.4" height="33"/>
		</g>
		<g>
			<rect x="-683" y="1000.5" class="st3" width="7.4" height="33"/>
			<rect x="-683" y="1000.5" class="st4" width="7.4" height="33"/>
		</g>
		<g>
			
				<rect x="-713.7" y="1005.7" transform="matrix(0.7071 -0.7071 0.7071 0.7071 -917.9913 -197.3705)" class="st3" width="33" height="7.4"/>
			
				<rect x="-713.7" y="1005.7" transform="matrix(0.7071 -0.7071 0.7071 0.7071 -917.9913 -197.3705)" class="st5" width="33" height="7.4"/>
		</g>
		<g>
			<rect x="-721.1" y="987.6" class="st3" width="33" height="7.4"/>
			<rect x="-721.1" y="987.6" class="st4" width="33" height="7.4"/>
		</g>
		<g>
			
				<rect x="-700.7" y="956.8" transform="matrix(0.7071 -0.7071 0.7071 0.7071 -892.3977 -207.742)" class="st3" width="7.4" height="33"/>
			
				<rect x="-700.7" y="956.8" transform="matrix(0.7071 -0.7071 0.7071 0.7071 -892.3977 -207.742)" class="st5" width="7.4" height="33"/>
		</g>
		<path class="st6" d="M-679.1,981.4c-5.6,0-10.1,4.5-10.1,10.1s4.5,10.1,10.1,10.1c5.6,0,10.1-4.5,10.1-10.1
			S-673.5,981.4-679.1,981.4z M-679.1,999.1c-4.2,0-7.6-3.4-7.6-7.6s3.4-7.6,7.6-7.6s7.6,3.4,7.6,7.6S-674.9,999.1-679.1,999.1z"/>
		<path class="st6" d="M-679.1,937.5c-29.8,0-54,24.2-54,54s24.2,54,54,54s54-24.2,54-54S-649.3,937.5-679.1,937.5z M-679.1,1032
			c-22.4,0-40.5-18.1-40.5-40.5s18.1-40.5,40.5-40.5c22.4,0,40.5,18.1,40.5,40.5S-656.7,1032-679.1,1032z"/>
	</g>
	
		<linearGradient id="SVGID_1_" gradientUnits="userSpaceOnUse" x1="-577.5588" y1="919.0294" x2="-577.5588" y2="919.0294" gradientTransform="matrix(1 0 0 -1 0 1895.0588)">
		<stop  offset="7.759906e-02" style="stop-color:#424242"/>
		<stop  offset="0.295" style="stop-color:#A1A1A1"/>
		<stop  offset="0.6107" style="stop-color:#000000"/>
	</linearGradient>
	<path class="st7" d="M-577.6,976"/>
	<path class="st8" d="M-577.6,976c-10-8-124.3,43.1-154,47c-1.7,0.2-4.1,0.4-7,0c-16.3-2.3-25.8-20.6-27-23c-9.4-18.7-6.9-45.7,8-58
		c6-5,13-6.6,27-10c15.6-3.7,14.4-0.6,27-4c3.6-1,32-6,37-7l2,1c2,2,4,3,4,3l5-5c0,0,3.5,0,4,0c14.8,0,59-12,59-12l-2-6
		c0,0,9.4-3.8,14-3c4,11,16,56,20,77c-2.6,2.4-14,5-14,5S-576.3,977.1-577.6,976z"/>
	<g>
		<g>
			<rect x="-725.6" y="966.5" class="st3" width="7.4" height="33"/>
			<rect x="-725.6" y="966.5" class="st4" width="7.4" height="33"/>
		</g>
		<g>
			
				<rect x="-720.4" y="986.9" transform="matrix(0.7071 -0.7071 0.7071 0.7071 -906.641 -207.5748)" class="st3" width="33" height="7.4"/>
			
				<rect x="-720.4" y="986.9" transform="matrix(0.7071 -0.7071 0.7071 0.7071 -906.641 -207.5748)" class="st5" width="33" height="7.4"/>
		</g>
		<g>
			<rect x="-713.1" y="1005" class="st3" width="33" height="7.4"/>
			<rect x="-713.1" y="1005" class="st4" width="33" height="7.4"/>
		</g>
		<g>
			
				<rect x="-707.9" y="1010.2" transform="matrix(0.7071 -0.7071 0.7071 0.7071 -932.2347 -197.2032)" class="st3" width="7.4" height="33"/>
			
				<rect x="-707.9" y="1010.2" transform="matrix(0.7071 -0.7071 0.7071 0.7071 -932.2347 -197.2032)" class="st5" width="7.4" height="33"/>
		</g>
		<g>
			<rect x="-726" y="1017.5" class="st3" width="7.4" height="33"/>
			<rect x="-726" y="1017.5" class="st4" width="7.4" height="33"/>
		</g>
		<g>
			
				<rect x="-756.7" y="1022.7" transform="matrix(0.7071 -0.7071 0.7071 0.7071 -942.6062 -222.7969)" class="st3" width="33" height="7.4"/>
			
				<rect x="-756.7" y="1022.7" transform="matrix(0.7071 -0.7071 0.7071 0.7071 -942.6062 -222.7969)" class="st5" width="33" height="7.4"/>
		</g>
		<g>
			<rect x="-764.1" y="1004.6" class="st3" width="33" height="7.4"/>
			<rect x="-764.1" y="1004.6" class="st4" width="33" height="7.4"/>
		</g>
		<g>
			
				<rect x="-743.7" y="973.8" transform="matrix(0.7071 -0.7071 0.7071 0.7071 -917.0126 -233.1685)" class="st3" width="7.4" height="33"/>
			
				<rect x="-743.7" y="973.8" transform="matrix(0.7071 -0.7071 0.7071 0.7071 -917.0126 -233.1685)" class="st5" width="7.4" height="33"/>
		</g>
		<path class="st6" d="M-722.1,998.4c-5.6,0-10.1,4.5-10.1,10.1s4.5,10.1,10.1,10.1c5.6,0,10.1-4.5,10.1-10.1
			S-716.5,998.4-722.1,998.4z M-722.1,1016.1c-4.2,0-7.6-3.4-7.6-7.6s3.4-7.6,7.6-7.6s7.6,3.4,7.6,7.6S-717.9,1016.1-722.1,1016.1z"
			/>
		<path class="st6" d="M-722.1,954.5c-29.8,0-54,24.2-54,54c0,29.8,24.2,54,54,54s54-24.2,54-54
			C-668.1,978.7-692.3,954.5-722.1,954.5z M-722.1,1049c-22.4,0-40.5-18.1-40.5-40.5s18.1-40.5,40.5-40.5
			c22.4,0,40.5,18.1,40.5,40.5S-699.7,1049-722.1,1049z"/>
	</g>
</g>
<g id="Layer_3">
	<g>
		<path class="st9" d="M618.9,751.5"/>
		<path class="st10" d="M671.9,615.5c0,0,20,52-2,85h-103c-20-38,2-85,2-85"/>
		<ellipse class="st11" cx="620.4" cy="615.5" rx="51.5" ry="9"/>
		<path class="st12" d="M559.9,649.5c30.1,7.4,71.3,12.4,119.5,1.2"/>
		
			<linearGradient id="SVGID_2_" gradientUnits="userSpaceOnUse" x1="606.8748" y1="1271.0944" x2="619.2852" y2="1162.0789" gradientTransform="matrix(1.2918 0.1071 0.1039 -1.2542 -301.5822 2182.4873)">
			<stop  offset="0.3137" style="stop-color:#056C94"/>
			<stop  offset="0.4038" style="stop-color:#0F7194;stop-opacity:0.7676"/>
			<stop  offset="0.5546" style="stop-color:#297E93;stop-opacity:0.3785"/>
			<stop  offset="0.7012" style="stop-color:#488D93;stop-opacity:0"/>
		</linearGradient>
		<path class="st13" d="M546.2,719.2c0,0,37.7-62.7-38.3-79.7c64-13,106.6,56.3,106.6,56.3s47.4-31.3-2.4-49.5
			c61.8-16.8,110.7,76.2,110.7,76.2"/>
		<line class="st14" x1="622.4" y1="624.5" x2="619.7" y2="577.7"/>
		<circle class="st15" cx="618.9" cy="548.5" r="33"/>
		<path class="st16" d="M604.9,542.5l15.1,1.9c0,0-1.9,8.1-9,6.1S604.9,542.5,604.9,542.5z"/>
		<polyline class="st14" points="591.1,530.8 604.9,542.5 651.9,548.5 		"/>
		<ellipse class="st17" cx="595.4" cy="545" rx="4" ry="6"/>
		<path class="st17" d="M593.4,562c0,0,16.1-6,19,0c3,6-11,9-11,9"/>
		<path class="st18" d="M653.2,527.2c0,0,5.2-24.2,21.2-19.2s16.7-0.7,16.7-0.7s-9.7,10.7-18.7,9.7s-10,8-10,8s20.5-2.2,22-6
			c2-5,0,9-3,11c-1.9,1.2-21,6-27,3S653.2,527.2,653.2,527.2z"/>
		<path class="st18" d="M649.1,529.8c0,0,2.3-6.8,5.3-2.8s3,9,3,9s-5,1.6-6.5-0.7"/>
		<path class="st18" d="M597.4,523c0,0,54,26,54.9,20.5C654.9,528.7,635.4,494.4,597.4,523z"/>
		<g>
			
				<rect x="550.6" y="577.7" transform="matrix(0.4076 -0.9132 0.9132 0.4076 -209.2958 854.7811)" class="st19" width="7" height="22"/>
			<path class="st20" d="M540.8,588c0,0-59.9-26.5-49.9-89.5c6,13,6,13,18,20c1,18,2,37,34,60c-2,9-2,9-2,9"/>
			<path class="st21" d="M546.4,575c-0.9,1.5-1.7,2.8-2.3,4.2c-8.2,18.3,0.6,20.7,4.8,22.3c5,2,11,3,18.5-15.5"/>
			<line class="st22" x1="566.4" y1="589.2" x2="543.7" y2="580"/>
			<line class="st22" x1="563.4" y1="597.2" x2="540.7" y2="588"/>
			<circle class="st23" cx="568.4" cy="595" r="3.5"/>
		</g>
		<path class="st24" d="M620.9,598.5c0,0-27.1-7-37.5-18.5s-29.2,8.7-29.2,8.7"/>
	</g>
	<g>
		<g>
			<path class="st25" d="M37.7,1080.6c-5.1,12.2,0.7,26.3,12.9,31.4c12.2,5.1,26.3-0.7,31.4-12.9c4-9.7,1.3-20.5-6.1-27.1
				c-1.9-1.7-4.2-3.2-6.8-4.3C56.8,1062.6,42.8,1068.4,37.7,1080.6z"/>
			<path class="st0" d="M71.5,1068.8c0,0,10.8-30.2,19.7-17.8s-14,11.3-17.1-1.3s20.4-16.9,20.4-16.9"/>
		</g>
		<path class="st9" d="M37.9,1231.5"/>
		<g>
			<path class="st26" d="M23.8,1109.4l-15.4,6.7l-30.2-58.6c1.7-0.7,3.4-1.5,5.1-2.2c0.9-0.4,1.9-0.8,2.8-1.2c2.5-1.1,5-2.2,7.5-3.2
				C3.6,1070.3,13.7,1089.8,23.8,1109.4z"/>
			<path class="st26" d="M-9.2,1029.7"/>
			<path class="st26" d="M-14.5,1045.6"/>
			<path class="st26" d="M-17.7,1044.5"/>
			<path class="st27" d="M-13.9,1054c0,0-15.9-1.5-8.1-12.5s0.5-12,0.5-12"/>
		</g>
		<g>
			<path class="st26" d="M14.2,1115.7l-16.8-2.7l12.3-63.8c1.8,0.3,3.7,0.6,5.5,0.9c1,0.2,2.1,0.3,3.1,0.5c2.7,0.4,5.4,0.9,8.1,1.3
				C22.4,1073.1,18.3,1094.4,14.2,1115.7z"/>
			<path class="st26" d="M37.5,1033.2"/>
			<path class="st26" d="M23.1,1043.4"/>
			<path class="st26" d="M21.2,1040.8"/>
			<path class="st27" d="M18.3,1050.5c0,0-12-9.7,1.3-14.5c13.3-4.8,8-9.5,8-9.5"/>
		</g>
		<g>
			<path class="st26" d="M19.6,1119.5l-15.2-7.1l31.9-57.8c1.7,0.8,3.3,1.6,5,2.3c0.9,0.4,1.9,0.9,2.8,1.3c2.5,1.1,4.9,2.3,7.4,3.4
				C40.8,1080.9,30.2,1100.2,19.6,1119.5z"/>
			<path class="st26" d="M67.9,1046.7"/>
			<path class="st26" d="M51,1052.6"/>
			<path class="st26" d="M49.9,1049.6"/>
			<path class="st27" d="M44.1,1058.2c0,0-8.4-12.5,5.8-13.5c14.2-1.1,10.7-7,10.7-7"/>
		</g>
		<path class="st10" d="M90.9,1095.5c0,0,20,52-2,85h-103c-20-38-3-66,2-85C23.9,1082.5,53.9,1083.5,90.9,1095.5z"/>
		<path class="st12" d="M-21.1,1129.5c30.1,7.4,71.3,12.4,119.5,1.2"/>
		
			<linearGradient id="SVGID_3_" gradientUnits="userSpaceOnUse" x1="190.7516" y1="852.8735" x2="203.162" y2="743.8582" gradientTransform="matrix(1.2918 0.1071 0.1039 -1.2542 -301.5822 2182.4873)">
			<stop  offset="0.3137" style="stop-color:#056C94"/>
			<stop  offset="0.4038" style="stop-color:#0F7194;stop-opacity:0.7676"/>
			<stop  offset="0.5546" style="stop-color:#297E93;stop-opacity:0.3785"/>
			<stop  offset="0.7012" style="stop-color:#488D93;stop-opacity:0"/>
		</linearGradient>
		<path class="st28" d="M-34.8,1199.2c0,0,37.7-62.7-38.3-79.7c64-13,106.6,56.3,106.6,56.3s47.4-31.3-2.4-49.5
			c61.8-16.8,110.7,76.2,110.7,76.2"/>
	</g>
	<g>
		<path class="st29" d="M627.4,1156L627.4,1156c-8.8,0-16-7.2-16-16V873c0-8.8,7.2-16,16-16l0,0c8.8,0,16,7.2,16,16v267
			C643.4,1148.8,636.2,1156,627.4,1156z"/>
		<path class="st29" d="M425.9,1047.5c0,0-93.5-19.5-119-41c3,41,117,62,117,62L425.9,1047.5z"/>
		<path class="st30" d="M413.9,1068.5l3-30c0,0,80,25,111,19c5,71,60,84,99,87c87,6,89.9-89.5,89.9-89.5s98.1,26.5,122.7,1.1
			c0.5,61.5-7.6,61.5-7.6,61.5h-25.1c0,0-5.6,107.9-27.7,125.9s-307.9,0-307.9,0s-78.3-53-66.3-126
			C409.9,1085.5,413.9,1068.5,413.9,1068.5"/>
		<path class="st24" d="M839.4,1056v-16.8c0,0-15.6,0.2-48.2-0.8c-1.2,0-2.3,0-3.3,0c-28.9,0.9-23.7,25.9-23.7,25.9"/>
		<line class="st14" x1="786.7" y1="1066.7" x2="787.9" y2="1038.5"/>
		<line class="st14" x1="774.7" y1="1066.5" x2="775.8" y2="1041.5"/>
		<line class="st14" x1="798.7" y1="1066.7" x2="799.9" y2="1038.5"/>
		<line class="st14" x1="810.7" y1="1066.7" x2="811.9" y2="1038.5"/>
		<line class="st14" x1="822.1" y1="1064.5" x2="823.9" y2="1038.5"/>
		<path class="st31" d="M408.9,1029.5c0,0,2,22.5,0,28.8c-2,6.3,104,17.2,104,17.2s3,71,95,79s104-37,104-37s12-33,16-46
			c14,2,86,15,111,5l0.6-23.9c0,0-50.6,17.9-126.6-8.1c0,0-10,67-35,76s-109,37-142-62c-2-5-2-7-4.2-11.8
			C502.9,1048.5,408.9,1029.5,408.9,1029.5z"/>
		<path class="st27" d="M407.5,1101.6c0,0,59.4,20.9,95.4,17.9"/>
		<path class="st27" d="M412.5,1173.6c0,0,35.9,28.4,176.9,35.4"/>
		<circle class="st29" cx="434.4" cy="1086" r="13.5"/>
		<circle class="st29" cx="478.9" cy="1092.5" r="12.5"/>
		<circle class="st29" cx="742.9" cy="1098.5" r="12.5"/>
		<circle class="st29" cx="779.9" cy="1099.5" r="13.5"/>
		<path class="st27" d="M801.7,1170.6c0,0-67.3,18.4-136.3,6.4"/>
		
			<linearGradient id="SVGID_4_" gradientUnits="userSpaceOnUse" x1="601.3912" y1="653.4117" x2="601.3912" y2="602.8741" gradientTransform="matrix(1 0 0 -1 0 1895.0588)">
			<stop  offset="0.1944" style="stop-color:#056C94"/>
			<stop  offset="0.2639" style="stop-color:#1A7694;stop-opacity:0.8008"/>
			<stop  offset="0.3703" style="stop-color:#338393;stop-opacity:0.4962"/>
			<stop  offset="0.4667" style="stop-color:#438A93;stop-opacity:0.2202"/>
			<stop  offset="0.5436" style="stop-color:#488D93;stop-opacity:0"/>
		</linearGradient>
		<path class="st32" d="M378.9,1260.5c0,0,41-14,62-31c12,17,42.2,11,42.2,11s17.8-12,26.8-25c22,20,29,32,36,29s32-16,37-23
			c17,15,19,22,28,23s29-9,29-9s10,10,20,10s44-17,47-23c14,9,15.3,20.3,26.6,21.6c11.4,1.4,30.3-14.8,30.3-14.8s5,9.2,14,11.2
			s46,23,46,23"/>
		<g>
			<line class="st33" x1="565.9" y1="938.5" x2="700.9" y2="938.5"/>
			<path class="st16" d="M565.1,940.1c0,0-35.2,43.4-10.2,109.4h142c0,0-45-68.9,0-109.4C564.9,940.5,565.1,940.1,565.1,940.1z"/>
		</g>
		<g>
			<line class="st33" x1="597.1" y1="856.9" x2="665.9" y2="856.9"/>
			<path class="st16" d="M596.7,857.7c0,0-18,22.1-5.2,55.8h72.4c0,0-22.9-35.1,0-55.8C596.6,857.9,596.7,857.7,596.7,857.7z"/>
		</g>
		<polyline class="st14" points="839.5,1052.6 627.9,861.5 306.9,1006.5 		"/>
	</g>
	<g>
		<g>
			<polyline class="st34" points="431.2,150 497,150 500,150 500,156.8 431.2,156.8 			"/>
			<path class="st34" d="M501,150c0,0,21.4-33.9-1.4-33.9c-12.9,0-6.1,22.6-4.7,33.9"/>
			<path class="st35" d="M501.8,158.5h-7c-0.9,0-1.6-0.7-1.6-1.6v-7c0-0.9,0.7-1.6,1.6-1.6h7c0.9,0,1.6,0.7,1.6,1.6v7
				C503.4,157.8,502.7,158.5,501.8,158.5z"/>
		</g>
		<path class="st36" d="M412.1,117.9c0,0,33.2-49.6,73.6-51.3c13.5,10.1,3.4,47.2,0,64.1c-8.2,11-26.4,7.9-54.5,7.3"/>
		<path class="st36" d="M431.2,129.8v27H51.7c0,0,4-81.7,98.6-86C201.2,68.5,303,80.7,353,92.7C409.1,106.2,431.2,129.8,431.2,129.8
			z"/>
		<g>
			<path class="st37" d="M155.1,156.1c0-0.2,0-0.4,0-0.6c0-22-17.9-39.9-39.9-39.9s-39.9,17.9-39.9,39.9c0,0.2,0,0.4,0,0.6H155.1z"
				/>
			<path class="st38" d="M141.8,156.4c0-0.1,0-0.2,0-0.4c0-14.7-11.9-26.6-26.6-26.6S88.6,141.3,88.6,156c0,0.1,0,0.2,0,0.4H141.8z"
				/>
		</g>
		<g>
			<path class="st37" d="M244.8,156.1c0-0.2,0-0.4,0-0.6c0-22-17.9-39.9-39.9-39.9S165,133.5,165,155.5c0,0.2,0,0.4,0,0.6H244.8z"/>
			<path class="st38" d="M231.5,156.4c0-0.1,0-0.2,0-0.4c0-14.7-11.9-26.6-26.6-26.6s-26.6,11.9-26.6,26.6c0,0.1,0,0.2,0,0.4H231.5z
				"/>
		</g>
		<g>
			<path class="st37" d="M334.4,156.1c0-0.2,0-0.4,0-0.6c0-22-17.9-39.9-39.9-39.9s-39.9,17.9-39.9,39.9c0,0.2,0,0.4,0,0.6H334.4z"
				/>
			<path class="st38" d="M321.1,156.4c0-0.1,0-0.2,0-0.4c0-14.7-11.9-26.6-26.6-26.6s-26.6,11.9-26.6,26.6c0,0.1,0,0.2,0,0.4H321.1z
				"/>
		</g>
		<line class="st14" x1="361.6" y1="94.4" x2="361.6" y2="156.8"/>
		<circle class="st27" cx="350" cy="106.2" r="3.4"/>
		<circle class="st27" cx="350" cy="126.4" r="3.4"/>
		<circle class="st27" cx="350" cy="146.7" r="3.4"/>
		<circle class="st27" cx="370.3" cy="118" r="3.4"/>
		<circle class="st27" cx="370.3" cy="138.2" r="3.4"/>
	</g>
	<g>
		<g>
			<polygon class="st39" points="242.5,33.8 307,38.4 286.3,54.5 307,75.2 242.5,71.8 			"/>
			<polygon class="st40" points="242.5,55.4 264.4,55.4 242.5,33.8 			"/>
			<polygon class="st39" points="99.8,33.8 35.3,38.4 56,54.5 35.3,75.2 99.8,71.8 			"/>
			<polygon class="st40" points="99.8,55.4 77.9,55.4 99.8,33.8 			"/>
			<rect x="77.9" y="55.4" class="st41" width="186.5" height="44"/>
		</g>
		<g>
			<polygon class="st39" points="696.4,620.9 760.9,625.5 740.2,641.6 760.9,662.3 696.4,658.9 			"/>
			<polygon class="st40" points="696.4,642.5 718.3,642.5 696.4,620.9 			"/>
			<polygon class="st39" points="553.7,620.9 489.2,625.5 509.9,641.6 489.2,662.3 553.7,658.9 			"/>
			<polygon class="st40" points="553.7,642.5 531.8,642.5 553.7,620.9 			"/>
			<rect x="531.8" y="642.5" class="st41" width="186.5" height="44"/>
		</g>
		<g>
			<polygon class="st39" points="690.4,1147.9 754.9,1152.5 734.2,1168.6 754.9,1189.3 690.4,1185.9 			"/>
			<polygon class="st40" points="690.4,1169.5 712.3,1169.5 690.4,1147.9 			"/>
			<polygon class="st39" points="547.7,1147.9 483.2,1152.5 503.9,1168.6 483.2,1189.3 547.7,1185.9 			"/>
			<polygon class="st40" points="547.7,1169.5 525.8,1169.5 547.7,1147.9 			"/>
			<rect x="525.8" y="1169.5" class="st41" width="186.5" height="44"/>
		</g>
		<g>
			<polygon class="st39" points="112.4,1100.9 176.9,1105.5 156.2,1121.6 176.9,1142.3 112.4,1138.9 			"/>
			<polygon class="st40" points="112.4,1122.5 134.3,1122.5 112.4,1100.9 			"/>
			<polygon class="st39" points="-30.3,1100.9 -94.8,1105.5 -74.1,1121.6 -94.8,1142.3 -30.3,1138.9 			"/>
			<polygon class="st40" points="-30.3,1122.5 -52.2,1122.5 -30.3,1100.9 			"/>
			<rect x="-52.2" y="1122.5" class="st41" width="186.5" height="44"/>
		</g>
	</g>
</g>
<g>
	<rect x="-241" y="1370.9" class="st42" width="600.8" height="65.9"/>
	<g>
		
			<radialGradient id="SVGID_5_" cx="-238.1416" cy="1387.3003" r="58.9448" fx="-217.0479" fy="1346.7246" gradientTransform="matrix(1 0 0 0.9311 0 95.6397)" gradientUnits="userSpaceOnUse">
			<stop  offset="0.1559" style="stop-color:#FFFFFF"/>
			<stop  offset="0.1622" style="stop-color:#FDFDFD"/>
			<stop  offset="0.2924" style="stop-color:#D3D3D3"/>
			<stop  offset="0.4252" style="stop-color:#B0B0B0"/>
			<stop  offset="0.5593" style="stop-color:#959595"/>
			<stop  offset="0.6952" style="stop-color:#828282"/>
			<stop  offset="0.834" style="stop-color:#777777"/>
			<stop  offset="0.9801" style="stop-color:#737373"/>
		</radialGradient>
		<path class="st43" d="M-252.2,1330.2c-2.2,0.7-23.4,5.6-35.3,26.6c-4.1,7.2-10.3,20.3-6.6,30.3c1.9,5.1,5.1,6.5,11.2,18.6
			c2,4,3.1,6.2,4.3,9.7c3.2,9.2,1.6,11.7,4.6,15.1c4.3,4.9,12.2,5.3,14,5.4c5.1,0.2,6.6-1.4,9.6-0.2c4.5,1.9,6.8,8.1,9.7,11.5
			c9.5,1.9,31-6.7,41.5-10.6c2.8-6.1-0.7-9.7,3.3-16.2c4.7-7.5,11.7-6.3,14.1-12.6c2-5.2-2.2-8-4.1-18c-2.1-11,1.7-14.2,1-23.7
			c-1.1-15.1-12.2-25.8-13.9-27.4C-218.3,1320.1-248.8,1329.2-252.2,1330.2z"/>
		<path class="st17" d="M-264.5,1391.2c8.6-2.8,16.2,3.3,20.7,4.7c0.8,0.2,2.4,0.5,3.3,1.8c1.8,2.7-0.8,7.9-3.6,10.7
			c-0.4,0.4-6.1,6.1-13.9,4.2c-1.6-0.4-6.6-1.9-9-6.9C-269.2,1401.1-269.9,1392.9-264.5,1391.2z"/>
		<path class="st17" d="M-209.1,1374.3c-8.7,2.5-11.6,11.8-14.6,15.5c-0.5,0.6-1.8,1.7-1.8,3.3c0,3.2,5.1,6.1,9,6.9
			c0.5,0.1,8.5,1.6,13.9-4.2c1.1-1.2,4.4-5.3,3.6-10.7C-199.7,1379.9-203.8,1372.7-209.1,1374.3z"/>
		<path class="st17" d="M-223.8,1427.6c-3.7,1.1-5.6,4.7-8.4,4c0,0-0.8-0.2-1.6-0.9c-4.5-3.7-4.8-26.1,2.4-28.3
			c7.6-2.3,21.4,19.2,18.2,23.4C-214.8,1427.7-220,1426.5-223.8,1427.6z"/>
		<path class="st44" d="M-251,1447c0,0,3.4-2.4,7.3,6c4,8.4,5.5,13.5,13.8,13.7c8.3,0.2,14.6-1.7,19.7-3.3c5-1.5,19-7.9,19.1-12
			c0.1-2.6-2.8-22.6,2.3-24.1c0,0,8,30.6,7.1,32.3c-0.9,1.6-19.7,18.5-25.7,20.3c-6.1,1.8-28.5,0.4-31-3
			C-240.8,1473.5-247.8,1455-251,1447z"/>
	</g>
	<g>
		
			<radialGradient id="SVGID_6_" cx="341.3878" cy="1387.3003" r="59.6477" fx="335.5707" fy="1341.391" gradientTransform="matrix(0.7328 0.6804 -0.6335 0.6823 981.407 212.9084)" gradientUnits="userSpaceOnUse">
			<stop  offset="0.1387" style="stop-color:#FFFFFF"/>
			<stop  offset="0.1451" style="stop-color:#FDFDFD"/>
			<stop  offset="0.278" style="stop-color:#D3D3D3"/>
			<stop  offset="0.4136" style="stop-color:#B0B0B0"/>
			<stop  offset="0.5505" style="stop-color:#959595"/>
			<stop  offset="0.6893" style="stop-color:#828282"/>
			<stop  offset="0.8309" style="stop-color:#777777"/>
			<stop  offset="0.9801" style="stop-color:#737373"/>
		</radialGradient>
		<path class="st45" d="M381.2,1340.4c-2.1-1-20.9-11.8-44-4.5c-7.9,2.5-21.4,7.8-25.4,17.7c-2,5-0.7,8.3-4.5,21.3
			c-1.2,4.3-1.9,6.7-3.4,10.1c-3.9,8.9-6.8,9.6-6.9,14.2c-0.2,6.6,5.4,12.2,6.6,13.5c3.6,3.6,5.8,3.4,7.1,6.4c2,4.4-0.6,10.5-0.7,15
			c5.7,7.9,27.3,16.2,37.7,20.5c6.2-2.5,6.1-7.6,13.4-9.6c8.5-2.3,12.9,3.4,18.9,0.4c5-2.5,3.8-7.4,9.2-16c6-9.5,11-9.3,16.9-16.7
			c9.5-11.8,8.7-27.2,8.5-29.6C412.9,1356.1,384.4,1341.9,381.2,1340.4z"/>
		<path class="st17" d="M330.7,1376.6c8.2,3.8,9.6,13.4,12,17.5c0.4,0.7,1.5,2,1.2,3.5c-0.5,3.2-5.9,5.2-10,5.4
			c-0.5,0-8.6,0.3-13-6.3c-0.9-1.4-3.6-5.9-1.9-11.2C320.5,1380.7,325.6,1374.2,330.7,1376.6z"/>
		<path class="st17" d="M382.8,1401.9c-8.1-4.1-16.5,0.8-21.2,1.4c-0.8,0.1-2.5,0.1-3.5,1.2c-2.2,2.4-0.4,7.9,1.9,11.2
			c0.3,0.4,5.1,7,13,6.3c1.6-0.1,6.9-0.9,10-5.4C385.8,1412.4,387.8,1404.4,382.8,1401.9z"/>
		<path class="st17" d="M335.7,1431.1c-3.4-1.7-7.3-0.4-8.9-2.8c0,0-0.5-0.7-0.6-1.8c-0.8-5.8,14.3-22.4,21-19.1
			c7.1,3.5,2.7,28.6-2.6,29.5C342.3,1437.2,339.3,1432.8,335.7,1431.1z"/>
		<path class="st44" d="M302.7,1426.7c0,0,4.1,0.5,1.3,9.4c-2.8,8.9-5.1,13.6,0.8,19.4c6,5.8,11.9,8.7,16.6,11
			c4.7,2.3,19.2,7.1,22.1,4.2c1.8-1.9,13.3-18.4,18.1-16.1c0,0-15,27.9-16.8,28.5c-1.8,0.6-27,0.2-32.7-2.6s-21.2-19.1-20.7-23.3
			C292.1,1453.1,299.5,1434.7,302.7,1426.7z"/>
	</g>
</g>
<g>
	<text transform="matrix(1 0 0 1 105.6089 746.2444)" style="font-family:'MyriadPro-Regular'; font-size:26px;">5*8</text>
	<text transform="matrix(1 0 0 1 599.4407 672.4919)" style="font-family:'MyriadPro-Regular'; font-size:26px;">13+4</text>
	<text transform="matrix(1 0 0 1 590.6101 1199.6117)" style="font-family:'MyriadPro-Regular'; font-size:26px;">20-54</text>
	<text transform="matrix(1 0 0 1 16.3733 1151.6282)" style="font-family:'MyriadPro-Regular'; font-size:26px;">40/8</text>
	<text transform="matrix(1 0 0 1 41.674 1417.5536)" style="font-family:'MyriadPro-Regular'; font-size:52px;">5</text>
</g>
</svg>
