<?xml version="1.0" encoding="utf-8"?>
<!-- Generator: Adobe Illustrator 24.3.0, SVG Export Plug-In . SVG Version: 6.00 Build 0)  -->
<svg version="1.1" id="Layer_1" xmlns="http://www.w3.org/2000/svg" xmlns:xlink="http://www.w3.org/1999/xlink" x="0px" y="0px"
	 viewBox="0 0 78.4 72" style="enable-background:new 0 0 78.4 72;" xml:space="preserve">
<style type="text/css">
	.st0{fill:none;stroke:#171717;stroke-miterlimit:10;}
	.st1{fill:#383838;}
	.st2{fill:#E5E51E;}
	.st3{fill:#895623;}
	.st4{fill:none;stroke:#66401A;stroke-miterlimit:10;}
	.st5{fill:none;stroke:#66401A;stroke-width:1;stroke-miterlimit:9.9999;}
	.st6{fill:#895623;stroke:#66401A;stroke-miterlimit:10;}
	.st7{fill:url(#SVGID_1_);stroke:#66401A;stroke-miterlimit:10;}
	.st8{fill:#231F20;stroke:#171717;stroke-miterlimit:10;}
	.st9{fill:none;stroke:#171717;stroke-width:2;stroke-miterlimit:10;}
	.st10{fill:#8C6239;stroke:#171717;stroke-width:2;stroke-miterlimit:10;}
	.st11{fill:#4F3820;stroke:#171717;stroke-width:2;stroke-miterlimit:10;}
	.st12{fill:none;stroke:#4F3820;stroke-width:11;stroke-miterlimit:10;}
	.st13{fill:url(#SVGID_2_);stroke:#000000;stroke-miterlimit:10;}
	.st14{fill:none;stroke:#000000;stroke-width:2;stroke-miterlimit:10;}
	.st15{fill:#D2B48C;stroke:#000000;stroke-width:2;stroke-miterlimit:10;}
	.st16{stroke:#000000;stroke-width:2;stroke-miterlimit:10;}
	.st17{fill:#FFFFFF;stroke:#000000;stroke-miterlimit:10;}
	.st18{fill:#F40006;stroke:#000000;stroke-miterlimit:10;}
	.st19{fill:#F0F0F0;}
	.st20{fill:#757575;stroke:#000000;stroke-miterlimit:10;}
	.st21{fill:none;stroke:#000000;stroke-width:4;stroke-linecap:round;stroke-miterlimit:10;}
	.st22{fill:none;stroke:#000000;stroke-width:4;stroke-miterlimit:10;}
	.st23{fill:none;stroke:#020202;stroke-width:2;stroke-miterlimit:10;}
	.st24{fill:none;stroke:#000000;stroke-width:2;stroke-linecap:round;stroke-miterlimit:10;}
	.st25{fill:#363636;stroke:#171717;stroke-miterlimit:10;}
	.st26{fill:#DD3311;stroke:#000000;stroke-linecap:round;stroke-miterlimit:10;}
	.st27{fill:none;stroke:#000000;stroke-miterlimit:10;}
	.st28{fill:url(#SVGID_3_);stroke:#000000;stroke-miterlimit:10;}
	.st29{fill:#583002;stroke:#000000;stroke-miterlimit:10;}
	.st30{fill:#915002;stroke:#000000;stroke-width:2;stroke-miterlimit:10;}
	.st31{fill:#F98A05;stroke:#000000;stroke-width:2;stroke-miterlimit:10;}
	.st32{fill:url(#SVGID_4_);stroke:#000000;stroke-miterlimit:10;}
	.st33{fill:none;stroke:#8C6239;stroke-width:4;stroke-linecap:round;stroke-miterlimit:10;}
	.st34{fill:#7F8C94;stroke:#000000;stroke-miterlimit:10;}
	.st35{fill:#FFB800;stroke:#000000;stroke-miterlimit:10;}
	.st36{fill:#FFB800;stroke:#000000;stroke-width:2;stroke-miterlimit:10;}
	.st37{fill:#95B6CB;stroke:#000000;stroke-miterlimit:10;}
	.st38{fill:#ADEBF6;stroke:#000000;stroke-miterlimit:10;}
	.st39{fill:#FCE2A6;stroke:#000000;stroke-miterlimit:10;}
	.st40{fill:#FCE2A6;stroke:#000000;stroke-linejoin:round;stroke-miterlimit:10;}
	.st41{fill:#FCE2A6;stroke:#000000;stroke-linejoin:bevel;stroke-miterlimit:10;}
	.st42{fill:#FFFFFF;stroke:#000000;stroke-width:3;stroke-miterlimit:10;}
	.st43{fill:url(#SVGID_5_);stroke:#000000;stroke-miterlimit:10;}
	.st44{fill:#858585;stroke:#000000;stroke-miterlimit:10;}
	.st45{fill:url(#SVGID_6_);stroke:#000000;stroke-miterlimit:10;}
	.st46{fill:url(#SVGID_7_);stroke:#000000;stroke-miterlimit:10;}
	.st47{fill:url(#SVGID_8_);stroke:#000000;stroke-miterlimit:10;}
	.st48{fill:#B4003D;}
	.st49{opacity:0.31;fill:#70003D;}
</style>
<g id="Layer_1_1_">
	<g>
		
			<image style="overflow:visible;enable-background:new    ;" width="1920" height="1080" xlink:href="../../1x/Artboard 1.png"  transform="matrix(1 0 0 1 -97.1765 143.5294)">
		</image>
	</g>
</g>
<g id="Layer_2_1_">
	<g>
		<path class="st0" d="M63.3,665c-0.1-9.3-2.6-12.6-5-14c-5-2.9-10.5,2.4-19,1c-6.4-1.1-11-5.4-14-9"/>
		<path class="st1" d="M54.3,676c-2-2.5-0.1-7.9,3-11c0.2-0.2,4.8-4.7,11-3c4.2,1.1,8.4,4.8,8,8C75.5,675.9,58,680.6,54.3,676z"/>
		<polygon class="st2" points="35.8,620.5 27.8,639.5 19,620.5 21.8,640.5 3.8,639.5 20.3,644.9 4.8,655.5 22.8,649.5 19.8,663.8 
			25.8,651.5 34.5,665.2 30.8,648.5 45.9,652.7 34.5,645.4 48.8,636.5 30.8,641.5 		"/>
	</g>
	<g>
		<g>
			<rect x="119.3" y="685.5" class="st3" width="7.4" height="33"/>
			<rect x="119.3" y="685.5" class="st4" width="7.4" height="33"/>
		</g>
		<g>
			
				<rect x="124.5" y="705.9" transform="matrix(0.7071 -0.7071 0.7071 0.7071 -460.4841 307.5443)" class="st3" width="33" height="7.4"/>
			
				<rect x="124.5" y="705.9" transform="matrix(0.7071 -0.7071 0.7071 0.7071 -460.4841 307.5443)" class="st5" width="33" height="7.4"/>
		</g>
		<g>
			<rect x="131.8" y="724" class="st3" width="33" height="7.4"/>
			<rect x="131.8" y="724" class="st4" width="33" height="7.4"/>
		</g>
		<g>
			
				<rect x="137" y="729.2" transform="matrix(0.7071 -0.7071 0.7071 0.7071 -486.0778 317.9158)" class="st3" width="7.4" height="33"/>
			
				<rect x="137" y="729.2" transform="matrix(0.7071 -0.7071 0.7071 0.7071 -486.0778 317.9158)" class="st5" width="7.4" height="33"/>
		</g>
		<g>
			<rect x="118.9" y="736.5" class="st3" width="7.4" height="33"/>
			<rect x="118.9" y="736.5" class="st4" width="7.4" height="33"/>
		</g>
		<g>
			
				<rect x="88.1" y="741.7" transform="matrix(0.7071 -0.7071 0.7071 0.7071 -496.4492 292.3221)" class="st3" width="33" height="7.4"/>
			
				<rect x="88.1" y="741.7" transform="matrix(0.7071 -0.7071 0.7071 0.7071 -496.4492 292.3221)" class="st5" width="33" height="7.4"/>
		</g>
		<g>
			<rect x="80.8" y="723.6" class="st3" width="33" height="7.4"/>
			<rect x="80.8" y="723.6" class="st4" width="33" height="7.4"/>
		</g>
		<g>
			
				<rect x="101.2" y="692.8" transform="matrix(0.7071 -0.7071 0.7071 0.7071 -470.8556 281.9506)" class="st3" width="7.4" height="33"/>
			
				<rect x="101.2" y="692.8" transform="matrix(0.7071 -0.7071 0.7071 0.7071 -470.8556 281.9506)" class="st5" width="7.4" height="33"/>
		</g>
		<path class="st6" d="M122.8,717.4c-5.6,0-10.1,4.5-10.1,10.1s4.5,10.1,10.1,10.1s10.1-4.5,10.1-10.1S128.4,717.4,122.8,717.4z
			 M122.8,735.1c-4.2,0-7.6-3.4-7.6-7.6s3.4-7.6,7.6-7.6s7.6,3.4,7.6,7.6S127,735.1,122.8,735.1z"/>
		<path class="st6" d="M122.8,673.5c-29.8,0-54,24.2-54,54s24.2,54,54,54s54-24.2,54-54S152.6,673.5,122.8,673.5z M122.8,768
			c-22.4,0-40.5-18.1-40.5-40.5s18.1-40.5,40.5-40.5s40.5,18.1,40.5,40.5S145.2,768,122.8,768z"/>
	</g>
	
		<linearGradient id="SVGID_1_" gradientUnits="userSpaceOnUse" x1="224.3235" y1="655.0294" x2="224.3235" y2="655.0294" gradientTransform="matrix(1 0 0 -1 0 1367.0588)">
		<stop  offset="7.759906e-02" style="stop-color:#424242"/>
		<stop  offset="0.295" style="stop-color:#A1A1A1"/>
		<stop  offset="0.6107" style="stop-color:#000000"/>
	</linearGradient>
	<path class="st7" d="M224.3,712"/>
	<path class="st8" d="M224.3,712c-10-8-124.3,43.1-154,47c-1.7,0.2-4.1,0.4-7,0c-16.3-2.3-25.8-20.6-27-23c-9.4-18.7-6.9-45.7,8-58
		c6-5,13-6.6,27-10c15.6-3.7,14.4-0.6,27-4c3.6-1,32-6,37-7l2,1c2,2,4,3,4,3l5-5c0,0,3.5,0,4,0c14.8,0,59-12,59-12l-2-6
		c0,0,9.4-3.8,14-3c4,11,16,56,20,77c-2.6,2.4-14,5-14,5S225.6,713.1,224.3,712z"/>
	<g>
		<g>
			<rect x="76.3" y="702.5" class="st3" width="7.4" height="33"/>
			<rect x="76.3" y="702.5" class="st4" width="7.4" height="33"/>
		</g>
		<g>
			
				<rect x="81.5" y="722.9" transform="matrix(0.7071 -0.7071 0.7071 0.7071 -485.0989 282.1179)" class="st3" width="33" height="7.4"/>
			
				<rect x="81.5" y="722.9" transform="matrix(0.7071 -0.7071 0.7071 0.7071 -485.0989 282.1179)" class="st5" width="33" height="7.4"/>
		</g>
		<g>
			<rect x="88.8" y="741" class="st3" width="33" height="7.4"/>
			<rect x="88.8" y="741" class="st4" width="33" height="7.4"/>
		</g>
		<g>
			
				<rect x="94" y="746.2" transform="matrix(0.7071 -0.7071 0.7071 0.7071 -510.6926 292.4894)" class="st3" width="7.4" height="33"/>
			
				<rect x="94" y="746.2" transform="matrix(0.7071 -0.7071 0.7071 0.7071 -510.6926 292.4894)" class="st5" width="7.4" height="33"/>
		</g>
		<g>
			<rect x="75.9" y="753.5" class="st3" width="7.4" height="33"/>
			<rect x="75.9" y="753.5" class="st4" width="7.4" height="33"/>
		</g>
		<g>
			
				<rect x="45.1" y="758.7" transform="matrix(0.7071 -0.7071 0.7071 0.7071 -521.0641 266.8958)" class="st3" width="33" height="7.4"/>
			
				<rect x="45.1" y="758.7" transform="matrix(0.7071 -0.7071 0.7071 0.7071 -521.0641 266.8958)" class="st5" width="33" height="7.4"/>
		</g>
		<g>
			<rect x="37.8" y="740.6" class="st3" width="33" height="7.4"/>
			<rect x="37.8" y="740.6" class="st4" width="33" height="7.4"/>
		</g>
		<g>
			
				<rect x="58.2" y="709.8" transform="matrix(0.7071 -0.7071 0.7071 0.7071 -495.4705 256.5241)" class="st3" width="7.4" height="33"/>
			
				<rect x="58.2" y="709.8" transform="matrix(0.7071 -0.7071 0.7071 0.7071 -495.4705 256.5241)" class="st5" width="7.4" height="33"/>
		</g>
		<path class="st6" d="M79.8,734.4c-5.6,0-10.1,4.5-10.1,10.1s4.5,10.1,10.1,10.1s10.1-4.5,10.1-10.1S85.4,734.4,79.8,734.4z
			 M79.8,752.1c-4.2,0-7.6-3.4-7.6-7.6s3.4-7.6,7.6-7.6s7.6,3.4,7.6,7.6S84,752.1,79.8,752.1z"/>
		<path class="st6" d="M79.8,690.5c-29.8,0-54,24.2-54,54s24.2,54,54,54s54-24.2,54-54S109.6,690.5,79.8,690.5z M79.8,785
			c-22.4,0-40.5-18.1-40.5-40.5S57.4,704,79.8,704s40.5,18.1,40.5,40.5S102.2,785,79.8,785z"/>
	</g>
</g>
<g id="Layer_3">
	<g>
		<path class="st9" d="M1420.8,487.5"/>
		<path class="st10" d="M1473.8,351.5c0,0,20,52-2,85h-103c-20-38,2-85,2-85"/>
		<ellipse class="st11" cx="1422.3" cy="351.5" rx="51.5" ry="9"/>
		<path class="st12" d="M1361.8,385.5c30.1,7.4,71.3,12.4,119.5,1.2"/>
		
			<linearGradient id="SVGID_2_" gradientUnits="userSpaceOnUse" x1="1408.7572" y1="1007.0943" x2="1421.1676" y2="898.0789" gradientTransform="matrix(1.2918 0.1071 0.1039 -1.2542 -508.1419 1501.4969)">
			<stop  offset="0.3137" style="stop-color:#056C94"/>
			<stop  offset="0.4038" style="stop-color:#0F7194;stop-opacity:0.7676"/>
			<stop  offset="0.5546" style="stop-color:#297E93;stop-opacity:0.3785"/>
			<stop  offset="0.7012" style="stop-color:#488D93;stop-opacity:0"/>
		</linearGradient>
		<path class="st13" d="M1348.1,455.2c0,0,37.7-62.7-38.3-79.7c64-13,106.6,56.3,106.6,56.3s47.4-31.3-2.4-49.5
			c61.8-16.8,110.7,76.2,110.7,76.2"/>
		<line class="st14" x1="1424.3" y1="360.5" x2="1421.6" y2="313.7"/>
		<circle class="st15" cx="1420.8" cy="284.5" r="33"/>
		<path class="st16" d="M1406.8,278.5l15.1,1.9c0,0-1.9,8.1-9,6.1S1406.8,278.5,1406.8,278.5z"/>
		<polyline class="st14" points="1393,266.8 1406.8,278.5 1453.8,284.5 		"/>
		<ellipse class="st17" cx="1397.3" cy="281" rx="4" ry="6"/>
		<path class="st17" d="M1395.3,298c0,0,16.1-6,19,0c3,6-11,9-11,9"/>
		<path class="st18" d="M1455.1,263.2c0,0,5.2-24.2,21.2-19.2s16.7-0.7,16.7-0.7s-9.7,10.7-18.7,9.7s-10,8-10,8s20.5-2.2,22-6
			c2-5,0,9-3,11c-1.9,1.2-21,6-27,3S1455.1,263.2,1455.1,263.2z"/>
		<path class="st18" d="M1451,265.8c0,0,2.3-6.8,5.3-2.8s3,9,3,9s-5,1.6-6.5-0.7"/>
		<path class="st18" d="M1399.3,259c0,0,54,26,54.9,20.5C1456.8,264.7,1437.3,230.4,1399.3,259z"/>
		<g>
			
				<rect x="1352.5" y="313.7" transform="matrix(0.4076 -0.9132 0.9132 0.4076 506.8272 1430.6362)" class="st19" width="7" height="22"/>
			<path class="st20" d="M1342.7,324c0,0-59.9-26.5-49.9-89.5c6,13,6,13,18,20c1,18,2,37,34,60c-2,9-2,9-2,9"/>
			<path class="st21" d="M1348.3,311c-0.9,1.5-1.7,2.8-2.3,4.2c-8.2,18.3,0.6,20.7,4.8,22.3c5,2,11,3,18.5-15.5"/>
			<line class="st22" x1="1368.3" y1="325.2" x2="1345.6" y2="316"/>
			<line class="st22" x1="1365.3" y1="333.2" x2="1342.6" y2="324"/>
			<circle class="st23" cx="1370.3" cy="331" r="3.5"/>
		</g>
		<path class="st24" d="M1422.8,334.5c0,0-27.1-7-37.5-18.5s-29.2,8.7-29.2,8.7"/>
	</g>
	<g>
		<g>
			<path class="st25" d="M839.6,816.6c-5.1,12.2,0.7,26.3,12.9,31.4s26.3-0.7,31.4-12.9c4-9.7,1.3-20.5-6.1-27.1
				c-1.9-1.7-4.2-3.2-6.8-4.3C858.7,798.6,844.7,804.4,839.6,816.6z"/>
			<path class="st0" d="M873.4,804.8c0,0,10.8-30.2,19.7-17.8s-14,11.3-17.1-1.3s20.4-16.9,20.4-16.9"/>
		</g>
		<path class="st9" d="M839.8,967.5"/>
		<g>
			<path class="st26" d="M825.7,845.4l-15.4,6.7l-30.2-58.6c1.7-0.7,3.4-1.5,5.1-2.2c0.9-0.4,1.9-0.8,2.8-1.2c2.5-1.1,5-2.2,7.5-3.2
				C805.5,806.3,815.6,825.8,825.7,845.4z"/>
			<path class="st26" d="M792.7,765.7"/>
			<path class="st26" d="M787.4,781.6"/>
			<path class="st26" d="M784.2,780.5"/>
			<path class="st27" d="M788,790c0,0-15.9-1.5-8.1-12.5s0.5-12,0.5-12"/>
		</g>
		<g>
			<path class="st26" d="M816.1,851.7l-16.8-2.7l12.3-63.8c1.8,0.3,3.7,0.6,5.5,0.9c1,0.2,2.1,0.3,3.1,0.5c2.7,0.4,5.4,0.9,8.1,1.3
				C824.3,809.1,820.2,830.4,816.1,851.7z"/>
			<path class="st26" d="M839.4,769.2"/>
			<path class="st26" d="M825,779.4"/>
			<path class="st26" d="M823.1,776.8"/>
			<path class="st27" d="M820.2,786.5c0,0-12-9.7,1.3-14.5s8-9.5,8-9.5"/>
		</g>
		<g>
			<path class="st26" d="M821.5,855.5l-15.2-7.1l31.9-57.8c1.7,0.8,3.3,1.6,5,2.3c0.9,0.4,1.9,0.9,2.8,1.3c2.5,1.1,4.9,2.3,7.4,3.4
				C842.7,816.9,832.1,836.2,821.5,855.5z"/>
			<path class="st26" d="M869.8,782.7"/>
			<path class="st26" d="M852.9,788.6"/>
			<path class="st26" d="M851.8,785.6"/>
			<path class="st27" d="M846,794.2c0,0-8.4-12.5,5.8-13.5c14.2-1.1,10.7-7,10.7-7"/>
		</g>
		<path class="st10" d="M892.8,831.5c0,0,20,52-2,85h-103c-20-38-3-66,2-85C825.8,818.5,855.8,819.5,892.8,831.5z"/>
		<path class="st12" d="M780.8,865.5c30.1,7.4,71.3,12.4,119.5,1.2"/>
		
			<linearGradient id="SVGID_3_" gradientUnits="userSpaceOnUse" x1="992.6339" y1="588.8735" x2="1005.0443" y2="479.8581" gradientTransform="matrix(1.2918 0.1071 0.1039 -1.2542 -508.1419 1501.4969)">
			<stop  offset="0.3137" style="stop-color:#056C94"/>
			<stop  offset="0.4038" style="stop-color:#0F7194;stop-opacity:0.7676"/>
			<stop  offset="0.5546" style="stop-color:#297E93;stop-opacity:0.3785"/>
			<stop  offset="0.7012" style="stop-color:#488D93;stop-opacity:0"/>
		</linearGradient>
		<path class="st28" d="M767.1,935.2c0,0,37.7-62.7-38.3-79.7c64-13,106.6,56.3,106.6,56.3s47.4-31.3-2.4-49.5
			c61.8-16.8,110.7,76.2,110.7,76.2"/>
	</g>
	<g>
		<path class="st29" d="M1429.3,892L1429.3,892c-8.8,0-16-7.2-16-16V609c0-8.8,7.2-16,16-16l0,0c8.8,0,16,7.2,16,16v267
			C1445.3,884.8,1438.1,892,1429.3,892z"/>
		<path class="st29" d="M1227.8,783.5c0,0-93.5-19.5-119-41c3,41,117,62,117,62L1227.8,783.5z"/>
		<path class="st30" d="M1215.8,804.5l3-30c0,0,80,25,111,19c5,71,60,84,99,87c87,6,89.9-89.5,89.9-89.5s98.1,26.5,122.7,1.1
			c0.5,61.5-7.6,61.5-7.6,61.5h-25.1c0,0-5.6,107.9-27.7,125.9s-307.9,0-307.9,0s-78.3-53-66.3-126
			C1211.8,821.5,1215.8,804.5,1215.8,804.5"/>
		<path class="st24" d="M1641.3,792v-16.8c0,0-15.6,0.2-48.2-0.8c-1.2,0-2.3,0-3.3,0c-28.9,0.9-23.7,25.9-23.7,25.9"/>
		<line class="st14" x1="1588.6" y1="802.7" x2="1589.8" y2="774.5"/>
		<line class="st14" x1="1576.6" y1="802.5" x2="1577.7" y2="777.5"/>
		<line class="st14" x1="1600.6" y1="802.7" x2="1601.8" y2="774.5"/>
		<line class="st14" x1="1612.6" y1="802.7" x2="1613.8" y2="774.5"/>
		<line class="st14" x1="1624" y1="800.5" x2="1625.8" y2="774.5"/>
		<path class="st31" d="M1210.8,765.5c0,0,2,22.5,0,28.8s104,17.2,104,17.2s3,71,95,79s104-37,104-37s12-33,16-46c14,2,86,15,111,5
			l0.6-23.9c0,0-50.6,17.9-126.6-8.1c0,0-10,67-35,76s-109,37-142-62c-2-5-2-7-4.2-11.8C1304.8,784.5,1210.8,765.5,1210.8,765.5z"/>
		<path class="st27" d="M1209.4,837.6c0,0,59.4,20.9,95.4,17.9"/>
		<path class="st27" d="M1214.4,909.6c0,0,35.9,28.4,176.9,35.4"/>
		<circle class="st29" cx="1236.3" cy="822" r="13.5"/>
		<circle class="st29" cx="1280.8" cy="828.5" r="12.5"/>
		<circle class="st29" cx="1544.8" cy="834.5" r="12.5"/>
		<circle class="st29" cx="1581.8" cy="835.5" r="13.5"/>
		<path class="st27" d="M1603.6,906.6c0,0-67.3,18.4-136.3,6.4"/>
		
			<linearGradient id="SVGID_4_" gradientUnits="userSpaceOnUse" x1="1403.2736" y1="389.4117" x2="1403.2736" y2="338.8741" gradientTransform="matrix(1 0 0 -1 0 1367.0588)">
			<stop  offset="0.1944" style="stop-color:#056C94"/>
			<stop  offset="0.2639" style="stop-color:#1A7694;stop-opacity:0.8008"/>
			<stop  offset="0.3703" style="stop-color:#338393;stop-opacity:0.4962"/>
			<stop  offset="0.4667" style="stop-color:#438A93;stop-opacity:0.2202"/>
			<stop  offset="0.5436" style="stop-color:#488D93;stop-opacity:0"/>
		</linearGradient>
		<path class="st32" d="M1180.8,996.5c0,0,41-14,62-31c12,17,42.2,11,42.2,11s17.8-12,26.8-25c22,20,29,32,36,29s32-16,37-23
			c17,15,19,22,28,23s29-9,29-9s10,10,20,10s44-17,47-23c14,9,15.3,20.3,26.6,21.6c11.4,1.4,30.3-14.8,30.3-14.8s5,9.2,14,11.2
			s46,23,46,23"/>
		<g>
			<line class="st33" x1="1367.8" y1="674.5" x2="1502.8" y2="674.5"/>
			<path class="st16" d="M1367,676.1c0,0-35.2,43.4-10.2,109.4h142c0,0-45-68.9,0-109.4C1366.8,676.5,1367,676.1,1367,676.1z"/>
		</g>
		<g>
			<line class="st33" x1="1399" y1="592.9" x2="1467.8" y2="592.9"/>
			<path class="st16" d="M1398.6,593.7c0,0-18,22.1-5.2,55.8h72.4c0,0-22.9-35.1,0-55.8C1398.5,593.9,1398.6,593.7,1398.6,593.7z"/>
		</g>
		<polyline class="st14" points="1641.4,788.6 1429.8,597.5 1108.8,742.5 		"/>
	</g>
	<g>
		<g>
			<polyline class="st34" points="1163.3,533.4 1229.1,533.4 1232.1,533.4 1232.1,540.2 1163.3,540.2 			"/>
			<path class="st34" d="M1233.1,533.4c0,0,21.4-33.9-1.4-33.9c-12.9,0-6.1,22.6-4.7,33.9"/>
			<path class="st35" d="M1233.9,541.9h-7c-0.9,0-1.6-0.7-1.6-1.6v-7c0-0.9,0.7-1.6,1.6-1.6h7c0.9,0,1.6,0.7,1.6,1.6v7
				C1235.5,541.2,1234.8,541.9,1233.9,541.9z"/>
		</g>
		<path class="st36" d="M1144.2,501.3c0,0,33.2-49.6,73.6-51.3c13.5,10.1,3.4,47.2,0,64.1c-8.2,11-26.4,7.9-54.5,7.3"/>
		<path class="st36" d="M1163.3,513.2v27H783.8c0,0,4-81.7,98.6-86c50.9-2.3,152.7,9.9,202.7,21.9
			C1141.2,489.6,1163.3,513.2,1163.3,513.2z"/>
		<g>
			<path class="st37" d="M887.2,539.5c0-0.2,0-0.4,0-0.6c0-22-17.9-39.9-39.9-39.9s-39.9,17.9-39.9,39.9c0,0.2,0,0.4,0,0.6H887.2z"
				/>
			<path class="st38" d="M873.9,539.8c0-0.1,0-0.2,0-0.4c0-14.7-11.9-26.6-26.6-26.6s-26.6,11.9-26.6,26.6c0,0.1,0,0.2,0,0.4H873.9z
				"/>
		</g>
		<g>
			<path class="st37" d="M976.9,539.5c0-0.2,0-0.4,0-0.6c0-22-17.9-39.9-39.9-39.9s-39.9,17.9-39.9,39.9c0,0.2,0,0.4,0,0.6H976.9z"
				/>
			<path class="st38" d="M963.6,539.8c0-0.1,0-0.2,0-0.4c0-14.7-11.9-26.6-26.6-26.6s-26.6,11.9-26.6,26.6c0,0.1,0,0.2,0,0.4H963.6z
				"/>
		</g>
		<g>
			<path class="st37" d="M1066.5,539.5c0-0.2,0-0.4,0-0.6c0-22-17.9-39.9-39.9-39.9c-22,0-39.9,17.9-39.9,39.9c0,0.2,0,0.4,0,0.6
				H1066.5z"/>
			<path class="st38" d="M1053.2,539.8c0-0.1,0-0.2,0-0.4c0-14.7-11.9-26.6-26.6-26.6c-14.7,0-26.6,11.9-26.6,26.6
				c0,0.1,0,0.2,0,0.4H1053.2z"/>
		</g>
		<line class="st14" x1="1093.7" y1="477.8" x2="1093.7" y2="540.2"/>
		<circle class="st27" cx="1082.1" cy="489.6" r="3.4"/>
		<circle class="st27" cx="1082.1" cy="509.8" r="3.4"/>
		<circle class="st27" cx="1082.1" cy="530.1" r="3.4"/>
		<circle class="st27" cx="1102.4" cy="501.4" r="3.4"/>
		<circle class="st27" cx="1102.4" cy="521.6" r="3.4"/>
	</g>
	<g>
		<g>
			<polygon class="st39" points="996.3,429.9 1060.8,434.5 1040.1,450.6 1060.8,471.3 996.3,467.9 			"/>
			<polygon class="st40" points="996.3,451.5 1018.2,451.5 996.3,429.9 			"/>
			<polygon class="st39" points="853.6,429.9 789.1,434.5 809.8,450.6 789.1,471.3 853.6,467.9 			"/>
			<polygon class="st40" points="853.6,451.5 831.7,451.5 853.6,429.9 			"/>
			<rect x="831.7" y="451.5" class="st41" width="186.5" height="44"/>
		</g>
		<g>
			<polygon class="st39" points="1498.3,356.9 1562.8,361.5 1542.1,377.6 1562.8,398.3 1498.3,394.9 			"/>
			<polygon class="st40" points="1498.3,378.5 1520.2,378.5 1498.3,356.9 			"/>
			<polygon class="st39" points="1355.6,356.9 1291.1,361.5 1311.8,377.6 1291.1,398.3 1355.6,394.9 			"/>
			<polygon class="st40" points="1355.6,378.5 1333.7,378.5 1355.6,356.9 			"/>
			<rect x="1333.7" y="378.5" class="st41" width="186.5" height="44"/>
		</g>
		<g>
			<polygon class="st39" points="1492.3,883.9 1556.8,888.5 1536.1,904.6 1556.8,925.3 1492.3,921.9 			"/>
			<polygon class="st40" points="1492.3,905.5 1514.2,905.5 1492.3,883.9 			"/>
			<polygon class="st39" points="1349.6,883.9 1285.1,888.5 1305.8,904.6 1285.1,925.3 1349.6,921.9 			"/>
			<polygon class="st40" points="1349.6,905.5 1327.7,905.5 1349.6,883.9 			"/>
			<rect x="1327.7" y="905.5" class="st41" width="186.5" height="44"/>
		</g>
		<g>
			<polygon class="st39" points="914.3,836.9 978.8,841.5 958.1,857.6 978.8,878.3 914.3,874.9 			"/>
			<polygon class="st40" points="914.3,858.5 936.2,858.5 914.3,836.9 			"/>
			<polygon class="st39" points="771.6,836.9 707.1,841.5 727.8,857.6 707.1,878.3 771.6,874.9 			"/>
			<polygon class="st40" points="771.6,858.5 749.7,858.5 771.6,836.9 			"/>
			<rect x="749.7" y="858.5" class="st41" width="186.5" height="44"/>
		</g>
	</g>
</g>
<g>
	<rect x="560.8" y="1106.9" class="st42" width="600.8" height="65.9"/>
	<g>
		
			<radialGradient id="SVGID_5_" cx="563.7408" cy="1123.3003" r="58.9448" fx="584.8345" fy="1082.7246" gradientTransform="matrix(1 0 0 0.9311 0 77.4397)" gradientUnits="userSpaceOnUse">
			<stop  offset="0.1559" style="stop-color:#FFFFFF"/>
			<stop  offset="0.1622" style="stop-color:#FDFDFD"/>
			<stop  offset="0.2924" style="stop-color:#D3D3D3"/>
			<stop  offset="0.4252" style="stop-color:#B0B0B0"/>
			<stop  offset="0.5593" style="stop-color:#959595"/>
			<stop  offset="0.6952" style="stop-color:#828282"/>
			<stop  offset="0.834" style="stop-color:#777777"/>
			<stop  offset="0.9801" style="stop-color:#737373"/>
		</radialGradient>
		<path class="st43" d="M549.7,1066.2c-2.2,0.7-23.4,5.6-35.3,26.6c-4.1,7.2-10.3,20.3-6.6,30.3c1.9,5.1,5.1,6.5,11.2,18.6
			c2,4,3.1,6.2,4.3,9.7c3.2,9.2,1.6,11.7,4.6,15.1c4.3,4.9,12.2,5.3,14,5.4c5.1,0.2,6.6-1.4,9.6-0.2c4.5,1.9,6.8,8.1,9.7,11.5
			c9.5,1.9,31-6.7,41.5-10.6c2.8-6.1-0.7-9.7,3.3-16.2c4.7-7.5,11.7-6.3,14.1-12.6c2-5.2-2.2-8-4.1-18c-2.1-11,1.7-14.2,1-23.7
			c-1.1-15.1-12.2-25.8-13.9-27.4C583.6,1056.1,553.1,1065.2,549.7,1066.2z"/>
		<path class="st17" d="M537.3,1127.2c8.6-2.8,16.2,3.3,20.7,4.7c0.8,0.2,2.4,0.5,3.3,1.8c1.8,2.7-0.8,7.9-3.6,10.7
			c-0.4,0.4-6.1,6.1-13.9,4.2c-1.6-0.4-6.6-1.9-9-6.9C532.7,1137.1,532,1128.9,537.3,1127.2z"/>
		<path class="st17" d="M592.8,1110.3c-8.7,2.5-11.6,11.8-14.6,15.5c-0.5,0.6-1.8,1.7-1.8,3.3c0,3.2,5.1,6.1,9,6.9
			c0.5,0.1,8.5,1.6,13.9-4.2c1.1-1.2,4.4-5.3,3.6-10.7C602.1,1115.9,598.1,1108.7,592.8,1110.3z"/>
		<path class="st17" d="M578.1,1163.6c-3.7,1.1-5.6,4.7-8.4,4c0,0-0.8-0.2-1.6-0.9c-4.5-3.7-4.8-26.1,2.4-28.3
			c7.6-2.3,21.4,19.2,18.2,23.4C587.1,1163.7,581.9,1162.5,578.1,1163.6z"/>
		<path class="st44" d="M550.9,1183c0,0,3.4-2.4,7.3,6c4,8.4,5.5,13.5,13.8,13.7c8.3,0.2,14.6-1.7,19.7-3.3s19-7.9,19.1-12
			c0.1-2.6-2.8-22.6,2.3-24.1c0,0,8,30.6,7.1,32.3c-0.9,1.6-19.7,18.5-25.7,20.3c-6.1,1.8-28.5,0.4-31-3
			C561.1,1209.5,554.1,1191,550.9,1183z"/>
	</g>
	<g>
		
			<radialGradient id="SVGID_6_" cx="1143.2701" cy="1123.3003" r="59.6477" fx="1137.453" fy="1077.391" gradientTransform="matrix(0.7328 0.6804 -0.6335 0.6823 1028.4183 -416.6087)" gradientUnits="userSpaceOnUse">
			<stop  offset="0.1387" style="stop-color:#FFFFFF"/>
			<stop  offset="0.1451" style="stop-color:#FDFDFD"/>
			<stop  offset="0.278" style="stop-color:#D3D3D3"/>
			<stop  offset="0.4136" style="stop-color:#B0B0B0"/>
			<stop  offset="0.5505" style="stop-color:#959595"/>
			<stop  offset="0.6893" style="stop-color:#828282"/>
			<stop  offset="0.8309" style="stop-color:#777777"/>
			<stop  offset="0.9801" style="stop-color:#737373"/>
		</radialGradient>
		<path class="st45" d="M1183.1,1076.4c-2.1-1-20.9-11.8-44-4.5c-7.9,2.5-21.4,7.8-25.4,17.7c-2,5-0.7,8.3-4.5,21.3
			c-1.2,4.3-1.9,6.7-3.4,10.1c-3.9,8.9-6.8,9.6-6.9,14.2c-0.2,6.6,5.4,12.2,6.6,13.5c3.6,3.6,5.8,3.4,7.1,6.4c2,4.4-0.6,10.5-0.7,15
			c5.7,7.9,27.3,16.2,37.7,20.5c6.2-2.5,6.1-7.6,13.4-9.6c8.5-2.3,12.9,3.4,18.9,0.4c5-2.5,3.8-7.4,9.2-16c6-9.5,11-9.3,16.9-16.7
			c9.5-11.8,8.7-27.2,8.5-29.6C1214.8,1092.1,1186.3,1077.9,1183.1,1076.4z"/>
		<path class="st17" d="M1132.6,1112.6c8.2,3.8,9.6,13.4,12,17.5c0.4,0.7,1.5,2,1.2,3.5c-0.5,3.2-5.9,5.2-10,5.4
			c-0.5,0-8.6,0.3-13-6.3c-0.9-1.4-3.6-5.9-1.9-11.2C1122.4,1116.7,1127.5,1110.2,1132.6,1112.6z"/>
		<path class="st17" d="M1184.7,1137.9c-8.1-4.1-16.5,0.8-21.2,1.4c-0.8,0.1-2.5,0.1-3.5,1.2c-2.2,2.4-0.4,7.9,1.9,11.2
			c0.3,0.4,5.1,7,13,6.3c1.6-0.1,6.9-0.9,10-5.4C1187.7,1148.4,1189.7,1140.4,1184.7,1137.9z"/>
		<path class="st17" d="M1137.6,1167.1c-3.4-1.7-7.3-0.4-8.9-2.8c0,0-0.5-0.7-0.6-1.8c-0.8-5.8,14.3-22.4,21-19.1
			c7.1,3.5,2.7,28.6-2.6,29.5C1144.2,1173.2,1141.2,1168.8,1137.6,1167.1z"/>
		<path class="st44" d="M1104.6,1162.7c0,0,4.1,0.5,1.3,9.4c-2.8,8.9-5.1,13.6,0.8,19.4s11.9,8.7,16.6,11s19.2,7.1,22.1,4.2
			c1.8-1.9,13.3-18.4,18.1-16.1c0,0-15,27.9-16.8,28.5c-1.8,0.6-27,0.2-32.7-2.6s-21.2-19.1-20.7-23.3
			C1094,1189.1,1101.4,1170.7,1104.6,1162.7z"/>
	</g>
</g>
<g>
	<text transform="matrix(1 0 0 1 907.4913 482.2444)" style="font-family:'MyriadPro-Regular'; font-size:26px;">5*8</text>
	<text transform="matrix(1 0 0 1 1401.323 408.4919)" style="font-family:'MyriadPro-Regular'; font-size:26px;">13+4</text>
	<text transform="matrix(1 0 0 1 1392.4924 935.6117)" style="font-family:'MyriadPro-Regular'; font-size:26px;">20-54</text>
	<text transform="matrix(1 0 0 1 818.2557 887.6282)" style="font-family:'MyriadPro-Regular'; font-size:26px;">40/8</text>
</g>
<g>
	<rect x="879" y="-64.6" class="st42" width="600.8" height="65.9"/>
	<g>
		
			<radialGradient id="SVGID_7_" cx="881.926" cy="-48.2754" r="58.9448" fx="903.0198" fy="-88.8511" gradientTransform="matrix(1 0 0 0.9311 0 -3.3281)" gradientUnits="userSpaceOnUse">
			<stop  offset="0.1559" style="stop-color:#FFFFFF"/>
			<stop  offset="0.1622" style="stop-color:#FDFDFD"/>
			<stop  offset="0.2924" style="stop-color:#D3D3D3"/>
			<stop  offset="0.4252" style="stop-color:#B0B0B0"/>
			<stop  offset="0.5593" style="stop-color:#959595"/>
			<stop  offset="0.6952" style="stop-color:#828282"/>
			<stop  offset="0.834" style="stop-color:#777777"/>
			<stop  offset="0.9801" style="stop-color:#737373"/>
		</radialGradient>
		<path class="st46" d="M867.9-105.3c-2.2,0.7-23.4,5.6-35.3,26.6c-4.1,7.2-10.3,20.3-6.6,30.3c1.9,5.1,5.1,6.5,11.2,18.6
			c2,4,3.1,6.2,4.3,9.7c3.2,9.2,1.6,11.7,4.6,15.1c4.3,4.9,12.2,5.3,14,5.4c5.1,0.2,6.6-1.4,9.6-0.2c4.5,1.9,6.8,8.1,9.7,11.5
			c9.5,1.9,31-6.7,41.5-10.6c2.8-6.1-0.7-9.7,3.3-16.2c4.7-7.5,11.7-6.3,14.1-12.6c2-5.2-2.2-8-4.1-18c-2.1-11,1.7-14.2,1-23.7
			c-1.1-15.1-12.2-25.8-13.9-27.4C901.8-115.4,871.2-106.4,867.9-105.3z"/>
		<path class="st17" d="M855.5-44.4c8.6-2.8,16.2,3.3,20.7,4.7c0.8,0.2,2.4,0.5,3.3,1.8c1.8,2.7-0.8,7.9-3.6,10.7
			c-0.4,0.4-6.1,6.1-13.9,4.2c-1.6-0.4-6.6-1.9-9-6.9C850.9-34.5,850.2-42.7,855.5-44.4z"/>
		<path class="st17" d="M910.9-61.3c-8.7,2.5-11.6,11.8-14.6,15.5c-0.5,0.6-1.8,1.7-1.8,3.3c0,3.2,5.1,6.1,9,6.9
			c0.5,0.1,8.5,1.6,13.9-4.2c1.1-1.2,4.4-5.3,3.6-10.7C920.3-55.7,916.3-62.9,910.9-61.3z"/>
		<path class="st17" d="M896.3-7.9c-3.7,1.1-5.6,4.7-8.4,4c0,0-0.8-0.2-1.6-0.9c-4.5-3.7-4.8-26.1,2.4-28.3
			c7.6-2.3,21.4,19.2,18.2,23.4C905.3-7.9,900.1-9.1,896.3-7.9z"/>
		<path class="st44" d="M869.1,11.4c0,0,3.4-2.4,7.3,6c4,8.4,5.5,13.5,13.8,13.7c8.3,0.2,14.6-1.7,19.7-3.3s19-7.9,19.1-12
			c0.1-2.6-2.8-22.6,2.3-24.1c0,0,8,30.6,7.1,32.3c-0.9,1.6-19.7,18.5-25.7,20.3c-6.1,1.8-28.5,0.4-31-3
			C879.3,37.9,872.2,19.4,869.1,11.4z"/>
	</g>
	<g>
		
			<radialGradient id="SVGID_8_" cx="579.2401" cy="48.2647" r="59.6477" fx="573.423" fy="2.3554" gradientTransform="matrix(0.7328 0.6804 -0.6335 0.6823 1078.8479 -470.918)" gradientUnits="userSpaceOnUse">
			<stop  offset="0.1387" style="stop-color:#FFFFFF"/>
			<stop  offset="0.1451" style="stop-color:#FDFDFD"/>
			<stop  offset="0.278" style="stop-color:#D3D3D3"/>
			<stop  offset="0.4136" style="stop-color:#B0B0B0"/>
			<stop  offset="0.5505" style="stop-color:#959595"/>
			<stop  offset="0.6893" style="stop-color:#828282"/>
			<stop  offset="0.8309" style="stop-color:#777777"/>
			<stop  offset="0.9801" style="stop-color:#737373"/>
		</radialGradient>
		<path class="st47" d="M1501.3-95.2c-2.1-1-20.9-11.8-44-4.5c-7.9,2.5-21.4,7.8-25.4,17.7c-2,5-0.7,8.3-4.5,21.3
			c-1.2,4.3-1.9,6.7-3.4,10.1c-3.9,8.9-6.8,9.6-6.9,14.2c-0.2,6.6,5.4,12.2,6.6,13.5c3.6,3.6,5.8,3.4,7.1,6.4c2,4.4-0.6,10.5-0.7,15
			c5.7,7.9,27.3,16.2,37.7,20.5c6.2-2.5,6.1-7.6,13.4-9.6c8.5-2.3,12.9,3.4,18.9,0.4c5-2.5,3.8-7.4,9.2-16c6-9.5,11-9.3,16.9-16.7
			c9.5-11.8,8.7-27.2,8.5-29.6C1533-79.5,1504.5-93.7,1501.3-95.2z"/>
		<path class="st17" d="M1450.7-59c8.2,3.8,9.6,13.4,12,17.5c0.4,0.7,1.5,2,1.2,3.5c-0.5,3.2-5.9,5.2-10,5.4c-0.5,0-8.6,0.3-13-6.3
			c-0.9-1.4-3.6-5.9-1.9-11.2C1440.6-54.8,1445.7-61.3,1450.7-59z"/>
		<path class="st17" d="M1502.9-33.7c-8.1-4.1-16.5,0.8-21.2,1.4c-0.8,0.1-2.5,0.1-3.5,1.2c-2.2,2.4-0.4,7.9,1.9,11.2
			c0.3,0.4,5.1,7,13,6.3c1.6-0.1,6.9-0.9,10-5.4C1505.9-23.1,1507.9-31.2,1502.9-33.7z"/>
		<path class="st17" d="M1455.8-4.5c-3.4-1.7-7.3-0.4-8.9-2.8c0,0-0.5-0.7-0.6-1.8c-0.8-5.8,14.3-22.4,21-19.1
			c7.1,3.5,2.7,28.6-2.6,29.5C1462.4,1.7,1459.4-2.8,1455.8-4.5z"/>
		<path class="st44" d="M1422.8-8.8c0,0,4.1,0.5,1.3,9.4s-5.1,13.6,0.8,19.4c6,5.8,11.9,8.7,16.6,11s19.2,7.1,22.1,4.2
			c1.8-1.9,13.3-18.4,18.1-16.1c0,0-15,27.9-16.8,28.5c-1.8,0.6-27,0.2-32.7-2.6c-5.7-2.8-21.2-19.1-20.7-23.3
			C1412.2,17.5,1419.6-0.9,1422.8-8.8z"/>
	</g>
</g>
<path class="st48" d="M-43.3,159.9L-43.3,159.9L-43.3,159.9c-17.3-17.3-41.5,6.8-24.1,24.1l24.1,24.1l0,0l0,0l24.1-24.1
	C-1.8,166.7-26,142.6-43.3,159.9z"/>
<path class="st48" d="M21.7,159.9L21.7,159.9L21.7,159.9C4.3,142.5-19.8,166.7-2.5,184l24.1,24.1l0,0l0,0L45.8,184
	C63.1,166.7,39,142.6,21.7,159.9z"/>
<path class="st49" d="M86.6,159.9L86.6,159.9L86.6,159.9c-17.3-17.3-41.5,6.8-24.1,24.1l24.1,24.1l0,0l0,0l24.1-24.1
	C128,166.7,103.9,142.6,86.6,159.9z"/>
<path class="st49" d="M39.2,14.9L39.2,14.9L39.2,14.9C21.8-2.5-2.3,21.7,15,39l24.1,24.1l0,0l0,0L63.3,39
	C80.6,21.7,56.5-2.5,39.2,14.9z"/>
</svg>
