<?xml version="1.0" encoding="utf-8"?>
<!-- Generator: Adobe Illustrator 24.3.0, SVG Export Plug-In . SVG Version: 6.00 Build 0)  -->
<svg version="1.1" id="Layer_1" xmlns="http://www.w3.org/2000/svg" xmlns:xlink="http://www.w3.org/1999/xlink" x="0px" y="0px"
	 viewBox="0 0 1920 1080" style="enable-background:new 0 0 1920 1080;" xml:space="preserve">
<style type="text/css">
	.st0{fill:none;stroke:#171717;stroke-miterlimit:10;}
	.st1{fill:#383838;}
	.st2{fill:#E5E51E;}
	.st3{fill:#895623;}
	.st4{fill:none;stroke:#66401A;stroke-miterlimit:10;}
	.st5{fill:none;stroke:#66401A;stroke-width:1;stroke-miterlimit:9.9999;}
	.st6{fill:#895623;stroke:#66401A;stroke-miterlimit:10;}
	.st7{fill:url(#SVGID_1_);stroke:#66401A;stroke-miterlimit:10;}
	.st8{fill:#231F20;stroke:#171717;stroke-miterlimit:10;}
	.st9{fill:none;stroke:#171717;stroke-width:2;stroke-miterlimit:10;}
	.st10{fill:#8C6239;stroke:#171717;stroke-width:2;stroke-miterlimit:10;}
	.st11{fill:#4F3820;stroke:#171717;stroke-width:2;stroke-miterlimit:10;}
	.st12{fill:none;stroke:#4F3820;stroke-width:11;stroke-miterlimit:10;}
	.st13{fill:url(#SVGID_2_);stroke:#000000;stroke-miterlimit:10;}
	.st14{fill:none;stroke:#000000;stroke-width:2;stroke-miterlimit:10;}
	.st15{fill:#D2B48C;stroke:#000000;stroke-width:2;stroke-miterlimit:10;}
	.st16{stroke:#000000;stroke-width:2;stroke-miterlimit:10;}
	.st17{fill:#FFFFFF;stroke:#000000;stroke-miterlimit:10;}
	.st18{fill:#F40006;stroke:#000000;stroke-miterlimit:10;}
	.st19{fill:#F0F0F0;}
	.st20{fill:#757575;stroke:#000000;stroke-miterlimit:10;}
	.st21{fill:none;stroke:#000000;stroke-width:4;stroke-linecap:round;stroke-miterlimit:10;}
	.st22{fill:none;stroke:#000000;stroke-width:4;stroke-miterlimit:10;}
	.st23{fill:none;stroke:#020202;stroke-width:2;stroke-miterlimit:10;}
	.st24{fill:none;stroke:#000000;stroke-width:2;stroke-linecap:round;stroke-miterlimit:10;}
	.st25{fill:#363636;stroke:#171717;stroke-miterlimit:10;}
	.st26{fill:#DD3311;stroke:#000000;stroke-linecap:round;stroke-miterlimit:10;}
	.st27{fill:none;stroke:#000000;stroke-miterlimit:10;}
	.st28{fill:url(#SVGID_3_);stroke:#000000;stroke-miterlimit:10;}
	.st29{fill:#583002;stroke:#000000;stroke-miterlimit:10;}
	.st30{fill:#915002;stroke:#000000;stroke-width:2;stroke-miterlimit:10;}
	.st31{fill:#F98A05;stroke:#000000;stroke-width:2;stroke-miterlimit:10;}
	.st32{fill:url(#SVGID_4_);stroke:#000000;stroke-miterlimit:10;}
	.st33{fill:none;stroke:#8C6239;stroke-width:4;stroke-linecap:round;stroke-miterlimit:10;}
	.st34{fill:#7F8C94;stroke:#000000;stroke-miterlimit:10;}
	.st35{fill:#FFB800;stroke:#000000;stroke-miterlimit:10;}
	.st36{fill:#FFB800;stroke:#000000;stroke-width:2;stroke-miterlimit:10;}
	.st37{fill:#95B6CB;stroke:#000000;stroke-miterlimit:10;}
	.st38{fill:#ADEBF6;stroke:#000000;stroke-miterlimit:10;}
	.st39{fill:#FCE2A6;stroke:#000000;stroke-miterlimit:10;}
	.st40{fill:#FCE2A6;stroke:#000000;stroke-linejoin:round;stroke-miterlimit:10;}
	.st41{fill:#FCE2A6;stroke:#000000;stroke-linejoin:bevel;stroke-miterlimit:10;}
	.st42{fill:#FFFFFF;stroke:#000000;stroke-width:3;stroke-miterlimit:10;}
	.st43{fill:url(#SVGID_5_);stroke:#000000;stroke-miterlimit:10;}
	.st44{fill:#858585;stroke:#000000;stroke-miterlimit:10;}
	.st45{fill:url(#SVGID_6_);stroke:#000000;stroke-miterlimit:10;}
	.st46{font-family:'MyriadPro-Regular';}
	.st47{font-size:26px;}
	.st48{fill:url(#SVGID_7_);stroke:#000000;stroke-miterlimit:10;}
	.st49{fill:url(#SVGID_8_);stroke:#000000;stroke-miterlimit:10;}
	.st50{fill:#B4003D;}
	.st51{opacity:0.31;fill:#70003D;}
</style>
<g id="Layer_1_1_">
	<g>
		<image style="overflow:visible;enable-background:new    ;" width="1920" height="1080" xlink:href="../../1x/Artboard 1.png" >
		</image>
	</g>
</g>
<g id="Layer_2_1_">
	<g>
		<path class="st0" d="M160.5,521.5c-0.1-9.3-2.6-12.6-5-14c-5-2.9-10.5,2.4-19,1c-6.4-1.1-11-5.4-14-9"/>
		<path class="st1" d="M151.5,532.5c-2-2.5-0.1-7.9,3-11c0.2-0.2,4.8-4.7,11-3c4.2,1.1,8.4,4.8,8,8
			C172.7,532.4,155.2,537.1,151.5,532.5z"/>
		<polygon class="st2" points="133,477 125,496 116.2,477 119,497 101,496 117.5,501.4 102,512 120,506 117,520.3 123,508 
			131.7,521.7 128,505 143.1,509.2 131.7,501.9 146,493 128,498 		"/>
	</g>
	<g>
		<g>
			<rect x="216.5" y="542" class="st3" width="7.4" height="33"/>
			<rect x="216.5" y="542" class="st4" width="7.4" height="33"/>
		</g>
		<g>
			
				<rect x="221.7" y="562.4" transform="matrix(0.7071 -0.7071 0.7071 0.7071 -330.5311 334.2196)" class="st3" width="33" height="7.4"/>
			
				<rect x="221.7" y="562.4" transform="matrix(0.7071 -0.7071 0.7071 0.7071 -330.5311 334.2196)" class="st5" width="33" height="7.4"/>
		</g>
		<g>
			<rect x="229" y="580.5" class="st3" width="33" height="7.4"/>
			<rect x="229" y="580.5" class="st4" width="33" height="7.4"/>
		</g>
		<g>
			
				<rect x="234.2" y="585.7" transform="matrix(0.7071 -0.7071 0.7071 0.7071 -356.1248 344.5912)" class="st3" width="7.4" height="33"/>
			
				<rect x="234.2" y="585.7" transform="matrix(0.7071 -0.7071 0.7071 0.7071 -356.1248 344.5912)" class="st5" width="7.4" height="33"/>
		</g>
		<g>
			<rect x="216.1" y="593" class="st3" width="7.4" height="33"/>
			<rect x="216.1" y="593" class="st4" width="7.4" height="33"/>
		</g>
		<g>
			
				<rect x="185.3" y="598.2" transform="matrix(0.7071 -0.7071 0.7071 0.7071 -366.4963 318.9975)" class="st3" width="33" height="7.4"/>
			
				<rect x="185.3" y="598.2" transform="matrix(0.7071 -0.7071 0.7071 0.7071 -366.4963 318.9975)" class="st5" width="33" height="7.4"/>
		</g>
		<g>
			<rect x="178" y="580.1" class="st3" width="33" height="7.4"/>
			<rect x="178" y="580.1" class="st4" width="33" height="7.4"/>
		</g>
		<g>
			
				<rect x="198.4" y="549.3" transform="matrix(0.7071 -0.7071 0.7071 0.7071 -340.9026 308.6259)" class="st3" width="7.4" height="33"/>
			
				<rect x="198.4" y="549.3" transform="matrix(0.7071 -0.7071 0.7071 0.7071 -340.9026 308.6259)" class="st5" width="7.4" height="33"/>
		</g>
		<path class="st6" d="M220,573.9c-5.6,0-10.1,4.5-10.1,10.1s4.5,10.1,10.1,10.1s10.1-4.5,10.1-10.1S225.6,573.9,220,573.9z
			 M220,591.6c-4.2,0-7.6-3.4-7.6-7.6s3.4-7.6,7.6-7.6s7.6,3.4,7.6,7.6S224.2,591.6,220,591.6z"/>
		<path class="st6" d="M220,530c-29.8,0-54,24.2-54,54s24.2,54,54,54s54-24.2,54-54S249.8,530,220,530z M220,624.5
			c-22.4,0-40.5-18.1-40.5-40.5s18.1-40.5,40.5-40.5s40.5,18.1,40.5,40.5S242.4,624.5,220,624.5z"/>
	</g>
	
		<linearGradient id="SVGID_1_" gradientUnits="userSpaceOnUse" x1="321.5" y1="511.5" x2="321.5" y2="511.5" gradientTransform="matrix(1 0 0 -1 0 1080)">
		<stop  offset="7.759906e-02" style="stop-color:#424242"/>
		<stop  offset="0.295" style="stop-color:#A1A1A1"/>
		<stop  offset="0.6107" style="stop-color:#000000"/>
	</linearGradient>
	<path class="st7" d="M321.5,568.5"/>
	<path class="st8" d="M321.5,568.5c-10-8-124.3,43.1-154,47c-1.7,0.2-4.1,0.4-7,0c-16.3-2.3-25.8-20.6-27-23
		c-9.4-18.7-6.9-45.7,8-58c6-5,13-6.6,27-10c15.6-3.7,14.4-0.6,27-4c3.6-1,32-6,37-7l2,1c2,2,4,3,4,3l5-5c0,0,3.5,0,4,0
		c14.8,0,59-12,59-12l-2-6c0,0,9.4-3.8,14-3c4,11,16,56,20,77c-2.6,2.4-14,5-14,5S322.8,569.6,321.5,568.5z"/>
	<g>
		<g>
			<rect x="173.5" y="559" class="st3" width="7.4" height="33"/>
			<rect x="173.5" y="559" class="st4" width="7.4" height="33"/>
		</g>
		<g>
			
				<rect x="178.7" y="579.4" transform="matrix(0.7071 -0.7071 0.7071 0.7071 -355.146 308.7932)" class="st3" width="33" height="7.4"/>
			
				<rect x="178.7" y="579.4" transform="matrix(0.7071 -0.7071 0.7071 0.7071 -355.146 308.7932)" class="st5" width="33" height="7.4"/>
		</g>
		<g>
			<rect x="186" y="597.5" class="st3" width="33" height="7.4"/>
			<rect x="186" y="597.5" class="st4" width="33" height="7.4"/>
		</g>
		<g>
			
				<rect x="191.2" y="602.7" transform="matrix(0.7071 -0.7071 0.7071 0.7071 -380.7397 319.1648)" class="st3" width="7.4" height="33"/>
			
				<rect x="191.2" y="602.7" transform="matrix(0.7071 -0.7071 0.7071 0.7071 -380.7397 319.1648)" class="st5" width="7.4" height="33"/>
		</g>
		<g>
			<rect x="173.1" y="610" class="st3" width="7.4" height="33"/>
			<rect x="173.1" y="610" class="st4" width="7.4" height="33"/>
		</g>
		<g>
			
				<rect x="142.3" y="615.2" transform="matrix(0.7071 -0.7071 0.7071 0.7071 -391.1112 293.5711)" class="st3" width="33" height="7.4"/>
			
				<rect x="142.3" y="615.2" transform="matrix(0.7071 -0.7071 0.7071 0.7071 -391.1112 293.5711)" class="st5" width="33" height="7.4"/>
		</g>
		<g>
			<rect x="135" y="597.1" class="st3" width="33" height="7.4"/>
			<rect x="135" y="597.1" class="st4" width="33" height="7.4"/>
		</g>
		<g>
			
				<rect x="155.4" y="566.3" transform="matrix(0.7071 -0.7071 0.7071 0.7071 -365.5175 283.1995)" class="st3" width="7.4" height="33"/>
			
				<rect x="155.4" y="566.3" transform="matrix(0.7071 -0.7071 0.7071 0.7071 -365.5175 283.1995)" class="st5" width="7.4" height="33"/>
		</g>
		<path class="st6" d="M177,590.9c-5.6,0-10.1,4.5-10.1,10.1s4.5,10.1,10.1,10.1s10.1-4.5,10.1-10.1S182.6,590.9,177,590.9z
			 M177,608.6c-4.2,0-7.6-3.4-7.6-7.6s3.4-7.6,7.6-7.6s7.6,3.4,7.6,7.6S181.2,608.6,177,608.6z"/>
		<path class="st6" d="M177,547c-29.8,0-54,24.2-54,54s24.2,54,54,54s54-24.2,54-54S206.8,547,177,547z M177,641.5
			c-22.4,0-40.5-18.1-40.5-40.5s18.1-40.5,40.5-40.5s40.5,18.1,40.5,40.5S199.4,641.5,177,641.5z"/>
	</g>
</g>
<g id="Layer_3">
	<g>
		<path class="st9" d="M1518,344"/>
		<path class="st10" d="M1571,208c0,0,20,52-2,85h-103c-20-38,2-85,2-85"/>
		<ellipse class="st11" cx="1519.5" cy="208" rx="51.5" ry="9"/>
		<path class="st12" d="M1459,242c30.1,7.4,71.3,12.4,119.5,1.2"/>
		
			<linearGradient id="SVGID_2_" gradientUnits="userSpaceOnUse" x1="1505.9336" y1="863.5649" x2="1518.344" y2="754.5494" gradientTransform="matrix(1.2918 0.1071 0.1039 -1.2542 -521.5853 1167.5454)">
			<stop  offset="0.3137" style="stop-color:#056C94"/>
			<stop  offset="0.4038" style="stop-color:#0F7194;stop-opacity:0.7676"/>
			<stop  offset="0.5546" style="stop-color:#297E93;stop-opacity:0.3785"/>
			<stop  offset="0.7012" style="stop-color:#488D93;stop-opacity:0"/>
		</linearGradient>
		<path class="st13" d="M1445.3,311.7c0,0,37.7-62.7-38.3-79.7c64-13,106.6,56.3,106.6,56.3s47.4-31.3-2.4-49.5
			C1573,222,1621.9,315,1621.9,315"/>
		<line class="st14" x1="1521.5" y1="217" x2="1518.8" y2="170.2"/>
		<circle class="st15" cx="1518" cy="141" r="33"/>
		<path class="st16" d="M1504,135l15.1,1.9c0,0-1.9,8.1-9,6.1S1504,135,1504,135z"/>
		<polyline class="st14" points="1490.2,123.3 1504,135 1551,141 		"/>
		<ellipse class="st17" cx="1494.5" cy="137.5" rx="4" ry="6"/>
		<path class="st17" d="M1492.5,154.5c0,0,16.1-6,19,0c3,6-11,9-11,9"/>
		<path class="st18" d="M1552.3,119.7c0,0,5.2-24.2,21.2-19.2s16.7-0.7,16.7-0.7s-9.7,10.7-18.7,9.7s-10,8-10,8s20.5-2.2,22-6
			c2-5,0,9-3,11c-1.9,1.2-21,6-27,3S1552.3,119.7,1552.3,119.7z"/>
		<path class="st18" d="M1548.2,122.3c0,0,2.3-6.8,5.3-2.8s3,9,3,9s-5,1.6-6.5-0.7"/>
		<path class="st18" d="M1496.5,115.5c0,0,54,26,54.9,20.5C1554,121.2,1534.5,86.9,1496.5,115.5z"/>
		<g>
			
				<rect x="1449.7" y="170.2" transform="matrix(0.4076 -0.9132 0.9132 0.4076 695.4623 1434.3457)" class="st19" width="7" height="22"/>
			<path class="st20" d="M1439.9,180.5c0,0-59.9-26.5-49.9-89.5c6,13,6,13,18,20c1,18,2,37,34,60c-2,9-2,9-2,9"/>
			<path class="st21" d="M1445.5,167.5c-0.9,1.5-1.7,2.8-2.3,4.2c-8.2,18.3,0.6,20.7,4.8,22.3c5,2,11,3,18.5-15.5"/>
			<line class="st22" x1="1465.5" y1="181.7" x2="1442.8" y2="172.5"/>
			<line class="st22" x1="1462.5" y1="189.7" x2="1439.8" y2="180.5"/>
			<circle class="st23" cx="1467.5" cy="187.5" r="3.5"/>
		</g>
		<path class="st24" d="M1520,191c0,0-27.1-7-37.5-18.5s-29.2,8.7-29.2,8.7"/>
	</g>
	<g>
		<g>
			<path class="st25" d="M936.8,673.1c-5.1,12.2,0.7,26.3,12.9,31.4s26.3-0.7,31.4-12.9c4-9.7,1.3-20.5-6.1-27.1
				c-1.9-1.7-4.2-3.2-6.8-4.3C955.9,655.1,941.9,660.9,936.8,673.1z"/>
			<path class="st0" d="M970.6,661.3c0,0,10.8-30.2,19.7-17.8s-14,11.3-17.1-1.3s20.4-16.9,20.4-16.9"/>
		</g>
		<path class="st9" d="M937,824"/>
		<g>
			<path class="st26" d="M922.9,701.9l-15.4,6.7L877.3,650c1.7-0.7,3.4-1.5,5.1-2.2c0.9-0.4,1.9-0.8,2.8-1.2c2.5-1.1,5-2.2,7.5-3.2
				C902.7,662.8,912.8,682.3,922.9,701.9z"/>
			<path class="st26" d="M889.9,622.2"/>
			<path class="st26" d="M884.6,638.1"/>
			<path class="st26" d="M881.4,637"/>
			<path class="st27" d="M885.2,646.5c0,0-15.9-1.5-8.1-12.5s0.5-12,0.5-12"/>
		</g>
		<g>
			<path class="st26" d="M913.3,708.2l-16.8-2.7l12.3-63.8c1.8,0.3,3.7,0.6,5.5,0.9c1,0.2,2.1,0.3,3.1,0.5c2.7,0.4,5.4,0.9,8.1,1.3
				C921.5,665.6,917.4,686.9,913.3,708.2z"/>
			<path class="st26" d="M936.6,625.7"/>
			<path class="st26" d="M922.2,635.9"/>
			<path class="st26" d="M920.3,633.3"/>
			<path class="st27" d="M917.4,643c0,0-12-9.7,1.3-14.5s8-9.5,8-9.5"/>
		</g>
		<g>
			<path class="st26" d="M918.7,712l-15.2-7.1l31.9-57.8c1.7,0.8,3.3,1.6,5,2.3c0.9,0.4,1.9,0.9,2.8,1.3c2.5,1.1,4.9,2.3,7.4,3.4
				C939.9,673.4,929.3,692.7,918.7,712z"/>
			<path class="st26" d="M967,639.2"/>
			<path class="st26" d="M950.1,645.1"/>
			<path class="st26" d="M949,642.1"/>
			<path class="st27" d="M943.2,650.7c0,0-8.4-12.5,5.8-13.5c14.2-1.1,10.7-7,10.7-7"/>
		</g>
		<path class="st10" d="M990,688c0,0,20,52-2,85H885c-20-38-3-66,2-85C923,675,953,676,990,688z"/>
		<path class="st12" d="M878,722c30.1,7.4,71.3,12.4,119.5,1.2"/>
		
			<linearGradient id="SVGID_3_" gradientUnits="userSpaceOnUse" x1="1089.8104" y1="445.3441" x2="1102.2208" y2="336.3287" gradientTransform="matrix(1.2918 0.1071 0.1039 -1.2542 -521.5853 1167.5454)">
			<stop  offset="0.3137" style="stop-color:#056C94"/>
			<stop  offset="0.4038" style="stop-color:#0F7194;stop-opacity:0.7676"/>
			<stop  offset="0.5546" style="stop-color:#297E93;stop-opacity:0.3785"/>
			<stop  offset="0.7012" style="stop-color:#488D93;stop-opacity:0"/>
		</linearGradient>
		<path class="st28" d="M864.3,791.7c0,0,37.7-62.7-38.3-79.7c64-13,106.6,56.3,106.6,56.3s47.4-31.3-2.4-49.5
			C992,702,1040.9,795,1040.9,795"/>
	</g>
	<g>
		<path class="st29" d="M1526.5,748.5L1526.5,748.5c-8.8,0-16-7.2-16-16v-267c0-8.8,7.2-16,16-16l0,0c8.8,0,16,7.2,16,16v267
			C1542.5,741.3,1535.3,748.5,1526.5,748.5z"/>
		<path class="st29" d="M1325,640c0,0-93.5-19.5-119-41c3,41,117,62,117,62L1325,640z"/>
		<path class="st30" d="M1313,661l3-30c0,0,80,25,111,19c5,71,60,84,99,87c87,6,89.9-89.5,89.9-89.5s98.1,26.5,122.7,1.1
			c0.5,61.5-7.6,61.5-7.6,61.5h-25.1c0,0-5.6,107.9-27.7,125.9s-307.9,0-307.9,0s-78.3-53-66.3-126C1309,678,1313,661,1313,661"/>
		<path class="st24" d="M1738.5,648.5v-16.8c0,0-15.6,0.2-48.2-0.8c-1.2,0-2.3,0-3.3,0c-28.9,0.9-23.7,25.9-23.7,25.9"/>
		<line class="st14" x1="1685.8" y1="659.2" x2="1687" y2="631"/>
		<line class="st14" x1="1673.8" y1="659" x2="1674.9" y2="634"/>
		<line class="st14" x1="1697.8" y1="659.2" x2="1699" y2="631"/>
		<line class="st14" x1="1709.8" y1="659.2" x2="1711" y2="631"/>
		<line class="st14" x1="1721.2" y1="657" x2="1723" y2="631"/>
		<path class="st31" d="M1308,622c0,0,2,22.5,0,28.8s104,17.2,104,17.2s3,71,95,79s104-37,104-37s12-33,16-46c14,2,86,15,111,5
			l0.6-23.9c0,0-50.6,17.9-126.6-8.1c0,0-10,67-35,76s-109,37-142-62c-2-5-2-7-4.2-11.8C1402,641,1308,622,1308,622z"/>
		<path class="st27" d="M1306.6,694.1c0,0,59.4,20.9,95.4,17.9"/>
		<path class="st27" d="M1311.6,766.1c0,0,35.9,28.4,176.9,35.4"/>
		<circle class="st29" cx="1333.5" cy="678.5" r="13.5"/>
		<circle class="st29" cx="1378" cy="685" r="12.5"/>
		<circle class="st29" cx="1642" cy="691" r="12.5"/>
		<circle class="st29" cx="1679" cy="692" r="13.5"/>
		<path class="st27" d="M1700.8,763.1c0,0-67.3,18.4-136.3,6.4"/>
		
			<linearGradient id="SVGID_4_" gradientUnits="userSpaceOnUse" x1="1500.4501" y1="245.8823" x2="1500.4501" y2="195.3447" gradientTransform="matrix(1 0 0 -1 0 1080)">
			<stop  offset="0.1944" style="stop-color:#056C94"/>
			<stop  offset="0.2639" style="stop-color:#1A7694;stop-opacity:0.8008"/>
			<stop  offset="0.3703" style="stop-color:#338393;stop-opacity:0.4962"/>
			<stop  offset="0.4667" style="stop-color:#438A93;stop-opacity:0.2202"/>
			<stop  offset="0.5436" style="stop-color:#488D93;stop-opacity:0"/>
		</linearGradient>
		<path class="st32" d="M1278,853c0,0,41-14,62-31c12,17,42.2,11,42.2,11s17.8-12,26.8-25c22,20,29,32,36,29s32-16,37-23
			c17,15,19,22,28,23s29-9,29-9s10,10,20,10s44-17,47-23c14,9,15.3,20.3,26.6,21.6c11.4,1.4,30.3-14.8,30.3-14.8s5,9.2,14,11.2
			s46,23,46,23"/>
		<g>
			<line class="st33" x1="1465" y1="531" x2="1600" y2="531"/>
			<path class="st16" d="M1464.2,532.6c0,0-35.2,43.4-10.2,109.4h142c0,0-45-68.9,0-109.4C1464,533,1464.2,532.6,1464.2,532.6z"/>
		</g>
		<g>
			<line class="st33" x1="1496.2" y1="449.4" x2="1565" y2="449.4"/>
			<path class="st16" d="M1495.8,450.2c0,0-18,22.1-5.2,55.8h72.4c0,0-22.9-35.1,0-55.8C1495.7,450.4,1495.8,450.2,1495.8,450.2z"/>
		</g>
		<polyline class="st14" points="1738.6,645.1 1527,454 1206,599 		"/>
	</g>
	<g>
		<g>
			<polyline class="st34" points="1260.5,389.9 1326.3,389.9 1329.3,389.9 1329.3,396.7 1260.5,396.7 			"/>
			<path class="st34" d="M1330.3,389.9c0,0,21.4-33.9-1.4-33.9c-12.9,0-6.1,22.6-4.7,33.9"/>
			<path class="st35" d="M1331.1,398.4h-7c-0.9,0-1.6-0.7-1.6-1.6v-7c0-0.9,0.7-1.6,1.6-1.6h7c0.9,0,1.6,0.7,1.6,1.6v7
				C1332.7,397.7,1332,398.4,1331.1,398.4z"/>
		</g>
		<path class="st36" d="M1241.4,357.8c0,0,33.2-49.6,73.6-51.3c13.5,10.1,3.4,47.2,0,64.1c-8.2,11-26.4,7.9-54.5,7.3"/>
		<path class="st36" d="M1260.5,369.7v27H881c0,0,4-81.7,98.6-86c50.9-2.3,152.7,9.9,202.7,21.9
			C1238.4,346.1,1260.5,369.7,1260.5,369.7z"/>
		<g>
			<path class="st37" d="M984.4,396c0-0.2,0-0.4,0-0.6c0-22-17.9-39.9-39.9-39.9s-39.9,17.9-39.9,39.9c0,0.2,0,0.4,0,0.6H984.4z"/>
			<path class="st38" d="M971.1,396.3c0-0.1,0-0.2,0-0.4c0-14.7-11.9-26.6-26.6-26.6s-26.6,11.9-26.6,26.6c0,0.1,0,0.2,0,0.4H971.1z
				"/>
		</g>
		<g>
			<path class="st37" d="M1074.1,396c0-0.2,0-0.4,0-0.6c0-22-17.9-39.9-39.9-39.9s-39.9,17.9-39.9,39.9c0,0.2,0,0.4,0,0.6H1074.1z"
				/>
			<path class="st38" d="M1060.8,396.3c0-0.1,0-0.2,0-0.4c0-14.7-11.9-26.6-26.6-26.6s-26.6,11.9-26.6,26.6c0,0.1,0,0.2,0,0.4
				H1060.8z"/>
		</g>
		<g>
			<path class="st37" d="M1163.7,396c0-0.2,0-0.4,0-0.6c0-22-17.9-39.9-39.9-39.9s-39.9,17.9-39.9,39.9c0,0.2,0,0.4,0,0.6H1163.7z"
				/>
			<path class="st38" d="M1150.4,396.3c0-0.1,0-0.2,0-0.4c0-14.7-11.9-26.6-26.6-26.6s-26.6,11.9-26.6,26.6c0,0.1,0,0.2,0,0.4
				H1150.4z"/>
		</g>
		<line class="st14" x1="1190.9" y1="334.3" x2="1190.9" y2="396.7"/>
		<circle class="st27" cx="1179.3" cy="346.1" r="3.4"/>
		<circle class="st27" cx="1179.3" cy="366.3" r="3.4"/>
		<circle class="st27" cx="1179.3" cy="386.6" r="3.4"/>
		<circle class="st27" cx="1199.6" cy="357.9" r="3.4"/>
		<circle class="st27" cx="1199.6" cy="378.1" r="3.4"/>
	</g>
	<g>
		<g>
			<polygon class="st39" points="1093.5,286.4 1158,291 1137.3,307.1 1158,327.8 1093.5,324.4 			"/>
			<polygon class="st40" points="1093.5,308 1115.4,308 1093.5,286.4 			"/>
			<polygon class="st39" points="950.8,286.4 886.3,291 907,307.1 886.3,327.8 950.8,324.4 			"/>
			<polygon class="st40" points="950.8,308 928.9,308 950.8,286.4 			"/>
			<rect x="928.9" y="308" class="st41" width="186.5" height="44"/>
		</g>
		<g>
			<polygon class="st39" points="1595.5,213.4 1660,218 1639.3,234.1 1660,254.8 1595.5,251.4 			"/>
			<polygon class="st40" points="1595.5,235 1617.4,235 1595.5,213.4 			"/>
			<polygon class="st39" points="1452.8,213.4 1388.3,218 1409,234.1 1388.3,254.8 1452.8,251.4 			"/>
			<polygon class="st40" points="1452.8,235 1430.9,235 1452.8,213.4 			"/>
			<rect x="1430.9" y="235" class="st41" width="186.5" height="44"/>
		</g>
		<g>
			<polygon class="st39" points="1589.5,740.4 1654,745 1633.3,761.1 1654,781.8 1589.5,778.4 			"/>
			<polygon class="st40" points="1589.5,762 1611.4,762 1589.5,740.4 			"/>
			<polygon class="st39" points="1446.8,740.4 1382.3,745 1403,761.1 1382.3,781.8 1446.8,778.4 			"/>
			<polygon class="st40" points="1446.8,762 1424.9,762 1446.8,740.4 			"/>
			<rect x="1424.9" y="762" class="st41" width="186.5" height="44"/>
		</g>
		<g>
			<polygon class="st39" points="1011.5,693.4 1076,698 1055.3,714.1 1076,734.8 1011.5,731.4 			"/>
			<polygon class="st40" points="1011.5,715 1033.4,715 1011.5,693.4 			"/>
			<polygon class="st39" points="868.8,693.4 804.3,698 825,714.1 804.3,734.8 868.8,731.4 			"/>
			<polygon class="st40" points="868.8,715 846.9,715 868.8,693.4 			"/>
			<rect x="846.9" y="715" class="st41" width="186.5" height="44"/>
		</g>
	</g>
</g>
<g>
	<rect x="658" y="963.4" class="st42" width="600.8" height="65.9"/>
	<g>
		
			<radialGradient id="SVGID_5_" cx="660.9172" cy="979.7708" r="58.9448" fx="682.011" fy="939.1951" gradientTransform="matrix(1 0 0 0.9311 0 67.5448)" gradientUnits="userSpaceOnUse">
			<stop  offset="0.1559" style="stop-color:#FFFFFF"/>
			<stop  offset="0.1622" style="stop-color:#FDFDFD"/>
			<stop  offset="0.2924" style="stop-color:#D3D3D3"/>
			<stop  offset="0.4252" style="stop-color:#B0B0B0"/>
			<stop  offset="0.5593" style="stop-color:#959595"/>
			<stop  offset="0.6952" style="stop-color:#828282"/>
			<stop  offset="0.834" style="stop-color:#777777"/>
			<stop  offset="0.9801" style="stop-color:#737373"/>
		</radialGradient>
		<path class="st43" d="M646.9,922.7c-2.2,0.7-23.4,5.6-35.3,26.6c-4.1,7.2-10.3,20.3-6.6,30.3c1.9,5.1,5.1,6.5,11.2,18.6
			c2,4,3.1,6.2,4.3,9.7c3.2,9.2,1.6,11.7,4.6,15.1c4.3,4.9,12.2,5.3,14,5.4c5.1,0.2,6.6-1.4,9.6-0.2c4.5,1.9,6.8,8.1,9.7,11.5
			c9.5,1.9,31-6.7,41.5-10.6c2.8-6.1-0.7-9.7,3.3-16.2c4.7-7.5,11.7-6.3,14.1-12.6c2-5.2-2.2-8-4.1-18c-2.1-11,1.7-14.2,1-23.7
			c-1.1-15.1-12.2-25.8-13.9-27.4C680.8,912.6,650.2,921.7,646.9,922.7z"/>
		<path class="st17" d="M634.5,983.7c8.6-2.8,16.2,3.3,20.7,4.7c0.8,0.2,2.4,0.5,3.3,1.8c1.8,2.7-0.8,7.9-3.6,10.7
			c-0.4,0.4-6.1,6.1-13.9,4.2c-1.6-0.4-6.6-1.9-9-6.9C629.9,993.6,629.2,985.3,634.5,983.7z"/>
		<path class="st17" d="M689.9,966.7c-8.7,2.5-11.6,11.8-14.6,15.5c-0.5,0.6-1.8,1.7-1.8,3.3c0,3.2,5.1,6.1,9,6.9
			c0.5,0.1,8.5,1.6,13.9-4.2c1.1-1.2,4.4-5.3,3.6-10.7C699.3,972.4,695.3,965.2,689.9,966.7z"/>
		<path class="st17" d="M675.3,1020.1c-3.7,1.1-5.6,4.7-8.4,4c0,0-0.8-0.2-1.6-0.9c-4.5-3.7-4.8-26.1,2.4-28.3
			c7.6-2.3,21.4,19.2,18.2,23.4C684.3,1020.1,679,1019,675.3,1020.1z"/>
		<path class="st44" d="M648.1,1039.4c0,0,3.4-2.4,7.3,6c4,8.4,5.5,13.5,13.8,13.7c8.3,0.2,14.6-1.7,19.7-3.3s19-7.9,19.1-12
			c0.1-2.6-2.8-22.6,2.3-24.1c0,0,8,30.6,7.1,32.3c-0.9,1.6-19.7,18.5-25.7,20.3c-6.1,1.8-28.5,0.4-31-3
			C658.3,1065.9,651.2,1047.4,648.1,1039.4z"/>
	</g>
	<g>
		
			<radialGradient id="SVGID_6_" cx="1240.4467" cy="979.7708" r="59.6477" fx="1234.6295" fy="933.8615" gradientTransform="matrix(0.7328 0.6804 -0.6335 0.6823 963.4529 -528.3345)" gradientUnits="userSpaceOnUse">
			<stop  offset="0.1387" style="stop-color:#FFFFFF"/>
			<stop  offset="0.1451" style="stop-color:#FDFDFD"/>
			<stop  offset="0.278" style="stop-color:#D3D3D3"/>
			<stop  offset="0.4136" style="stop-color:#B0B0B0"/>
			<stop  offset="0.5505" style="stop-color:#959595"/>
			<stop  offset="0.6893" style="stop-color:#828282"/>
			<stop  offset="0.8309" style="stop-color:#777777"/>
			<stop  offset="0.9801" style="stop-color:#737373"/>
		</radialGradient>
		<path class="st45" d="M1280.3,932.8c-2.1-1-20.9-11.8-44-4.5c-7.9,2.5-21.4,7.8-25.4,17.7c-2,5-0.7,8.3-4.5,21.3
			c-1.2,4.3-1.9,6.7-3.4,10.1c-3.9,8.9-6.8,9.6-6.9,14.2c-0.2,6.6,5.4,12.2,6.6,13.5c3.6,3.6,5.8,3.4,7.1,6.4c2,4.4-0.6,10.5-0.7,15
			c5.7,7.9,27.3,16.2,37.7,20.5c6.2-2.5,6.1-7.6,13.4-9.6c8.5-2.3,12.9,3.4,18.9,0.4c5-2.5,3.8-7.4,9.2-16c6-9.5,11-9.3,16.9-16.7
			c9.5-11.8,8.7-27.2,8.5-29.6C1312,948.5,1283.4,934.3,1280.3,932.8z"/>
		<path class="st17" d="M1229.7,969.1c8.2,3.8,9.6,13.4,12,17.5c0.4,0.7,1.5,2,1.2,3.5c-0.5,3.2-5.9,5.2-10,5.4
			c-0.5,0-8.6,0.3-13-6.3c-0.9-1.4-3.6-5.9-1.9-11.2C1219.6,973.2,1224.7,966.7,1229.7,969.1z"/>
		<path class="st17" d="M1281.9,994.4c-8.1-4.1-16.5,0.8-21.2,1.4c-0.8,0.1-2.5,0.1-3.5,1.2c-2.2,2.4-0.4,7.9,1.9,11.2
			c0.3,0.4,5.1,7,13,6.3c1.6-0.1,6.9-0.9,10-5.4C1284.9,1004.9,1286.9,996.9,1281.9,994.4z"/>
		<path class="st17" d="M1234.8,1023.5c-3.4-1.7-7.3-0.4-8.9-2.8c0,0-0.5-0.7-0.6-1.8c-0.8-5.8,14.3-22.4,21-19.1
			c7.1,3.5,2.7,28.6-2.6,29.5C1241.4,1029.7,1238.3,1025.3,1234.8,1023.5z"/>
		<path class="st44" d="M1201.7,1019.2c0,0,4.1,0.5,1.3,9.4c-2.8,8.9-5.1,13.6,0.8,19.4c6,5.8,11.9,8.7,16.6,11
			c4.7,2.3,19.2,7.1,22.1,4.2c1.8-1.9,13.3-18.4,18.1-16.1c0,0-15,27.9-16.8,28.5c-1.8,0.6-27,0.2-32.7-2.6
			c-5.7-2.8-21.2-19.1-20.7-23.3C1191.2,1045.5,1198.6,1027.2,1201.7,1019.2z"/>
	</g>
</g>
<g>
	<text transform="matrix(1 0 0 1 1004.6677 338.715)" class="st46 st47">5*8</text>
	<text transform="matrix(1 0 0 1 1498.4995 264.9625)" class="st46 st47">13+4</text>
	<text transform="matrix(1 0 0 1 1489.6689 792.0823)" class="st46 st47">20-54</text>
	<text transform="matrix(1 0 0 1 915.4322 744.0988)" class="st46 st47">40/8</text>
</g>
<g>
	<rect x="976.2" y="-208.2" class="st42" width="600.8" height="65.9"/>
	<g>
		
			<radialGradient id="SVGID_7_" cx="979.1025" cy="-191.8048" r="58.9448" fx="1000.1962" fy="-232.3805" gradientTransform="matrix(1 0 0 0.9311 0 -13.2229)" gradientUnits="userSpaceOnUse">
			<stop  offset="0.1559" style="stop-color:#FFFFFF"/>
			<stop  offset="0.1622" style="stop-color:#FDFDFD"/>
			<stop  offset="0.2924" style="stop-color:#D3D3D3"/>
			<stop  offset="0.4252" style="stop-color:#B0B0B0"/>
			<stop  offset="0.5593" style="stop-color:#959595"/>
			<stop  offset="0.6952" style="stop-color:#828282"/>
			<stop  offset="0.834" style="stop-color:#777777"/>
			<stop  offset="0.9801" style="stop-color:#737373"/>
		</radialGradient>
		<path class="st48" d="M965.1-248.9c-2.2,0.7-23.4,5.6-35.3,26.6c-4.1,7.2-10.3,20.3-6.6,30.3c1.9,5.1,5.1,6.5,11.2,18.6
			c2,4,3.1,6.2,4.3,9.7c3.2,9.2,1.6,11.7,4.6,15.1c4.3,4.9,12.2,5.3,14,5.4c5.1,0.2,6.6-1.4,9.6-0.2c4.5,1.9,6.8,8.1,9.7,11.5
			c9.5,1.9,31-6.7,41.5-10.6c2.8-6.1-0.7-9.7,3.3-16.2c4.7-7.5,11.7-6.3,14.1-12.6c2-5.2-2.2-8-4.1-18c-2.1-11,1.7-14.2,1-23.7
			c-1.1-15.1-12.2-25.8-13.9-27.4C999-259,968.4-249.9,965.1-248.9z"/>
		<path class="st17" d="M952.7-187.9c8.6-2.8,16.2,3.3,20.7,4.7c0.8,0.2,2.4,0.5,3.3,1.8c1.8,2.7-0.8,7.9-3.6,10.7
			c-0.4,0.4-6.1,6.1-13.9,4.2c-1.6-0.4-6.6-1.9-9-6.9C948.1-178,947.4-186.2,952.7-187.9z"/>
		<path class="st17" d="M1008.1-204.9c-8.7,2.5-11.6,11.8-14.6,15.5c-0.5,0.6-1.8,1.7-1.8,3.3c0,3.2,5.1,6.1,9,6.9
			c0.5,0.1,8.5,1.6,13.9-4.2c1.1-1.2,4.4-5.3,3.6-10.7C1017.5-199.2,1013.5-206.4,1008.1-204.9z"/>
		<path class="st17" d="M993.5-151.5c-3.7,1.1-5.6,4.7-8.4,4c0,0-0.8-0.2-1.6-0.9c-4.5-3.7-4.8-26.1,2.4-28.3
			c7.6-2.3,21.4,19.2,18.2,23.4C1002.5-151.4,997.2-152.6,993.5-151.5z"/>
		<path class="st44" d="M966.3-132.1c0,0,3.4-2.4,7.3,6s5.5,13.5,13.8,13.7c8.3,0.2,14.6-1.7,19.7-3.3c5-1.5,19-7.9,19.1-12
			c0.1-2.6-2.8-22.6,2.3-24.1c0,0,8,30.6,7.1,32.3s-19.7,18.5-25.7,20.3c-6.1,1.8-28.5,0.4-31-3S969.4-124.2,966.3-132.1z"/>
	</g>
	<g>
		
			<radialGradient id="SVGID_8_" cx="676.4165" cy="-95.2647" r="59.6477" fx="670.5994" fy="-141.174" gradientTransform="matrix(0.7328 0.6804 -0.6335 0.6823 1013.8824 -582.6438)" gradientUnits="userSpaceOnUse">
			<stop  offset="0.1387" style="stop-color:#FFFFFF"/>
			<stop  offset="0.1451" style="stop-color:#FDFDFD"/>
			<stop  offset="0.278" style="stop-color:#D3D3D3"/>
			<stop  offset="0.4136" style="stop-color:#B0B0B0"/>
			<stop  offset="0.5505" style="stop-color:#959595"/>
			<stop  offset="0.6893" style="stop-color:#828282"/>
			<stop  offset="0.8309" style="stop-color:#777777"/>
			<stop  offset="0.9801" style="stop-color:#737373"/>
		</radialGradient>
		<path class="st49" d="M1598.5-238.7c-2.1-1-20.9-11.8-44-4.5c-7.9,2.5-21.4,7.8-25.4,17.7c-2,5-0.7,8.3-4.5,21.3
			c-1.2,4.3-1.9,6.7-3.4,10.1c-3.9,8.9-6.8,9.6-6.9,14.2c-0.2,6.6,5.4,12.2,6.6,13.5c3.6,3.6,5.8,3.4,7.1,6.4c2,4.4-0.6,10.5-0.7,15
			c5.7,7.9,27.3,16.2,37.7,20.5c6.2-2.5,6.1-7.6,13.4-9.6c8.5-2.3,12.9,3.4,18.9,0.4c5-2.5,3.8-7.4,9.2-16c6-9.5,11-9.3,16.9-16.7
			c9.5-11.8,8.7-27.2,8.5-29.6C1630.2-223.1,1601.6-237.2,1598.5-238.7z"/>
		<path class="st17" d="M1547.9-202.5c8.2,3.8,9.6,13.4,12,17.5c0.4,0.7,1.5,2,1.2,3.5c-0.5,3.2-5.9,5.2-10,5.4
			c-0.5,0-8.6,0.3-13-6.3c-0.9-1.4-3.6-5.9-1.9-11.2C1537.8-198.4,1542.9-204.9,1547.9-202.5z"/>
		<path class="st17" d="M1600.1-177.2c-8.1-4.1-16.5,0.8-21.2,1.4c-0.8,0.1-2.5,0.1-3.5,1.2c-2.2,2.4-0.4,7.9,1.9,11.2
			c0.3,0.4,5.1,7,13,6.3c1.6-0.1,6.9-0.9,10-5.4C1603.1-166.7,1605-174.7,1600.1-177.2z"/>
		<path class="st17" d="M1553-148c-3.4-1.7-7.3-0.4-8.9-2.8c0,0-0.5-0.7-0.6-1.8c-0.8-5.8,14.3-22.4,21-19.1
			c7.1,3.5,2.7,28.6-2.6,29.5C1559.6-141.9,1556.5-146.3,1553-148z"/>
		<path class="st44" d="M1519.9-152.4c0,0,4.1,0.5,1.3,9.4c-2.8,8.9-5.1,13.6,0.8,19.4s11.9,8.7,16.6,11c4.7,2.3,19.2,7.1,22.1,4.2
			c1.8-1.9,13.3-18.4,18.1-16.1c0,0-15,27.9-16.8,28.5c-1.8,0.6-27,0.2-32.7-2.6s-21.2-19.1-20.7-23.3
			C1509.3-126,1516.8-144.4,1519.9-152.4z"/>
	</g>
</g>
<path class="st50" d="M53.9,16.4L53.9,16.4L53.9,16.4C36.6-1,12.4,23.1,29.8,40.5l24.1,24.1l0,0l0,0L78,40.5
	C95.3,23.1,71.2-1,53.9,16.4z"/>
<path class="st50" d="M118.8,16.4L118.8,16.4L118.8,16.4C101.5-1,77.4,23.1,94.7,40.5l24.1,24.1l0,0l0,0L143,40.5
	C160.3,23.1,136.2-1,118.8,16.4z"/>
<path class="st51" d="M183.8,16.4L183.8,16.4L183.8,16.4c-17.3-17.3-41.5,6.8-24.1,24.1l24.1,24.1l0,0l0,0l24.1-24.1
	C225.2,23.1,201.1-1,183.8,16.4z"/>
</svg>
